<?xml version="1.0" encoding="UTF-8"?>
<svg xmlns="http://www.w3.org/2000/svg" xmlns:xlink="http://www.w3.org/1999/xlink" width="600" height="160" viewBox="0 0 600 160">
<defs>
<g>
<g id="glyph-0-0">
<path d="M 22.703125 -44.210938 C 28.152344 -44.210938 32.382812 -42.773438 35.390625 -39.902344 C 38.398438 -37.03125 40.070312 -33.769531 40.398438 -30.117188 L 34.71875 -30.117188 C 34.074219 -32.890625 32.789062 -35.085938 30.863281 -36.710938 C 28.941406 -38.332031 26.242188 -39.140625 22.765625 -39.140625 C 18.527344 -39.140625 15.101562 -37.652344 12.496094 -34.671875 C 9.886719 -31.695312 8.585938 -27.128906 8.585938 -20.976562 C 8.585938 -15.9375 9.761719 -11.851562 12.113281 -8.714844 C 14.46875 -5.582031 17.976562 -4.015625 22.648438 -4.015625 C 26.945312 -4.015625 30.214844 -5.664062 32.460938 -8.964844 C 33.652344 -10.703125 34.539062 -12.988281 35.125 -15.820312 L 40.8125 -15.820312 C 40.304688 -11.289062 38.625 -7.492188 35.773438 -4.421875 C 32.355469 -0.730469 27.742188 1.113281 21.945312 1.113281 C 16.945312 1.113281 12.742188 -0.398438 9.34375 -3.429688 C 4.871094 -7.433594 2.636719 -13.613281 2.636719 -21.972656 C 2.636719 -28.320312 4.316406 -33.523438 7.675781 -37.585938 C 11.308594 -42 16.320312 -44.210938 22.703125 -44.210938 Z M 22.703125 -44.210938 "/>
</g>
<g id="glyph-0-1">
<path d="M 16.320312 -3.398438 C 19.816406 -3.398438 22.210938 -4.722656 23.511719 -7.367188 C 24.808594 -10.015625 25.460938 -12.960938 25.460938 -16.203125 C 25.460938 -19.132812 24.992188 -21.515625 24.054688 -23.351562 C 22.570312 -26.242188 20.007812 -27.6875 16.375 -27.6875 C 13.152344 -27.6875 10.8125 -26.453125 9.34375 -23.992188 C 7.878906 -21.53125 7.148438 -18.5625 7.148438 -15.085938 C 7.148438 -11.746094 7.882812 -8.964844 9.34375 -6.738281 C 10.808594 -4.511719 13.132812 -3.398438 16.320312 -3.398438 Z M 16.523438 -32.285156 C 20.566406 -32.285156 23.984375 -30.9375 26.777344 -28.242188 C 29.570312 -25.546875 30.96875 -21.582031 30.96875 -16.347656 C 30.96875 -11.289062 29.734375 -7.109375 27.273438 -3.808594 C 24.8125 -0.507812 20.996094 1.140625 15.820312 1.140625 C 11.503906 1.140625 8.078125 -0.316406 5.539062 -3.238281 C 3 -6.15625 1.726562 -10.078125 1.726562 -15 C 1.726562 -20.273438 3.066406 -24.472656 5.742188 -27.597656 C 8.417969 -30.722656 12.011719 -32.285156 16.523438 -32.285156 Z M 16.523438 -32.285156 "/>
</g>
<g id="glyph-0-2">
<path d="M 3.867188 -31.375 L 9.082031 -31.375 L 9.082031 -26.921875 C 10.332031 -28.464844 11.464844 -29.589844 12.480469 -30.292969 C 14.21875 -31.484375 16.191406 -32.078125 18.398438 -32.078125 C 20.898438 -32.078125 22.910156 -31.464844 24.433594 -30.234375 C 25.292969 -29.53125 26.074219 -28.496094 26.777344 -27.128906 C 27.949219 -28.808594 29.328125 -30.054688 30.90625 -30.863281 C 32.488281 -31.675781 34.265625 -32.078125 36.242188 -32.078125 C 40.460938 -32.078125 43.328125 -30.554688 44.851562 -27.507812 C 45.671875 -25.867188 46.085938 -23.664062 46.085938 -20.890625 L 46.085938 0 L 40.605469 0 L 40.605469 -21.796875 C 40.605469 -23.886719 40.082031 -25.320312 39.039062 -26.101562 C 37.992188 -26.882812 36.71875 -27.273438 35.214844 -27.273438 C 33.144531 -27.273438 31.363281 -26.582031 29.867188 -25.195312 C 28.375 -23.808594 27.625 -21.492188 27.625 -18.25 L 27.625 0 L 22.265625 0 L 22.265625 -20.476562 C 22.265625 -22.605469 22.011719 -24.160156 21.503906 -25.136719 C 20.703125 -26.601562 19.210938 -27.335938 17.023438 -27.335938 C 15.03125 -27.335938 13.21875 -26.5625 11.585938 -25.019531 C 9.957031 -23.476562 9.140625 -20.683594 9.140625 -16.640625 L 9.140625 0 L 3.867188 0 Z M 3.867188 -31.375 "/>
</g>
<g id="glyph-0-3">
<path d="M 3.867188 -31.375 L 8.875 -31.375 L 8.875 -26.921875 C 10.359375 -28.757812 11.933594 -30.078125 13.59375 -30.878906 C 15.253906 -31.679688 17.101562 -32.078125 19.132812 -32.078125 C 23.585938 -32.078125 26.59375 -30.527344 28.15625 -27.421875 C 29.015625 -25.722656 29.445312 -23.289062 29.445312 -20.125 L 29.445312 0 L 24.082031 0 L 24.082031 -19.773438 C 24.082031 -21.6875 23.796875 -23.234375 23.234375 -24.40625 C 22.296875 -26.359375 20.59375 -27.335938 18.132812 -27.335938 C 16.882812 -27.335938 15.859375 -27.207031 15.058594 -26.953125 C 13.613281 -26.523438 12.34375 -25.664062 11.25 -24.375 C 10.371094 -23.339844 9.800781 -22.269531 9.535156 -21.167969 C 9.273438 -20.0625 9.140625 -18.484375 9.140625 -16.4375 L 9.140625 0 L 3.867188 0 Z M 3.867188 -31.375 "/>
</g>
<g id="glyph-0-4">
<path d="M 26.660156 -17.636719 L 20.125 -36.648438 L 13.183594 -17.636719 Z M 17.078125 -43.039062 L 23.671875 -43.039062 L 39.289062 0 L 32.898438 0 L 28.535156 -12.890625 L 11.515625 -12.890625 L 6.855469 0 L 0.878906 0 Z M 17.078125 -43.039062 "/>
</g>
<g id="glyph-0-5">
<path d="M 5.890625 -43.039062 L 11.777344 -43.039062 L 11.777344 0 L 5.890625 0 Z M 5.890625 -43.039062 "/>
</g>
<g id="glyph-0-6">
<path d="M 5.125 -6.386719 L 11.25 -6.386719 L 11.25 0 L 5.125 0 Z M 5.125 -6.386719 "/>
</g>
</g>
</defs>
<g fill="rgb(0%, 0%, 0%)" fill-opacity="1">
<use xlink:href="#glyph-0-0" x="0" y="50"/>
<use xlink:href="#glyph-0-1" x="43.330078" y="50"/>
<use xlink:href="#glyph-0-2" x="76.699219" y="50"/>
<use xlink:href="#glyph-0-2" x="126.679688" y="50"/>
<use xlink:href="#glyph-0-1" x="176.660156" y="50"/>
<use xlink:href="#glyph-0-3" x="210.029297" y="50"/>
<use xlink:href="#glyph-0-4" x="243.398438" y="50"/>
<use xlink:href="#glyph-0-5" x="283.417969" y="50"/>
</g>
<g fill="rgb(0%, 0%, 0%)" fill-opacity="1">
<use xlink:href="#glyph-0-0" x="0" y="120"/>
<use xlink:href="#glyph-0-6" x="43.330078" y="120"/>
<use xlink:href="#glyph-0-5" x="60" y="120"/>
<use xlink:href="#glyph-0-6" x="76.669922" y="120"/>
<use xlink:href="#glyph-0-0" x="93.339844" y="120"/>
<use xlink:href="#glyph-0-6" x="136.669922" y="120"/>
</g>
</svg>
