<svg width="1137" height="139" viewBox="0 0 1137 139" fill="none" xmlns="http://www.w3.org/2000/svg">
<path d="M1134.36 80.1832L1114.08 81.431C1113.73 79.6979 1112.99 78.1382 1111.84 76.7517C1110.7 75.3306 1109.19 74.2042 1107.32 73.3723C1105.48 72.5058 1103.28 72.0725 1100.72 72.0725C1097.29 72.0725 1094.39 72.8004 1092.04 74.2561C1089.68 75.6772 1088.5 77.5836 1088.5 79.9752C1088.5 81.8816 1089.26 83.4933 1090.79 84.8104C1092.31 86.1275 1094.93 87.1847 1098.64 87.9819L1113.09 90.8934C1120.86 92.4878 1126.64 95.0527 1130.46 98.5882C1134.27 102.124 1136.18 106.768 1136.18 112.522C1136.18 117.756 1134.63 122.348 1131.55 126.3C1128.5 130.251 1124.31 133.336 1118.97 135.554C1113.66 137.738 1107.55 138.83 1100.61 138.83C1090.04 138.83 1081.62 136.629 1075.35 132.227C1069.11 127.79 1065.45 121.759 1064.38 114.134L1086.16 112.99C1086.82 116.213 1088.41 118.674 1090.94 120.373C1093.47 122.036 1096.72 122.868 1100.67 122.868C1104.55 122.868 1107.67 122.123 1110.02 120.633C1112.42 119.107 1113.63 117.149 1113.66 114.757C1113.63 112.747 1112.78 111.101 1111.12 109.818C1109.45 108.501 1106.89 107.496 1103.42 106.803L1089.59 104.047C1081.79 102.488 1075.99 99.784 1072.18 95.9366C1068.4 92.0892 1066.51 87.1847 1066.51 81.223C1066.51 76.0932 1067.89 71.6739 1070.67 67.9652C1073.47 64.2565 1077.41 61.3969 1082.47 59.3866C1087.56 57.3763 1093.53 56.3711 1100.35 56.3711C1110.44 56.3711 1118.38 58.5027 1124.17 62.766C1129.99 67.0293 1133.39 72.835 1134.36 80.1832Z" fill="black"/>
<path d="M1005.08 137.27V57.4114H1026.55V71.3451H1027.38C1028.84 66.3886 1031.28 62.6452 1034.71 60.115C1038.14 57.55 1042.09 56.2676 1046.57 56.2676C1047.67 56.2676 1048.87 56.3369 1050.15 56.4755C1051.44 56.6142 1052.56 56.8048 1053.53 57.0474V76.7002C1052.49 76.3883 1051.05 76.111 1049.22 75.8684C1047.38 75.6257 1045.7 75.5044 1044.17 75.5044C1040.92 75.5044 1038 76.215 1035.44 77.6361C1032.91 79.0225 1030.9 80.9635 1029.41 83.4591C1027.95 85.9547 1027.22 88.8316 1027.22 92.0897V137.27H1005.08Z" fill="black"/>
<path d="M951.041 138.83C942.826 138.83 935.755 137.166 929.828 133.838C923.936 130.476 919.395 125.728 916.206 119.593C913.018 113.423 911.423 106.127 911.423 97.7043C911.423 89.4896 913.018 82.2802 916.206 76.0759C919.395 69.8715 923.884 65.0363 929.672 61.5702C935.495 58.1041 942.323 56.3711 950.157 56.3711C955.425 56.3711 960.33 57.2203 964.87 58.9187C969.446 60.5824 973.432 63.0953 976.828 66.4574C980.26 69.8196 982.929 74.0482 984.835 79.1433C986.742 84.2038 987.695 90.1309 987.695 96.9244V103.007H920.262V89.2817H966.846C966.846 86.0929 966.153 83.268 964.766 80.8071C963.38 78.3461 961.456 76.4225 958.995 75.036C956.569 73.6149 953.744 72.9044 950.521 72.9044C947.159 72.9044 944.178 73.6842 941.578 75.244C939.013 76.7691 937.003 78.8314 935.547 81.431C934.092 83.9959 933.346 86.8554 933.312 90.0096V103.059C933.312 107.011 934.04 110.425 935.495 113.302C936.986 116.179 939.083 118.397 941.786 119.957C944.49 121.516 947.696 122.296 951.405 122.296C953.866 122.296 956.119 121.95 958.164 121.256C960.209 120.563 961.959 119.523 963.415 118.137C964.87 116.75 965.98 115.052 966.742 113.042L987.227 114.394C986.187 119.315 984.055 123.613 980.832 127.287C977.643 130.927 973.518 133.769 968.458 135.814C963.432 137.824 957.626 138.83 951.041 138.83Z" fill="black"/>
<path d="M778.179 137.27V57.4109H799.287V71.5006H800.223C801.887 66.8214 804.659 63.13 808.542 60.4264C812.424 57.7229 817.068 56.3711 822.475 56.3711C827.952 56.3711 832.614 57.7402 836.461 60.4784C840.308 63.182 842.873 66.856 844.156 71.5006H844.988C846.617 66.9254 849.563 63.2686 853.826 60.5304C858.124 57.7575 863.202 56.3711 869.06 56.3711C876.512 56.3711 882.56 58.7454 887.205 63.4939C891.884 68.2078 894.223 74.8974 894.223 83.5626V137.27H872.127V87.9299C872.127 83.4933 870.949 80.1658 868.592 77.9475C866.235 75.7292 863.289 74.6201 859.753 74.6201C855.732 74.6201 852.596 75.9025 850.343 78.4675C848.09 80.9977 846.963 84.3425 846.963 88.5018V137.27H825.491V87.462C825.491 83.5453 824.364 80.4258 822.111 78.1035C819.893 75.7812 816.964 74.6201 813.325 74.6201C810.864 74.6201 808.645 75.244 806.67 76.4918C804.729 77.7049 803.186 79.4206 802.043 81.6389C800.899 83.8226 800.327 86.3875 800.327 89.3337V137.27H778.179Z" fill="black"/>
<path d="M715.343 137.27V57.4114H736.816V71.3451H737.648C739.103 66.3886 741.547 62.6452 744.978 60.115C748.41 57.55 752.361 56.2676 756.832 56.2676C757.942 56.2676 759.137 56.3369 760.42 56.4755C761.702 56.6142 762.829 56.8048 763.799 57.0474V76.7002C762.759 76.3883 761.321 76.111 759.484 75.8684C757.647 75.6257 755.966 75.5044 754.441 75.5044C751.183 75.5044 748.271 76.215 745.706 77.6361C743.176 79.0225 741.166 80.9635 739.675 83.4591C738.219 85.9547 737.492 88.8316 737.492 92.0897V137.27H715.343Z" fill="black"/>
<path d="M658.708 138.83C650.632 138.83 643.648 137.114 637.755 133.682C631.898 130.216 627.374 125.398 624.186 119.229C620.997 113.024 619.402 105.832 619.402 97.6523C619.402 89.403 620.997 82.1935 624.186 76.0239C627.374 69.8195 631.898 65.0017 637.755 61.5702C643.648 58.1041 650.632 56.3711 658.708 56.3711C666.784 56.3711 673.751 58.1041 679.608 61.5702C685.501 65.0017 690.041 69.8195 693.23 76.0239C696.419 82.1935 698.013 89.403 698.013 97.6523C698.013 105.832 696.419 113.024 693.23 119.229C690.041 125.398 685.501 130.216 679.608 133.682C673.751 137.114 666.784 138.83 658.708 138.83ZM658.812 121.672C662.486 121.672 665.553 120.633 668.014 118.553C670.475 116.439 672.33 113.562 673.577 109.922C674.86 106.283 675.501 102.141 675.501 97.4963C675.501 92.8518 674.86 88.7098 673.577 85.0704C672.33 81.431 670.475 78.5541 668.014 76.4398C665.553 74.3255 662.486 73.2683 658.812 73.2683C655.103 73.2683 651.984 74.3255 649.453 76.4398C646.958 78.5541 645.069 81.431 643.786 85.0704C642.539 88.7098 641.915 92.8518 641.915 97.4963C641.915 102.141 642.539 106.283 643.786 109.922C645.069 113.562 646.958 116.439 649.453 118.553C651.984 120.633 655.103 121.672 658.812 121.672Z" fill="black"/>
<path d="M609.026 57.4111V74.0484H559.739V57.4111H609.026ZM571.021 137.27V51.64C571.021 45.8517 572.147 41.0511 574.4 37.2384C576.688 33.4257 579.807 30.5662 583.759 28.6598C587.71 26.7535 592.199 25.8003 597.224 25.8003C600.621 25.8003 603.723 26.0603 606.531 26.5802C609.373 27.1001 611.487 27.568 612.874 27.9839L608.922 44.6212C608.056 44.3439 606.981 44.084 605.699 43.8413C604.451 43.5987 603.169 43.4774 601.852 43.4774C598.593 43.4774 596.323 44.2399 595.041 45.765C593.758 47.2554 593.117 49.3524 593.117 52.056V137.27H571.021Z" fill="black"/>
<path d="M547.387 80.1832L527.11 81.431C526.764 79.6979 526.018 78.1382 524.875 76.7517C523.731 75.3306 522.223 74.2042 520.351 73.3723C518.514 72.5058 516.313 72.0725 513.748 72.0725C510.317 72.0725 507.423 72.8004 505.066 74.2561C502.709 75.6772 501.53 77.5836 501.53 79.9752C501.53 81.8816 502.293 83.4933 503.818 84.8104C505.343 86.1275 507.96 87.1847 511.669 87.9819L526.122 90.8934C533.886 92.4878 539.675 95.0527 543.488 98.5882C547.3 102.124 549.207 106.768 549.207 112.522C549.207 117.756 547.664 122.348 544.579 126.3C541.529 130.251 537.335 133.336 531.997 135.554C526.694 137.738 520.577 138.83 513.644 138.83C503.073 138.83 494.65 136.629 488.377 132.227C482.138 127.79 478.481 121.759 477.406 114.134L499.191 112.99C499.849 116.213 501.444 118.674 503.974 120.373C506.504 122.036 509.745 122.868 513.696 122.868C517.579 122.868 520.698 122.123 523.055 120.633C525.447 119.107 526.66 117.149 526.694 114.757C526.66 112.747 525.81 111.101 524.147 109.818C522.483 108.501 519.918 107.496 516.452 106.803L502.622 104.047C494.824 102.488 489.018 99.784 485.205 95.9366C481.427 92.0892 479.538 87.1847 479.538 81.223C479.538 76.0932 480.925 71.6739 483.697 67.9652C486.505 64.2565 490.439 61.3969 495.499 59.3866C500.595 57.3763 506.556 56.3711 513.385 56.3711C523.471 56.3711 531.408 58.5027 537.197 62.766C543.02 67.0293 546.416 72.835 547.387 80.1832Z" fill="black"/>
<path d="M409.086 91.1014V137.27H386.938V57.4109H408.046V71.5006H408.982C410.75 66.856 413.713 63.182 417.873 60.4784C422.032 57.7402 427.075 56.3711 433.002 56.3711C438.548 56.3711 443.383 57.5842 447.508 60.0105C451.632 62.4368 454.839 65.9029 457.126 70.4088C459.414 74.88 460.558 80.2178 460.558 86.4221V137.27H438.409V90.3735C438.444 85.4863 437.196 81.6736 434.666 78.9354C432.136 76.1625 428.652 74.7761 424.216 74.7761C421.235 74.7761 418.6 75.4173 416.313 76.6997C414.06 77.9822 412.292 79.8539 411.01 82.3148C409.762 84.7411 409.121 87.6699 409.086 91.1014Z" fill="black"/>
<path d="M321.854 138.778C316.759 138.778 312.218 137.894 308.232 136.126C304.246 134.324 301.092 131.672 298.77 128.171C296.482 124.636 295.338 120.234 295.338 114.965C295.338 110.529 296.153 106.803 297.782 103.787C299.411 100.772 301.629 98.3455 304.437 96.5085C307.244 94.6715 310.433 93.285 314.003 92.3492C317.608 91.4133 321.386 90.7548 325.337 90.3735C329.982 89.8883 333.725 89.4377 336.567 89.0217C339.41 88.5711 341.472 87.9126 342.754 87.046C344.037 86.1795 344.678 84.8971 344.678 83.1987V82.8867C344.678 79.5939 343.638 77.0464 341.559 75.244C339.514 73.4416 336.602 72.5404 332.824 72.5404C328.838 72.5404 325.666 73.4243 323.31 75.192C320.953 76.925 319.393 79.1087 318.63 81.7429L298.146 80.0792C299.185 75.2267 301.23 71.0327 304.281 67.4973C307.331 63.9272 311.265 61.189 316.083 59.2826C320.935 57.3416 326.55 56.3711 332.928 56.3711C337.365 56.3711 341.611 56.891 345.666 57.9308C349.756 58.9707 353.378 60.5824 356.532 62.766C359.721 64.9497 362.234 67.7572 364.071 71.1887C365.908 74.5854 366.826 78.6581 366.826 83.4066V137.27H345.822V126.196H345.198C343.915 128.691 342.2 130.892 340.051 132.799C337.902 134.67 335.32 136.143 332.304 137.218C329.289 138.258 325.805 138.778 321.854 138.778ZM328.197 123.492C331.455 123.492 334.332 122.851 336.827 121.568C339.323 120.251 341.281 118.484 342.702 116.265C344.123 114.047 344.834 111.534 344.834 108.726V100.252C344.141 100.702 343.188 101.118 341.974 101.5C340.796 101.846 339.462 102.176 337.971 102.488C336.481 102.765 334.99 103.025 333.5 103.267C332.009 103.475 330.658 103.666 329.445 103.839C326.845 104.221 324.575 104.827 322.634 105.659C320.693 106.491 319.185 107.617 318.11 109.038C317.036 110.425 316.499 112.158 316.499 114.238C316.499 117.253 317.59 119.558 319.774 121.152C321.992 122.712 324.8 123.492 328.197 123.492Z" fill="black"/>
<path d="M238.534 137.27V57.4114H260.006V71.3451H260.838C262.294 66.3886 264.738 62.6452 268.169 60.115C271.6 57.55 275.552 56.2676 280.023 56.2676C281.132 56.2676 282.328 56.3369 283.61 56.4755C284.893 56.6142 286.019 56.8048 286.99 57.0474V76.7002C285.95 76.3883 284.512 76.111 282.675 75.8684C280.838 75.6257 279.156 75.5044 277.631 75.5044C274.373 75.5044 271.462 76.215 268.897 77.6361C266.367 79.0225 264.356 80.9635 262.866 83.4591C261.41 85.9547 260.682 88.8316 260.682 92.0897V137.27H238.534Z" fill="black"/>
<path d="M142.463 49.3525V30.7915H229.913V49.3525H197.314V137.27H175.062V49.3525H142.463Z" fill="black"/>
<path fill-rule="evenodd" clip-rule="evenodd" d="M0.00572491 0H38.5997V24.9306L0.00572491 61.7287V0.00572491V0ZM38.594 137.264H0V75.6095L38.594 112.408V137.27V137.264Z" fill="black"/>
<path d="M89.6447 136.789H137.264L65.452 68.5694L135.908 0.114746H90.1309L18.0616 68.5694L89.6447 136.789Z" fill="#9D0EB3"/>
</svg>
