<svg xmlns="http://www.w3.org/2000/svg" width="86" height="99" fill="none"><circle cx="43.003" cy="49.616" r="39.299" fill="#fff"/><path fill="url(#a)" fill-rule="evenodd" d="M84.132 23.626a3.845 3.845 0 0 1 1.376 1.368A3.83 3.83 0 0 1 86 26.875V72.14c0 .658-.173 1.302-.501 1.872a3.845 3.845 0 0 1-1.375 1.369l-39.19 22.621a3.825 3.825 0 0 1-3.78 0L1.877 75.381A3.71 3.71 0 0 1 .5 74.012 3.746 3.746 0 0 1 0 72.14V26.875a3.737 3.737 0 0 1 1.88-3.25L41.164 1a3.825 3.825 0 0 1 3.78 0l39.19 22.626ZM57.945 34.725l-1.69 1.66h.005l-4.623 4.582 1.389 1.382 8.584-8.56a4.464 4.464 0 0 0 2.134.543c2.448 0 4.436-1.978 4.436-4.415 0-2.437-1.988-4.415-4.436-4.415-2.45 0-4.437 1.978-4.437 4.415 0 .975.324 1.876.861 2.605l-2.222 2.203ZM37.38 15.242a6.363 6.363 0 0 0-.976 2.517h.005c-.142.9-.084 1.818.16 2.692a6.457 6.457 0 0 0 1.712 3.011 6.51 6.51 0 0 0 3.03 1.7.941.941 0 0 1 .714.95v2.816l1.93-1.78v-1.827l.785-.238a6.593 6.593 0 0 0 3.753-2.715 6.595 6.595 0 0 0 1.038-4.504 6.596 6.596 0 0 0-2.187-4.074 6.651 6.651 0 0 0-4.339-1.647 6.716 6.716 0 0 0-3.709 1.13 6.664 6.664 0 0 0-1.916 1.969Zm-4.822 29.57-.226.257-.005-.005a.596.596 0 0 0-.146.389c0 .14.053.278.147.388l.257.256 7.492 7.302c.147.168.276.349.386.539v.27c-.598 2.538-1.193 5.067-1.783 7.597L37.251 67.8a.595.595 0 0 0 .288.724.603.603 0 0 0 .759-.114c.07-.062.137-.128.2-.199l14.967-14.926c.475-.486.475-.729-.027-1.21l-7.519-7.316a.832.832 0 0 1-.244-.865 668.924 668.924 0 0 1 1.726-7.315c.387-1.785.819-3.658 1.244-5.504l.184-.8a.566.566 0 0 0-.488-.777 1.02 1.02 0 0 0-.656.3 2548.845 2548.845 0 0 1-15.128 15.014Zm-5.19-14.895c0-2.437-1.988-4.415-4.436-4.415l-.005-.004c-2.448 0-4.436 1.977-4.436 4.415 0 2.436 1.988 4.414 4.436 4.414.768 0 1.49-.194 2.12-.534l5.32 5.333 1.317-1.448-5.177-5.152c.537-.733.86-1.634.86-2.61ZM7.635 53.404a6.669 6.669 0 0 0 3.589 2.463v-.009a6.433 6.433 0 0 0 4.383-.309 6.615 6.615 0 0 0 2.44-1.81 6.6 6.6 0 0 0 1.366-2.71l.15-.561h10.31l-2.071-2h-8.26l-.143-.578a6.569 6.569 0 0 0-2.31-3.63 6.601 6.601 0 0 0-4.069-1.43c-.306 0-.612.022-.914.07a6.816 6.816 0 0 0-4.023 2.16 6.737 6.737 0 0 0-1.744 4.203 6.612 6.612 0 0 0 1.296 4.14Zm17.66 16.458 7.342-7.306v.004l.661-3.43-9.431 9.386a4.388 4.388 0 0 0-2.267-.627c-2.449 0-4.436 1.978-4.436 4.415 0 2.436 1.987 4.414 4.436 4.414s4.436-1.978 4.436-4.415c0-.905-.275-1.743-.74-2.44Zm21.587 16.105c1.118-.706 2-1.73 2.524-2.94l.004.004c.524-1.21.67-2.547.422-3.84a6.371 6.371 0 0 0-1.646-3.285 6.432 6.432 0 0 0-3.19-1.845.99.99 0 0 1-.537-.376.987.987 0 0 1-.19-.622V69.49l-1.908 2.07v1.502a.994.994 0 0 1-.74.998 6.612 6.612 0 0 0-3.572 2.388 6.557 6.557 0 0 0 .111 8.101 6.629 6.629 0 0 0 3.638 2.287 6.52 6.52 0 0 0 2.63.084 6.643 6.643 0 0 0 2.454-.954Zm12.425-14.11c0 2.438 1.988 4.415 4.437 4.415v.005c2.448 0 4.436-1.978 4.436-4.415 0-2.437-1.988-4.415-4.436-4.415-.803 0-1.553.216-2.205.587l-3.243-3.236-.133-.163-3.345-3.329-1.406 1.39 6.68 6.658a4.38 4.38 0 0 0-.785 2.504Zm17.847-17.222a6.59 6.59 0 0 0 2.298-3.62l.005-.004a6.506 6.506 0 0 0-.874-5.06 6.587 6.587 0 0 0-2.955-2.512 6.647 6.647 0 0 0-3.86-.419 6.426 6.426 0 0 0-5.154 4.812.986.986 0 0 1-.377.534.99.99 0 0 1-.626.19h-7.395l2.08 1.899h5.315a1.006 1.006 0 0 1 1.003.737 6.577 6.577 0 0 0 2.4 3.554 6.632 6.632 0 0 0 4.09 1.337 6.623 6.623 0 0 0 4.05-1.448ZM43.004 23.9h-.053l-.004.008a5.183 5.183 0 0 1-4.68-3.033c-.409-.9-.55-1.894-.409-2.87a5.154 5.154 0 0 1 1.212-2.635 5.163 5.163 0 0 1 2.102-1.457 5.204 5.204 0 0 1 2.547-.274c.86.12 1.672.455 2.369.972a5.119 5.119 0 0 1 1.61 1.982 5.129 5.129 0 0 1-.342 4.927 5.18 5.18 0 0 1-4.352 2.38ZM11.086 44.736a5.268 5.268 0 0 1 2.018-.362l.005.005a5.215 5.215 0 0 1 3.549 1.59 5.097 5.097 0 0 1-.08 7.187 5.138 5.138 0 0 1-3.624 1.474 5.153 5.153 0 0 1-3.651-1.519 5.124 5.124 0 0 1 .062-7.27 5.194 5.194 0 0 1 1.721-1.105Zm62.124-.463a5.377 5.377 0 0 0-3.815 1.492 5.233 5.233 0 0 0-.066 7.417 5.247 5.247 0 0 0 3.726 1.545 5.265 5.265 0 0 0 3.585-1.567 5.22 5.22 0 0 0 .093-7.236 5.26 5.26 0 0 0-3.523-1.654v-.002h-.022l.022.002v.003ZM39.624 76.762a5.276 5.276 0 0 1 3.74-1.5h.004a5.283 5.283 0 0 1 3.713 1.567 5.318 5.318 0 0 1 1.5 3.779 5.231 5.231 0 0 1-1.664 3.523 5.287 5.287 0 0 1-7.27-.093 5.217 5.217 0 0 1-1.576-3.567 5.207 5.207 0 0 1 1.553-3.709Z" clip-rule="evenodd"/><defs><linearGradient id="a" x1="61.546" x2="-39.955" y1="30.616" y2="125.563" gradientUnits="userSpaceOnUse"><stop stop-color="#792EE5"/><stop offset="1" stop-color="#428FF4"/><stop offset="1" stop-color="#428FF4"/><stop offset="1" stop-color="#3EABB3"/></linearGradient></defs></svg>