<svg width="260" height="99" viewBox="0 0 260 99" fill="none" xmlns="http://www.w3.org/2000/svg">
<path d="M108.315 64.6636V35.5727H113.585V60.246H126.397V64.6636H108.315ZM129.744 64.6636V42.8454H134.886V64.6636H129.744ZM132.329 39.7488C131.514 39.7488 130.814 39.4789 130.227 38.9391C129.639 38.3899 129.346 37.7318 129.346 36.9647C129.346 36.1882 129.639 35.5301 130.227 34.9903C130.814 34.441 131.514 34.1664 132.329 34.1664C133.153 34.1664 133.853 34.441 134.431 34.9903C135.018 35.5301 135.312 36.1882 135.312 36.9647C135.312 37.7318 135.018 38.3899 134.431 38.9391C133.853 39.4789 133.153 39.7488 132.329 39.7488ZM150.068 42.8454V46.8227H137.526V42.8454H150.068ZM140.622 37.6181H145.764V58.1011C145.764 58.7924 145.868 59.3227 146.077 59.692C146.295 60.0518 146.579 60.298 146.929 60.4306C147.279 60.5632 147.668 60.6295 148.094 60.6295C148.416 60.6295 148.709 60.6058 148.974 60.5585C149.249 60.5111 149.457 60.4685 149.599 60.4306L150.466 64.4505C150.191 64.5452 149.798 64.6494 149.287 64.763C148.785 64.8766 148.17 64.9429 147.44 64.9619C146.152 64.9997 144.992 64.8056 143.96 64.3795C142.928 63.9439 142.109 63.2715 141.503 62.3624C140.906 61.4533 140.613 60.317 140.622 58.9533V37.6181ZM169.406 43.5698C169.273 42.3293 168.714 41.3634 167.729 40.6721C166.754 39.9808 165.485 39.6352 163.923 39.6352C162.824 39.6352 161.882 39.8009 161.096 40.1323C160.31 40.4638 159.709 40.9136 159.292 41.4818C158.875 42.0499 158.662 42.6986 158.653 43.4278C158.653 44.0338 158.79 44.5594 159.065 45.0045C159.349 45.4496 159.732 45.8283 160.215 46.1408C160.698 46.4439 161.233 46.6996 161.82 46.9079C162.407 47.1162 162.999 47.2914 163.596 47.4335L166.323 48.1153C167.422 48.371 168.478 48.7166 169.491 49.1522C170.513 49.5878 171.427 50.1371 172.232 50.7999C173.047 51.4628 173.691 52.263 174.164 53.2005C174.638 54.138 174.874 55.2365 174.874 56.496C174.874 58.2005 174.439 59.7015 173.567 60.9988C172.696 62.2867 171.437 63.2952 169.789 64.0244C168.151 64.7441 166.167 65.1039 163.837 65.1039C161.574 65.1039 159.609 64.7535 157.942 64.0528C156.285 63.352 154.988 62.3293 154.05 60.9846C153.122 59.6399 152.621 58.0016 152.545 56.0698H157.729C157.805 57.0831 158.118 57.9259 158.667 58.5982C159.216 59.2706 159.931 59.7725 160.812 60.1039C161.702 60.4354 162.696 60.6011 163.795 60.6011C164.941 60.6011 165.944 60.4306 166.806 60.0897C167.677 59.7393 168.359 59.2564 168.852 58.6408C169.344 58.0158 169.595 57.2867 169.604 56.4533C169.595 55.6958 169.372 55.0708 168.937 54.5783C168.501 54.0765 167.89 53.6598 167.104 53.3283C166.328 52.9874 165.419 52.6844 164.377 52.4193L161.067 51.567C158.672 50.9515 156.778 50.0187 155.386 48.7687C154.003 47.5092 153.312 45.8378 153.312 43.7545C153.312 42.0405 153.776 40.5395 154.704 39.2516C155.641 37.9638 156.915 36.9647 158.525 36.2545C160.135 35.5348 161.958 35.1749 163.994 35.1749C166.058 35.1749 167.867 35.5348 169.42 36.2545C170.982 36.9647 172.209 37.9543 173.099 39.2232C173.989 40.4827 174.448 41.9316 174.477 43.5698H169.406ZM188.004 65.0897C185.817 65.0897 183.928 64.6352 182.337 63.7261C180.755 62.8075 179.538 61.5102 178.686 59.834C177.834 58.1484 177.408 56.1645 177.408 53.8823C177.408 51.638 177.834 49.6683 178.686 47.9732C179.548 46.2687 180.75 44.9429 182.294 43.996C183.838 43.0395 185.651 42.5613 187.734 42.5613C189.079 42.5613 190.348 42.7791 191.541 43.2147C192.744 43.6408 193.804 44.3037 194.723 45.2033C195.651 46.103 196.38 47.2488 196.911 48.6408C197.441 50.0234 197.706 51.6711 197.706 53.584V55.1607H179.822V51.6948H192.777C192.768 50.71 192.554 49.834 192.138 49.067C191.721 48.2905 191.139 47.6797 190.391 47.2346C189.652 46.7895 188.79 46.567 187.805 46.567C186.754 46.567 185.831 46.8227 185.036 47.334C184.24 47.8359 183.62 48.4988 183.175 49.3227C182.739 50.1371 182.517 51.0319 182.507 52.0073V55.0329C182.507 56.3018 182.739 57.3908 183.203 58.2999C183.667 59.1996 184.316 59.8908 185.149 60.3738C185.982 60.8473 186.958 61.084 188.075 61.084C188.823 61.084 189.5 60.9799 190.107 60.7715C190.713 60.5537 191.238 60.2365 191.683 59.8198C192.128 59.4032 192.464 58.8871 192.692 58.2715L197.493 58.8113C197.19 60.0802 196.612 61.1882 195.76 62.1352C194.917 63.0727 193.838 63.8018 192.521 64.3227C191.205 64.834 189.699 65.0897 188.004 65.0897ZM201.056 64.6636V42.8454H206.042V46.4818H206.269C206.667 45.2223 207.349 44.2516 208.315 43.5698C209.29 42.8785 210.403 42.5329 211.653 42.5329C211.937 42.5329 212.254 42.5471 212.604 42.5755C212.964 42.5944 213.263 42.6276 213.499 42.6749V47.4051C213.281 47.3293 212.936 47.263 212.462 47.2062C211.998 47.1399 211.549 47.1068 211.113 47.1068C210.175 47.1068 209.333 47.3104 208.585 47.7176C207.846 48.1153 207.263 48.6693 206.837 49.3795C206.411 50.0897 206.198 50.9088 206.198 51.8369V64.6636H201.056ZM236.068 42.8454L228.298 64.6636H222.616L214.847 42.8454H220.33L225.344 59.0528H225.571L230.599 42.8454H236.068ZM247.543 65.0897C245.356 65.0897 243.467 64.6352 241.876 63.7261C240.294 62.8075 239.077 61.5102 238.225 59.834C237.373 58.1484 236.947 56.1645 236.947 53.8823C236.947 51.638 237.373 49.6683 238.225 47.9732C239.087 46.2687 240.29 44.9429 241.833 43.996C243.377 43.0395 245.19 42.5613 247.273 42.5613C248.618 42.5613 249.887 42.7791 251.08 43.2147C252.283 43.6408 253.344 44.3037 254.262 45.2033C255.19 46.103 255.919 47.2488 256.45 48.6408C256.98 50.0234 257.245 51.6711 257.245 53.584V55.1607H239.362V51.6948H252.316C252.307 50.71 252.094 49.834 251.677 49.067C251.26 48.2905 250.678 47.6797 249.93 47.2346C249.191 46.7895 248.329 46.567 247.344 46.567C246.293 46.567 245.37 46.8227 244.575 47.334C243.779 47.8359 243.159 48.4988 242.714 49.3227C242.278 50.1371 242.056 51.0319 242.046 52.0073V55.0329C242.046 56.3018 242.278 57.3908 242.742 58.2999C243.206 59.1996 243.855 59.8908 244.688 60.3738C245.522 60.8473 246.497 61.084 247.614 61.084C248.362 61.084 249.04 60.9799 249.646 60.7715C250.252 60.5537 250.777 60.2365 251.222 59.8198C251.667 59.4032 252.004 58.8871 252.231 58.2715L257.032 58.8113C256.729 60.0802 256.151 61.1882 255.299 62.1352C254.456 63.0727 253.377 63.8018 252.06 64.3227C250.744 64.834 249.238 65.0897 247.543 65.0897Z" fill="#1C1C1C"/>
<g clip-path="url(#clip0_691_261)">
<g clip-path="url(#clip1_691_261)">
<path fill-rule="evenodd" clip-rule="evenodd" d="M85.6071 25.6636C85.2729 25.0964 84.8019 24.6219 84.2371 24.2836L45.2371 1.67358C44.6669 1.33961 44.0179 1.16357 43.3571 1.16357C42.6962 1.16357 42.0473 1.33961 41.4771 1.67358L2.37708 24.2836C1.80985 24.6188 1.33814 25.094 1.00708 25.6636C0.679251 26.2359 0.506876 26.8841 0.50708 27.5436V72.8036C0.508155 73.4598 0.680503 74.1044 1.00708 74.6736C1.33878 75.2401 1.81054 75.7119 2.37708 76.0436L41.4671 98.6636C42.0393 98.9917 42.6875 99.1643 43.3471 99.1643C44.0067 99.1643 44.6548 98.9917 45.2271 98.6636L84.2271 76.0436C84.7915 75.7091 85.2626 75.238 85.5971 74.6736C85.9237 74.1044 86.096 73.4598 86.0971 72.8036V27.5436C86.1003 26.885 85.9314 26.2369 85.6071 25.6636Z" fill="url(#paint0_linear_691_261)"/>
<path d="M41.627 26.6636C41.8364 26.7163 42.0214 26.8395 42.1507 27.0125C42.28 27.1855 42.3458 27.3978 42.337 27.6136C42.337 28.1836 42.337 30.6136 42.337 31.8136V34.0236L44.257 32.2436V26.8836L45.037 26.6436C46.5778 26.2255 47.9144 25.2623 48.7985 23.933C49.6825 22.6036 50.054 20.9985 49.8438 19.416C49.6336 17.8334 48.856 16.3809 47.6556 15.3284C46.4551 14.2759 44.9134 13.695 43.317 13.6936C42.9316 13.6975 42.5472 13.731 42.167 13.7936C41.2585 13.96 40.3943 14.3123 39.6285 14.8286C38.8627 15.3448 38.2119 16.0139 37.717 16.7936C37.1645 17.6699 36.8268 18.6642 36.7312 19.6957C36.6356 20.7272 36.7849 21.7666 37.1669 22.7295C37.549 23.6924 38.1529 24.5514 38.9297 25.2368C39.7064 25.9221 40.634 26.4144 41.637 26.6736L41.627 26.6636ZM39.747 17.2136C40.2608 16.6202 40.9153 16.1653 41.6505 15.8905C42.3857 15.6157 43.1782 15.5298 43.9552 15.6407C44.7322 15.7516 45.469 16.0557 46.098 16.5252C46.727 16.9947 47.2281 17.6146 47.5554 18.328C47.8826 19.0414 48.0256 19.8256 47.9713 20.6086C47.9169 21.3916 47.6668 22.1484 47.2441 22.8098C46.8213 23.4711 46.2394 24.0157 45.5515 24.3938C44.8636 24.7718 44.0919 24.9712 43.307 24.9736H43.257C42.361 24.9668 41.4858 24.7036 40.7348 24.215C39.9838 23.7264 39.3885 23.0329 39.0193 22.2166C38.65 21.4003 38.5223 20.4953 38.6513 19.6086C38.7803 18.722 39.1605 17.8909 39.747 17.2136Z" fill="white"/>
<path d="M58.4071 37.3435C59.7652 38.1775 61.3825 38.4835 62.9514 38.2033C64.5204 37.923 65.9317 37.0761 66.9171 35.8235C67.6836 34.8881 68.1775 33.7594 68.3445 32.5616C68.5115 31.3637 68.3451 30.1431 67.8636 29.0336C67.3821 27.9242 66.6042 26.9689 65.6153 26.2727C64.6264 25.5765 63.4647 25.1663 62.2579 25.0872C61.051 25.0081 59.8458 25.2631 58.7744 25.8243C57.7031 26.3855 56.8071 27.231 56.1849 28.2681C55.5628 29.3053 55.2385 30.4938 55.2477 31.7032C55.2569 32.9126 55.5993 34.096 56.2371 35.1235L56.5771 35.6435L56.1371 36.0735L54.4671 37.6935L52.9571 39.1835L52.2871 42.6035L57.9071 36.9835L58.4071 37.3435ZM61.7571 27.0235C62.3827 27.0259 63.0015 27.1536 63.5769 27.3993C64.1523 27.6449 64.6727 28.0033 65.1071 28.4535C65.5459 28.9121 65.8893 29.4532 66.1176 30.0453C66.3459 30.6375 66.4545 31.2691 66.4371 31.9035C66.388 33.1168 65.8713 34.264 64.9951 35.1048C64.119 35.9455 62.9514 36.4145 61.7371 36.4135C61.1217 36.4083 60.5133 36.2817 59.9468 36.0411C59.3804 35.8004 58.8669 35.4504 58.4359 35.011C58.0049 34.5716 57.6649 34.0516 57.4351 33.4806C57.2054 32.9096 57.0905 32.299 57.0971 31.6835C57.0997 30.4447 57.5902 29.2568 58.4624 28.3771C59.3346 27.4974 60.5183 26.9967 61.7571 26.9835V27.0235Z" fill="white"/>
<path d="M19.9771 51.1236H30.6771L28.6171 49.1236H19.957L19.817 48.5436C19.4671 47.1218 18.6523 45.8575 17.5018 44.9517C16.3514 44.0458 14.9313 43.5502 13.4671 43.5436C13.1623 43.5425 12.858 43.5658 12.5571 43.6136C11.0137 43.8493 9.59914 44.6111 8.55308 45.7702C7.50703 46.9292 6.89373 48.4142 6.81706 49.9736C6.77358 51.4585 7.22852 52.9152 8.10936 54.1114C8.99019 55.3076 10.2462 56.1744 11.6771 56.5736C13.1224 56.9872 14.6676 56.8738 16.0371 56.2536C16.9801 55.8464 17.8144 55.2235 18.4727 54.4349C19.131 53.6464 19.5949 52.7142 19.827 51.7136L19.9771 51.1236ZM13.4071 54.8536C12.4847 54.8433 11.5859 54.5613 10.823 54.0427C10.0601 53.5242 9.46709 52.7923 9.11809 51.9384C8.76908 51.0846 8.67961 50.1468 8.86085 49.2424C9.0421 48.3379 9.48601 47.507 10.1371 46.8536C10.683 46.3057 11.3559 45.9013 12.0959 45.6764C12.8359 45.4515 13.62 45.4132 14.3785 45.5647C15.1369 45.7163 15.8462 46.0531 16.4429 46.5451C17.0397 47.0371 17.5056 47.669 17.799 48.3846C18.0924 49.1002 18.2042 49.8773 18.1246 50.6467C18.045 51.416 17.7763 52.1537 17.3425 52.794C16.9088 53.4344 16.3234 53.9576 15.6385 54.3169C14.9536 54.6762 14.1905 54.8606 13.4171 54.8536H13.4071Z" fill="white"/>
<path d="M44.9171 73.6836C44.6971 73.6269 44.5029 73.497 44.3665 73.3152C44.2302 73.1335 44.1599 72.9107 44.1671 72.6836C44.1671 72.0936 44.1671 69.4336 44.1671 67.5636L42.2371 69.4436V73.4436L41.4671 73.6636C40.4223 73.9498 39.4642 74.489 38.6776 75.2337C37.8909 75.9783 37.3 76.9054 36.957 77.9329C36.614 78.9604 36.5296 80.0565 36.7112 81.1244C36.8928 82.1923 37.3349 83.1989 37.9983 84.0552C38.6616 84.9116 39.5258 85.5912 40.5144 86.0339C41.503 86.4766 42.5855 86.6688 43.6661 86.5935C44.7467 86.5182 45.7921 86.1777 46.7097 85.6021C47.6273 85.0266 48.3889 84.2337 48.9271 83.2936C49.4306 82.4194 49.7263 81.4412 49.7914 80.4345C49.8565 79.4278 49.6893 78.4196 49.3027 77.4879C48.9161 76.5561 48.3204 75.7257 47.5617 75.0609C46.803 74.396 45.9016 73.9145 44.9271 73.6536L44.9171 73.6836ZM43.2971 84.7336C42.3647 84.7321 41.454 84.4522 40.6818 83.9297C39.9096 83.4072 39.311 82.6659 38.9629 81.801C38.6148 80.936 38.5329 79.9868 38.7279 79.0751C38.9228 78.1633 39.3857 77.3306 40.0571 76.6836C40.6075 76.1476 41.2812 75.755 42.0189 75.5403C42.7566 75.3257 43.5358 75.2956 44.2879 75.4526C45.04 75.6097 45.742 75.9491 46.3321 76.4411C46.9223 76.933 47.3825 77.5624 47.6724 78.2739C47.9624 78.9854 48.073 79.7573 47.9947 80.5216C47.9164 81.2859 47.6516 82.0192 47.2234 82.6572C46.7953 83.2951 46.2169 83.8181 45.5393 84.1802C44.8616 84.5423 44.1054 84.7323 43.3371 84.7336H43.2971Z" fill="white"/>
<path d="M64.657 62.7636C63.7347 62.3238 62.7218 62.1073 61.7003 62.1317C60.6788 62.156 59.6774 62.4204 58.777 62.9036L57.837 63.4336L57.4271 63.0236L55.087 60.6536L53.087 58.6536L51.687 60.0536L56.397 64.7636L56.0471 65.3936C55.2136 66.7467 54.9242 68.3655 55.2371 69.9236C55.4826 71.2115 56.1039 72.398 57.0227 73.3334C57.9415 74.2688 59.1167 74.9112 60.4001 75.1796C61.6835 75.4481 63.0177 75.3305 64.2344 74.8418C65.4511 74.3531 66.4959 73.5152 67.2371 72.4336C67.7436 71.7155 68.0996 70.9023 68.2835 70.043C68.4674 69.1837 68.4754 68.2961 68.3071 67.4336C68.1211 66.4182 67.6919 65.4631 67.0563 64.6498C66.4206 63.8365 65.5974 63.1893 64.657 62.7636ZM61.7471 73.3436C60.5076 73.3383 59.3208 72.8415 58.4471 71.9622C57.5735 71.083 57.0844 69.8931 57.087 68.6536C57.0817 67.4141 57.5683 66.2231 58.4401 65.3419C59.3118 64.4608 60.4976 63.9615 61.7371 63.9536C62.3718 63.9242 63.006 64.024 63.6011 64.2467C64.1963 64.4694 64.7401 64.8105 65.1996 65.2494C65.6592 65.6882 66.025 66.2157 66.275 66.8C66.5249 67.3842 66.6538 68.0131 66.6538 68.6486C66.6538 69.284 66.5249 69.9129 66.275 70.4971C66.025 71.0814 65.6592 71.6089 65.1996 72.0477C64.7401 72.4866 64.1963 72.8277 63.6011 73.0504C63.006 73.2731 62.3718 73.3729 61.7371 73.3436H61.7471Z" fill="white"/>
<path d="M78.707 46.6235C78.0018 45.5109 76.9778 44.6363 75.7686 44.1137C74.5593 43.5911 73.2207 43.4447 71.9271 43.6936C70.6965 43.905 69.5549 44.4722 68.6432 45.3253C67.7315 46.1783 67.0897 47.2798 66.7971 48.4935C66.7366 48.7098 66.605 48.8995 66.4236 49.0319C66.2422 49.1644 66.0215 49.2319 65.7971 49.2236H56.4871L58.5571 51.1235C60.0071 51.1235 65.007 51.1235 65.787 51.1235C66.0128 51.1158 66.2346 51.1848 66.4161 51.3191C66.5977 51.4535 66.7284 51.6454 66.787 51.8635C67.0512 52.8501 67.5397 53.7624 68.2145 54.5291C68.8892 55.2958 69.732 55.8962 70.6771 56.2836C71.9717 56.7998 73.3967 56.8922 74.7472 56.5475C76.0977 56.2029 77.3042 55.4389 78.1932 54.3655C79.0822 53.292 79.6079 51.9643 79.6949 50.5733C79.7818 49.1822 79.4255 47.7993 78.6771 46.6235H78.707ZM73.1671 54.8536C72.547 54.8577 71.9326 54.7367 71.3604 54.4979C70.7882 54.2591 70.2701 53.9073 69.837 53.4635C69.1784 52.7962 68.7344 51.9472 68.5621 51.0256C68.3898 50.1039 68.4971 49.1518 68.8702 48.2916C69.2433 47.4314 69.8651 46.7025 70.6558 46.1986C71.4464 45.6946 72.3698 45.4386 73.3071 45.4635C74.5362 45.5052 75.7005 46.0249 76.5521 46.9121C77.4038 47.7993 77.8756 48.9838 77.8671 50.2135C77.8631 50.8268 77.7384 51.4333 77.5001 51.9984C77.2618 52.5635 76.9145 53.0761 76.478 53.507C76.0416 53.9378 75.5246 54.2785 74.9565 54.5096C74.3884 54.7406 73.7803 54.8575 73.1671 54.8536Z" fill="white"/>
<path d="M23.057 37.9836C23.9166 38.2227 24.8169 38.2778 25.6992 38.1451C26.5814 38.0124 27.4258 37.695 28.177 37.2136L28.6869 36.8936L33.767 41.9836L35.117 40.6036L30.117 35.6036L30.427 35.0936C30.8807 34.3903 31.188 33.6028 31.3306 32.7781C31.4732 31.9534 31.4481 31.1084 31.257 30.2936C30.9998 29.1327 30.4339 28.0628 29.619 27.197C28.804 26.3312 27.7702 25.7017 26.627 25.3749C25.4838 25.0481 24.2735 25.0362 23.1241 25.3405C21.9747 25.6448 20.9288 26.254 20.097 27.1036C19.0112 28.2081 18.3505 29.6607 18.2316 31.2049C18.1126 32.7492 18.5431 34.2859 19.447 35.5436C20.3212 36.7611 21.6014 37.6263 23.057 37.9836ZM24.787 26.9836C25.9947 27.0394 27.1345 27.5583 27.9694 28.4327C28.8044 29.3071 29.2703 30.4696 29.2703 31.6786C29.2703 32.8876 28.8044 34.0501 27.9694 34.9245C27.1345 35.7988 25.9947 36.3178 24.787 36.3736C24.1668 36.3686 23.5539 36.2384 22.9852 35.991C22.4164 35.7436 21.9035 35.3839 21.477 34.9336C21.037 34.479 20.6913 33.942 20.4596 33.3533C20.2279 32.7647 20.1149 32.1361 20.127 31.5036C20.1732 30.2954 20.6833 29.1515 21.5512 28.3097C22.4191 27.4679 23.578 26.993 24.787 26.9836Z" fill="white"/>
<path d="M28.1869 63.0436C27.1727 62.3997 25.9983 62.0532 24.797 62.0436C23.7832 62.0552 22.7853 62.296 21.8778 62.748C20.9704 63.2 20.177 63.8515 19.557 64.6536C18.6099 65.8842 18.1278 67.4098 18.1958 68.9611C18.2637 70.5125 18.8773 71.99 19.9284 73.1331C20.9794 74.2762 22.4003 75.0115 23.9405 75.2091C25.4807 75.4068 27.0413 75.0542 28.347 74.2136C29.6289 73.4037 30.5739 72.1567 31.0069 70.7036C31.3042 69.8053 31.3984 68.8523 31.2825 67.9133C31.1666 66.9742 30.8437 66.0726 30.3369 65.2736L30.0269 64.7736L32.9369 61.8636L33.607 58.4336L28.6869 63.3436L28.1869 63.0436ZM28.0869 71.9836C27.6532 72.416 27.1385 72.7587 26.5723 72.9921C26.0061 73.2254 25.3994 73.3449 24.787 73.3436C24.1673 73.3432 23.554 73.2182 22.9837 72.976C22.4133 72.7338 21.8975 72.3793 21.4669 71.9336C20.5824 71.0096 20.1005 69.7725 20.1269 68.4936C20.1785 67.2741 20.6996 66.1218 21.5811 65.2775C22.4626 64.4333 23.6364 63.9625 24.857 63.9636C25.7768 63.9797 26.6715 64.2659 27.4299 64.7867C28.1883 65.3074 28.7767 66.0397 29.122 66.8923C29.4674 67.745 29.5543 68.6804 29.372 69.5821C29.1898 70.4838 28.7463 71.312 28.097 71.9636L28.0869 71.9836Z" fill="white"/>
<path d="M41.397 53.7735C40.977 55.5669 40.5604 57.3502 40.147 59.1235L39.147 63.3435C39.1159 63.4385 39.1188 63.5414 39.1553 63.6345C39.1918 63.7276 39.2596 63.805 39.347 63.8535C39.4309 63.904 39.5297 63.9237 39.6265 63.9091C39.7232 63.8945 39.8118 63.8465 39.877 63.7735C39.9261 63.7294 39.9729 63.6827 40.017 63.6335L50.507 53.1235C50.837 52.7835 50.837 52.6135 50.507 52.2735L45.2371 47.1135C45.1535 47.0408 45.0929 46.9454 45.0627 46.8388C45.0325 46.7323 45.034 46.6193 45.067 46.5135C45.467 44.7935 45.8704 43.0735 46.277 41.3535C46.617 39.8835 46.967 38.4035 47.277 36.9235C47.3009 36.8652 47.3105 36.802 47.3053 36.7392C47.3001 36.6764 47.2801 36.6157 47.2469 36.562C47.2138 36.5084 47.1684 36.4634 47.1146 36.4307C47.0607 36.3979 46.9999 36.3783 46.937 36.3735C46.7629 36.3838 46.5989 36.4587 46.4771 36.5835C42.9504 40.0835 39.4237 43.5935 35.897 47.1135L35.7371 47.2935C35.6709 47.3699 35.6345 47.4675 35.6345 47.5685C35.6345 47.6696 35.6709 47.7672 35.7371 47.8435L35.9171 48.0135L41.1671 53.1635C41.2682 53.2819 41.3586 53.4091 41.437 53.5435C41.467 53.6435 41.467 53.7135 41.397 53.7735Z" fill="white"/>
</g>
</g>
<defs>
<linearGradient id="paint0_linear_691_261" x1="62.5771" y1="68.1336" x2="-38.8929" y2="-26.3364" gradientUnits="userSpaceOnUse">
<stop stop-color="#792EE5"/>
<stop offset="1" stop-color="#428FF4"/>
</linearGradient>
<clipPath id="clip0_691_261">
<rect width="85.65" height="98" fill="white" transform="translate(0.468994 0.663574)"/>
</clipPath>
<clipPath id="clip1_691_261">
<rect width="85.65" height="98" fill="white" transform="translate(0.457031 1.16357)"/>
</clipPath>
</defs>
</svg>
