<?xml version="1.0" encoding="UTF-8"?>
<svg id="_图层_1" data-name="图层 1" xmlns="http://www.w3.org/2000/svg" viewBox="0 0 300 69.94">
  <path d="M212.92,31.34c1.45,0,2.7.28,3.78.85,1.09.55,2.32,1.56,3.7,3.04v-7.05c-2.29-1.09-4.72-1.63-7.29-1.63-4,0-7.38,1.18-10.13,3.54-2.75,2.36-4.13,5.25-4.13,8.67s1.36,6.29,4.07,8.6c2.72,2.29,6.09,3.44,10.13,3.44,2.45,0,4.89-.56,7.34-1.68v-7c-1.45,1.54-2.7,2.58-3.78,3.11-1.11.55-2.39.83-3.83.83-2.27,0-4.13-.69-5.6-2.08-1.45-1.38-2.17-3.15-2.17-5.3s.75-3.85,2.25-5.25c1.5-1.4,3.39-2.1,5.65-2.1Z"/>
  <path d="M242.99,27.19v2.66c-2.41-2.2-5.14-3.3-8.17-3.3-3.52,0-6.45,1.15-8.79,3.44-2.34,2.3-3.51,5.16-3.51,8.6s1.17,6.42,3.51,8.77c2.36,2.29,5.34,3.44,8.95,3.44,2.86,0,5.53-1.02,8.01-3.07v2.41h6.05v-22.96h-6.05ZM236.05,46.15c-4.12,0-7.45-3.34-7.45-7.45s3.34-7.45,7.45-7.45,7.45,3.34,7.45,7.45-3.34,7.45-7.45,7.45Z"/>
  <path d="M264.03,36.83l11.33-9.64h-8.09l-8.49,7.43V10.34h-6.03v39.81h6.03v-8.84l.97-.85,8.62,9.69h7.83l-12.16-13.32Z"/>
  <path d="M294.91,41.63c-1.23,1.7-2.33,2.86-3.29,3.49-.98.63-2.23.94-3.73.94-1.93,0-3.51-.55-4.74-1.65-1.23-1.11-1.93-2.62-2.09-4.5h18.7l.03-1.25c0-3.79-1.11-6.75-3.32-8.89-2.23-2.15-5.27-3.23-9.11-3.23s-6.86,1.11-9.16,3.32c-2.29,2.25-3.43,5.19-3.43,8.81s1.18,6.6,3.54,8.82c2.36,2.2,5.48,3.3,9.38,3.3,1.36,0,2.62-.13,3.78-.38,1.16-.25,2.24-.65,3.24-1.19,1-.54,1.94-1.24,2.81-2.07.88-.84,1.71-1.85,2.49-3.03l-5.09-2.5ZM282.32,33.81c.38-.52.83-.96,1.36-1.33.53-.37,1.11-.65,1.75-.85.64-.2,1.33-.29,2.06-.29,3.22,0,5.24,1.41,6.08,4.24h-12.11c.2-.66.48-1.25.86-1.77Z"/>
  <path d="M174.46,50.68v-23.01h6.35v2.71h.1c1.28-2.02,4.14-3.56,6.88-3.56,6.4,0,9.22,5.08,9.22,9.63v14.23h-6.23v-13.36c0-3.13-2.51-4.92-5.04-4.92-2.29,0-4.92,1.99-4.92,5.32v12.95h-6.36Z"/>
  <path d="M133.88,32.69c3.25,0,5.87,2.64,5.87,5.87s-2.64,5.87-5.87,5.87-5.87-2.64-5.87-5.87,2.64-5.87,5.87-5.87ZM133.88,26.45c-6.69,0-12.11,5.43-12.11,12.11s5.43,12.11,12.11,12.11,12.11-5.43,12.11-12.11-5.43-12.11-12.11-12.11Z"/>
  <path d="M160.29,32.69c3.25,0,5.87,2.64,5.87,5.87s-2.64,5.87-5.87,5.87-5.87-2.64-5.87-5.87,2.64-5.87,5.87-5.87ZM160.29,26.45c-6.69,0-12.11,5.43-12.11,12.11s5.43,12.11,12.11,12.11,12.11-5.43,12.11-12.11-5.43-12.11-12.11-12.11Z"/>
  <path d="M119.23,19.07h0l-17.5,12.68-17.49-12.68h0s-.01,0-.01,0v31.62h6.26v-19.37l11.24,8.15,11.24-8.15v19.37h6.26v-31.62Z"/>
  <g>
    <path d="M34.97,52.58c-9.71,0-17.61-7.9-17.61-17.61s7.9-17.61,17.61-17.61,17.61,7.9,17.61,17.61-7.9,17.61-17.61,17.61ZM34.97,20.2c-8.15,0-14.77,6.63-14.77,14.77s6.63,14.77,14.77,14.77,14.77-6.63,14.77-14.77-6.63-14.77-14.77-14.77Z"/>
    <path d="M21.13,10.86c-.5,0-.99-.27-1.25-.74-.37-.69-.12-1.55.57-1.93,1.81-.98,3.73-1.78,5.69-2.38.75-.23,1.54.2,1.77.95.23.75-.2,1.54-.95,1.77-1.78.54-3.52,1.26-5.16,2.15-.22.12-.45.17-.68.17Z"/>
    <path d="M34.97,11.87c-3.27,0-5.93-2.66-5.93-5.93s2.66-5.93,5.93-5.93,5.93,2.66,5.93,5.93-2.66,5.93-5.93,5.93ZM34.97,2.84c-1.71,0-3.09,1.39-3.09,3.09s1.39,3.09,3.09,3.09,3.09-1.39,3.09-3.09-1.39-3.09-3.09-3.09Z"/>
    <path d="M7.13,28.12c-.13,0-.27-.02-.4-.06-.75-.22-1.18-1.01-.96-1.76.58-1.97,1.37-3.89,2.34-5.71.37-.69,1.23-.95,1.92-.58.69.37.95,1.23.58,1.92-.88,1.64-1.59,3.38-2.12,5.17-.18.62-.75,1.02-1.36,1.02Z"/>
    <path d="M14.44,20.37c-1.58,0-3.07-.62-4.2-1.74-1.12-1.12-1.74-2.61-1.74-4.19s.62-3.07,1.74-4.19,2.61-1.74,4.2-1.74,3.07.62,4.2,1.74h0c1.12,1.12,1.74,2.61,1.74,4.19s-.62,3.07-1.74,4.2c-1.12,1.12-2.61,1.74-4.19,1.74ZM14.44,11.34c-.83,0-1.6.32-2.19.91-.58.58-.91,1.36-.91,2.19s.32,1.6.91,2.19c.58.58,1.36.91,2.19.91s1.6-.32,2.19-.91c.58-.58.91-1.36.91-2.19s-.32-1.6-.91-2.19h0c-.58-.58-1.36-.91-2.19-.91Z"/>
    <path d="M9.44,50.23c-.5,0-.99-.27-1.25-.74-.98-1.81-1.78-3.72-2.38-5.69-.23-.75.2-1.54.95-1.77.75-.23,1.54.2,1.77.95.54,1.78,1.26,3.52,2.16,5.16.37.69.12,1.55-.57,1.93-.22.12-.45.17-.68.17Z"/>
    <path d="M5.93,40.9c-3.27,0-5.93-2.66-5.93-5.93s2.66-5.93,5.93-5.93,5.93,2.66,5.93,5.93-2.66,5.93-5.93,5.93ZM5.93,31.88c-1.71,0-3.09,1.39-3.09,3.09s1.39,3.09,3.09,3.09,3.09-1.39,3.09-3.09-1.39-3.09-3.09-3.09Z"/>
    <path d="M26.7,64.23c-.13,0-.27-.02-.4-.06-1.97-.58-3.89-1.37-5.71-2.34-.69-.37-.95-1.23-.58-1.92.37-.69,1.23-.95,1.92-.58,1.64.88,3.38,1.59,5.17,2.12.75.22,1.18,1.01.96,1.76-.18.62-.75,1.02-1.36,1.02Z"/>
    <path d="M14.44,61.43c-1.58,0-3.07-.62-4.2-1.74-2.31-2.31-2.31-6.08,0-8.39,1.12-1.12,2.61-1.74,4.2-1.74s3.07.62,4.2,1.74c2.31,2.31,2.31,6.08,0,8.39-1.12,1.12-2.61,1.74-4.2,1.74ZM14.44,52.41c-.83,0-1.6.32-2.19.91-1.21,1.21-1.21,3.17,0,4.37.58.58,1.36.91,2.19.91s1.6-.32,2.19-.91c1.21-1.21,1.21-3.17,0-4.37-.58-.58-1.36-.91-2.19-.91Z"/>
    <path d="M43.38,64.19c-.61,0-1.17-.4-1.36-1.01-.23-.75.2-1.54.95-1.77,1.78-.54,3.52-1.26,5.16-2.15.69-.38,1.55-.12,1.93.57.37.69.12,1.55-.57,1.93-1.81.98-3.73,1.78-5.69,2.38-.14.04-.28.06-.41.06Z"/>
    <path d="M34.97,69.94c-3.27,0-5.93-2.66-5.93-5.93s2.66-5.93,5.93-5.93,5.93,2.66,5.93,5.93-2.66,5.93-5.93,5.93ZM34.97,60.91c-1.71,0-3.09,1.39-3.09,3.09s1.39,3.09,3.09,3.09,3.09-1.39,3.09-3.09-1.39-3.09-3.09-3.09Z"/>
    <path d="M60.57,50.09c-.23,0-.46-.05-.67-.17-.69-.37-.95-1.23-.58-1.92.88-1.64,1.59-3.38,2.12-5.17.22-.75,1.01-1.18,1.76-.96.75.22,1.18,1.01.96,1.76-.58,1.97-1.37,3.89-2.34,5.71-.26.48-.75.75-1.25.75Z"/>
    <path d="M55.5,61.43c-1.52,0-3.04-.58-4.2-1.74-2.31-2.31-2.31-6.08,0-8.39,2.31-2.31,6.08-2.31,8.39,0,2.31,2.31,2.31,6.08,0,8.39-1.16,1.16-2.68,1.74-4.2,1.74ZM55.5,52.41c-.79,0-1.58.3-2.19.9-1.21,1.21-1.21,3.17,0,4.37,1.21,1.21,3.17,1.21,4.37,0,1.21-1.21,1.21-3.17,0-4.37-.6-.6-1.4-.9-2.19-.9Z"/>
    <path d="M62.77,27.97c-.61,0-1.17-.4-1.36-1.01-.54-1.78-1.26-3.52-2.15-5.16-.37-.69-.12-1.55.57-1.93.69-.37,1.55-.12,1.93.57.98,1.81,1.78,3.72,2.38,5.69.23.75-.2,1.54-.95,1.77-.14.04-.28.06-.41.06Z"/>
    <path d="M64.01,40.9c-3.27,0-5.93-2.66-5.93-5.93s2.66-5.93,5.93-5.93,5.93,2.66,5.93,5.93-2.66,5.93-5.93,5.93ZM64.01,31.88c-1.71,0-3.09,1.39-3.09,3.09s1.39,3.09,3.09,3.09,3.09-1.39,3.09-3.09-1.39-3.09-3.09-3.09Z"/>
    <path d="M48.67,10.78c-.23,0-.46-.05-.67-.17-1.64-.88-3.38-1.59-5.17-2.12-.75-.22-1.18-1.01-.96-1.76.22-.75,1.01-1.18,1.76-.96,1.97.58,3.89,1.37,5.71,2.34.69.37.95,1.23.58,1.92-.26.48-.75.75-1.25.75Z"/>
    <path d="M55.5,20.37c-1.52,0-3.04-.58-4.2-1.74-1.12-1.12-1.74-2.61-1.74-4.19s.62-3.07,1.74-4.19c2.31-2.31,6.08-2.31,8.39,0,1.12,1.12,1.74,2.61,1.74,4.19s-.62,3.07-1.74,4.19h0s0,0,0,0c-1.16,1.16-2.68,1.73-4.19,1.73ZM55.5,11.35c-.79,0-1.58.3-2.19.9-.58.58-.91,1.36-.91,2.19s.32,1.6.91,2.19c1.21,1.21,3.17,1.21,4.37,0h0c.58-.58.91-1.36.91-2.19s-.32-1.6-.91-2.19c-.6-.6-1.4-.9-2.19-.9Z"/>
  </g>
</svg>