<svg width="1710" height="816" xmlns="http://www.w3.org/2000/svg" xmlns:xlink="http://www.w3.org/1999/xlink" xml:space="preserve" overflow="hidden"><defs><linearGradient x1="678" y1="1140.5" x2="1121" y2="1140.5" gradientUnits="userSpaceOnUse" spreadMethod="reflect" id="fill0"><stop offset="0" stop-color="#F6F8FC" stop-opacity="1"/><stop offset="0.59" stop-color="#ADB9CA" stop-opacity="1"/><stop offset="0.83" stop-color="#8497B0" stop-opacity="1"/><stop offset="1" stop-color="#44546A" stop-opacity="1"/></linearGradient></defs><g transform="translate(-366 -600)"><g><text fill="#44546A" fill-opacity="1" font-family="Apple Symbols,Apple Symbols_MSFontService,sans-serif" font-style="normal" font-variant="normal" font-weight="400" font-stretch="normal" font-size="275" text-anchor="start" direction="ltr" writing-mode="lr-tb" unicode-bidi="normal" text-decoration="none" transform="matrix(1 0 0 1 692.021 1090)">eura</text><text fill="#222A35" fill-opacity="1" font-family="Apple Symbols,Apple Symbols_MSFontService,sans-serif" font-style="normal" font-variant="normal" font-weight="700" font-stretch="normal" font-size="244" text-anchor="start" direction="ltr" writing-mode="lr-tb" unicode-bidi="normal" text-decoration="none" transform="matrix(1 0 0 1 1180.95 1085)">Operator</text><path d="M1056.35 1200 1056.35 1167.98 678 1167.98 678 1113.03 1056.35 1113.03 1056.35 1081 1121 1140.5Z" fill="url(#fill0)" fill-rule="evenodd"/><path d="M380 1009.44C389.677 988.182 399.355 966.919 407.097 982.383 414.839 997.846 407.097 1160.22 426.452 1102.23 445.807 1044.24 490.323 618.337 523.226 634.445 556.129 650.553 596.774 1175.04 623.871 1198.88 650.968 1222.72 672.258 859.96 685.807 777.486 699.355 695.012 727.419 705.321 740 746.558" stroke="#2F528F" stroke-width="18.3333" stroke-linecap="butt" stroke-linejoin="miter" stroke-miterlimit="8" stroke-opacity="1" fill="none" fill-rule="evenodd"/><path d="M1079 1088.26C1089.32 1097.68 1099.63 1107.11 1107.79 1067.07 1115.94 1027.03 1121.74 831.139 1127.94 848.03 1134.13 864.921 1138.24 1133.08 1144.95 1168.41 1151.67 1203.74 1168.24 1060 1168.24 1060 1172.08 1054.11 1173.04 1060.59 1174 1067.07" stroke="#2F528F" stroke-width="13.75" stroke-linecap="butt" stroke-linejoin="miter" stroke-miterlimit="8" stroke-opacity="1" fill="none" fill-rule="evenodd"/><text fill="#000000" fill-opacity="1" font-family="Calibri,Calibri_MSFontService,sans-serif" font-style="normal" font-variant="normal" font-weight="400" font-stretch="normal" font-size="55" text-anchor="start" direction="ltr" writing-mode="lr-tb" unicode-bidi="normal" text-decoration="none" transform="matrix(1 0 0 1 1198.15 1163)">in infinite dimensions</text><text fill="#FFFFFF" fill-opacity="1" font-family="Calibri,Calibri_MSFontService,sans-serif" font-style="normal" font-variant="normal" font-weight="400" font-stretch="normal" font-size="55" text-anchor="start" direction="ltr" writing-mode="lr-tb" unicode-bidi="normal" text-decoration="none" transform="matrix(1 0 0 1 900.135 1161)">Learning</text></g></g></svg>