<svg version="1.1" id="Layer_1" xmlns="http://www.w3.org/2000/svg" xmlns:xlink="http://www.w3.org/1999/xlink" x="0px" y="0px"
	 width="100%" viewBox="0 0 1009 265" enable-background="new 0 0 1009 265" xml:space="preserve">
<path fill="#FFFFFF" opacity="1.000000" stroke="none" 
	d="
M656.000000,266.000000 
	C437.333344,266.000000 219.166672,266.000000 1.000000,266.000000 
	C1.000000,177.666672 1.000000,89.333336 1.000000,1.000000 
	C337.333344,1.000000 673.666687,1.000000 1010.000000,1.000000 
	C1010.000000,89.333336 1010.000000,177.666672 1010.000000,266.000000 
	C892.166687,266.000000 774.333313,266.000000 656.000000,266.000000 
M165.472076,217.982498 
	C166.700943,219.499924 168.002945,220.964478 169.145111,222.544586 
	C172.712341,227.479614 176.466934,231.184128 183.614304,230.186859 
	C189.987625,229.297607 196.606049,229.664154 203.073044,230.107635 
	C208.129425,230.454391 209.103882,228.489822 209.092575,223.851883 
	C208.951233,165.875427 209.000000,107.898514 209.000000,49.921715 
	C209.000000,38.000000 209.000000,38.000000 196.859039,38.000000 
	C188.609604,38.000000 180.360168,38.000000 171.504959,38.000000 
	C171.504959,81.439148 171.504959,124.171181 171.504959,167.638763 
	C165.407120,160.242859 159.819626,153.684692 154.471695,146.936691 
	C140.918732,129.835526 127.508507,112.621315 113.974976,95.504677 
	C99.825348,77.608818 85.613731,59.761860 71.388840,41.925728 
	C69.280373,39.281994 66.892578,37.631569 62.979141,37.868645 
	C55.509552,38.321148 47.979450,38.273235 40.501110,37.899651 
	C35.861473,37.667877 34.963081,39.791031 34.966244,43.710728 
	C35.014748,103.853287 35.022697,163.995941 34.951328,224.138443 
	C34.946323,228.350235 36.440456,230.146225 40.761147,230.053574 
	C49.253845,229.871460 57.753201,230.000671 66.249802,229.999786 
	C72.989807,229.999100 72.998062,229.998230 72.998611,223.044403 
	C73.001549,186.059204 73.000000,149.074005 73.000000,112.088814 
	C73.000000,110.530312 73.000000,108.971809 73.000000,106.211617 
	C75.206520,108.609367 76.604149,109.988678 77.843575,111.497894 
	C85.092941,120.325218 92.265228,129.216049 99.541527,138.020996 
	C106.630371,146.599075 113.850975,155.068207 120.944611,163.642365 
	C129.893539,174.459030 138.785110,185.323273 147.676971,196.187012 
	C153.464661,203.258209 159.208817,210.365021 165.472076,217.982498 
M785.454834,37.000000 
	C776.793396,37.000027 768.128662,36.879490 759.473633,37.114014 
	C757.960449,37.155014 755.634216,38.339283 755.123108,39.585762 
	C745.964417,61.925491 736.948303,84.324799 728.063477,106.775383 
	C716.873535,135.050415 705.828979,163.383011 694.723206,191.691330 
	C689.867920,204.067154 685.016113,216.444336 680.132385,228.898163 
	C681.002502,229.368011 681.558044,229.928345 682.116333,229.931076 
	C694.108398,229.990067 706.102112,230.066162 718.090942,229.866501 
	C719.230652,229.847519 720.866638,228.245041 721.380493,227.007446 
	C725.390320,217.350632 729.210754,207.614502 733.021790,197.876266 
	C734.086060,195.156754 735.544556,193.724014 738.834412,193.908646 
	C744.645935,194.234818 750.488892,194.000000 756.318726,194.000000 
	C776.787170,194.000000 797.255676,194.000000 817.739624,194.000000 
	C822.652405,206.169769 827.465210,218.091812 832.272339,230.000000 
	C843.827026,230.000000 854.981323,230.003983 866.135559,229.998489 
	C872.775513,229.995224 872.749329,229.877975 870.095886,223.391678 
	C866.623230,214.902512 863.391968,206.314926 860.012512,197.787247 
	C848.689087,169.213745 837.328796,140.654816 826.015686,112.077217 
	C817.309265,90.084152 808.574890,68.101524 800.011475,46.052681 
	C796.524353,37.074112 796.715149,37.000000 785.454834,37.000000 
M634.486938,188.991898 
	C629.449341,184.180634 629.218811,177.378189 629.119263,171.503571 
	C628.619446,142.024185 628.955566,112.530647 628.980652,83.042061 
	C628.981201,82.431129 628.772949,81.820007 628.676758,81.289650 
	C616.665405,81.289650 604.918701,81.289650 593.010620,81.289650 
	C593.010620,84.212700 593.010620,86.847298 593.010620,90.008652 
	C574.207336,79.421356 554.477173,77.067154 534.174194,82.498016 
	C513.598267,88.001869 497.729218,100.444290 487.540710,119.119453 
	C472.446808,146.786041 473.957733,185.380249 502.909393,212.335037 
	C514.726624,223.337265 528.984863,230.192108 544.934875,231.808380 
	C568.874146,234.234253 590.545349,228.142365 607.968140,210.669922 
	C619.158508,221.291809 631.363953,228.630356 646.999207,230.100967 
	C646.999207,219.281311 647.082092,208.975388 646.886719,198.674759 
	C646.864075,197.483047 645.185364,195.244919 644.460938,195.318863 
	C639.670166,195.807785 637.610168,192.306839 634.486938,188.991898 
M328.452362,228.001770 
	C348.094727,221.098343 362.443878,208.048843 371.658691,189.602005 
	C379.010101,174.885422 380.606384,159.174438 378.054230,142.902283 
	C374.921082,122.926155 364.657166,107.245361 349.047211,95.111298 
	C335.001343,84.192986 318.793152,79.453239 300.827332,79.886742 
	C281.567352,80.351486 264.739594,86.845055 250.919754,99.808861 
	C231.474289,118.049835 223.361816,141.116547 227.200043,167.457687 
	C230.379608,189.278427 241.277863,207.178009 259.998718,219.363892 
	C281.002838,233.036041 303.699310,235.974579 328.452362,228.001770 
M397.000000,101.500000 
	C397.000000,125.811638 396.501740,150.139404 397.288116,174.425598 
	C397.540863,182.231186 399.907745,190.594360 403.540741,197.533112 
	C410.923187,211.632965 422.622070,221.675949 437.765106,227.333923 
	C446.812531,230.714371 456.005096,232.997391 465.868835,231.683762 
	C465.868835,220.440353 465.868835,209.490158 465.868835,198.230194 
	C462.157593,197.619339 458.485931,197.193604 454.898041,196.392456 
	C441.888947,193.487595 433.084045,181.855133 433.828308,168.129166 
	C434.599548,153.905594 434.000000,139.607681 434.000000,124.999985 
	C443.609161,124.999985 452.735901,124.841240 461.852509,125.075554 
	C465.674469,125.173775 467.241730,124.210922 467.087158,120.078423 
	C466.788574,112.096710 466.819458,104.090088 467.077637,96.105553 
	C467.203156,92.223953 466.111694,90.791428 462.036591,90.913033 
	C452.783997,91.189156 443.517517,91.000023 433.999908,91.000023 
	C433.999908,74.138000 433.921295,57.844334 434.062866,41.552574 
	C434.092987,38.082184 433.011841,36.859043 429.485870,36.934395 
	C420.331543,37.130043 411.164917,37.183289 402.014252,36.915421 
	C398.006134,36.798092 396.882111,38.110615 396.918396,42.052830 
	C397.097687,61.533817 397.000000,81.017357 397.000000,101.500000 
M909.456421,230.000000 
	C911.787537,229.999969 914.125122,229.889725 916.448425,230.024338 
	C920.486938,230.258331 922.045532,228.456879 922.041565,224.433777 
	C921.981567,163.492615 921.979126,102.551353 922.055847,41.610218 
	C922.060120,38.217495 921.142822,36.849419 917.544434,36.932079 
	C908.557861,37.138512 899.561829,37.097160 890.572693,36.955929 
	C886.549744,36.892719 884.897888,38.504028 884.956238,42.544987 
	C885.093140,52.033855 885.000000,61.526047 885.000000,71.016891 
	C885.000000,121.801247 884.998047,172.585602 885.002502,223.369965 
	C885.003052,229.485443 885.497314,229.983841 891.484375,229.997284 
	C897.145569,230.009979 902.806824,230.000000 909.456421,230.000000 
M967.867126,38.352833 
	C963.046448,37.318436 958.025146,34.867741 953.442810,35.516605 
	C939.982300,37.422634 934.677795,50.235012 937.882812,60.882286 
	C939.983459,67.860634 944.395020,72.495049 950.998108,73.716957 
	C958.650635,75.133064 966.691101,74.598412 971.880493,67.286903 
	C977.722656,59.055595 977.595459,46.005615 967.867126,38.352833 
z"/>
<path fill="#252A39" opacity="1.000000" stroke="none" 
	d="
M165.222290,217.719193 
	C159.208817,210.365021 153.464661,203.258209 147.676971,196.187012 
	C138.785110,185.323273 129.893539,174.459030 120.944611,163.642365 
	C113.850975,155.068207 106.630371,146.599075 99.541527,138.020996 
	C92.265228,129.216049 85.092941,120.325218 77.843575,111.497894 
	C76.604149,109.988678 75.206520,108.609367 73.000000,106.211617 
	C73.000000,108.971809 73.000000,110.530312 73.000000,112.088814 
	C73.000000,149.074005 73.001549,186.059204 72.998611,223.044403 
	C72.998062,229.998230 72.989807,229.999100 66.249802,229.999786 
	C57.753201,230.000671 49.253845,229.871460 40.761147,230.053574 
	C36.440456,230.146225 34.946323,228.350235 34.951328,224.138443 
	C35.022697,163.995941 35.014748,103.853287 34.966244,43.710728 
	C34.963081,39.791031 35.861473,37.667877 40.501110,37.899651 
	C47.979450,38.273235 55.509552,38.321148 62.979141,37.868645 
	C66.892578,37.631569 69.280373,39.281994 71.388840,41.925728 
	C85.613731,59.761860 99.825348,77.608818 113.974976,95.504677 
	C127.508507,112.621315 140.918732,129.835526 154.471695,146.936691 
	C159.819626,153.684692 165.407120,160.242859 171.504959,167.638763 
	C171.504959,124.171181 171.504959,81.439148 171.504959,38.000000 
	C180.360168,38.000000 188.609604,38.000000 196.859039,38.000000 
	C209.000000,38.000000 209.000000,38.000000 209.000000,49.921715 
	C209.000000,107.898514 208.951233,165.875427 209.092575,223.851883 
	C209.103882,228.489822 208.129425,230.454391 203.073044,230.107635 
	C196.606049,229.664154 189.987625,229.297607 183.614304,230.186859 
	C176.466934,231.184128 172.712341,227.479614 169.145111,222.544586 
	C168.002945,220.964478 166.700943,219.499924 165.222290,217.719193 
z"/>
<path fill="#252A39" opacity="1.000000" stroke="none" 
	d="
M785.944336,37.000000 
	C796.715149,37.000000 796.524353,37.074112 800.011475,46.052681 
	C808.574890,68.101524 817.309265,90.084152 826.015686,112.077217 
	C837.328796,140.654816 848.689087,169.213745 860.012512,197.787247 
	C863.391968,206.314926 866.623230,214.902512 870.095886,223.391678 
	C872.749329,229.877975 872.775513,229.995224 866.135559,229.998489 
	C854.981323,230.003983 843.827026,230.000000 832.272339,230.000000 
	C827.465210,218.091812 822.652405,206.169769 817.739624,194.000000 
	C797.255676,194.000000 776.787170,194.000000 756.318726,194.000000 
	C750.488892,194.000000 744.645935,194.234818 738.834412,193.908646 
	C735.544556,193.724014 734.086060,195.156754 733.021790,197.876266 
	C729.210754,207.614502 725.390320,217.350632 721.380493,227.007446 
	C720.866638,228.245041 719.230652,229.847519 718.090942,229.866501 
	C706.102112,230.066162 694.108398,229.990067 682.116333,229.931076 
	C681.558044,229.928345 681.002502,229.368011 680.132385,228.898163 
	C685.016113,216.444336 689.867920,204.067154 694.723206,191.691330 
	C705.828979,163.383011 716.873535,135.050415 728.063477,106.775383 
	C736.948303,84.324799 745.964417,61.925491 755.123108,39.585762 
	C755.634216,38.339283 757.960449,37.155014 759.473633,37.114014 
	C768.128662,36.879490 776.793396,37.000027 785.944336,37.000000 
M801.955139,150.639511 
	C793.600220,129.942963 785.245361,109.246414 776.890442,88.549866 
	C776.340637,88.677742 775.790771,88.805618 775.240967,88.933495 
	C766.209961,111.515236 757.179016,134.096970 748.145447,156.685211 
	C767.083923,156.685211 785.448120,156.685211 804.212463,156.685211 
	C803.384888,154.669449 802.721863,153.054459 801.955139,150.639511 
z"/>
<path fill="#252A39" opacity="1.000000" stroke="none" 
	d="
M634.749878,189.253738 
	C637.610168,192.306839 639.670166,195.807785 644.460938,195.318863 
	C645.185364,195.244919 646.864075,197.483047 646.886719,198.674759 
	C647.082092,208.975388 646.999207,219.281311 646.999207,230.100967 
	C631.363953,228.630356 619.158508,221.291809 607.968140,210.669922 
	C590.545349,228.142365 568.874146,234.234253 544.934875,231.808380 
	C528.984863,230.192108 514.726624,223.337265 502.909393,212.335037 
	C473.957733,185.380249 472.446808,146.786041 487.540710,119.119453 
	C497.729218,100.444290 513.598267,88.001869 534.174194,82.498016 
	C554.477173,77.067154 574.207336,79.421356 593.010620,90.008652 
	C593.010620,86.847298 593.010620,84.212700 593.010620,81.289650 
	C604.918701,81.289650 616.665405,81.289650 628.676758,81.289650 
	C628.772949,81.820007 628.981201,82.431129 628.980652,83.042061 
	C628.955566,112.530647 628.619446,142.024185 629.119263,171.503571 
	C629.218811,177.378189 629.449341,184.180634 634.749878,189.253738 
M520.959290,178.439926 
	C528.469482,189.850006 539.490906,195.805618 552.677490,196.815353 
	C564.730347,197.738281 575.669678,192.978256 583.813721,184.358658 
	C594.557190,172.987808 597.823730,159.134750 593.320984,143.722580 
	C588.844666,128.400635 570.435181,112.996140 549.505493,115.845291 
	C530.238770,118.468063 514.711426,135.339066 513.924927,154.839203 
	C513.580994,163.366806 516.610962,170.695831 520.959290,178.439926 
z"/>
<path fill="#252A39" opacity="1.000000" stroke="none" 
	d="
M328.043701,228.030106 
	C303.699310,235.974579 281.002838,233.036041 259.998718,219.363892 
	C241.277863,207.178009 230.379608,189.278427 227.200043,167.457687 
	C223.361816,141.116547 231.474289,118.049835 250.919754,99.808861 
	C264.739594,86.845055 281.567352,80.351486 300.827332,79.886742 
	C318.793152,79.453239 335.001343,84.192986 349.047211,95.111298 
	C364.657166,107.245361 374.921082,122.926155 378.054230,142.902283 
	C380.606384,159.174438 379.010101,174.885422 371.658691,189.602005 
	C362.443878,208.048843 348.094727,221.098343 328.043701,228.030106 
M264.996552,141.621262 
	C259.741852,153.940399 261.363617,165.830887 268.074799,176.939590 
	C276.224609,190.429581 288.900482,197.257492 304.346008,196.750046 
	C317.672882,196.312195 328.975067,190.084518 336.631622,178.707443 
	C341.504608,171.466553 344.480530,163.117493 343.779724,154.495850 
	C342.764130,142.001770 337.493011,131.141922 326.997772,123.523758 
	C319.026398,117.737595 309.899048,114.121208 300.175140,115.231522 
	C283.972748,117.081589 271.821991,125.525101 264.996552,141.621262 
z"/>
<path fill="#252A39" opacity="1.000000" stroke="none" 
	d="
M397.000000,101.000000 
	C397.000000,81.017357 397.097687,61.533817 396.918396,42.052830 
	C396.882111,38.110615 398.006134,36.798092 402.014252,36.915421 
	C411.164917,37.183289 420.331543,37.130043 429.485870,36.934395 
	C433.011841,36.859043 434.092987,38.082184 434.062866,41.552574 
	C433.921295,57.844334 433.999908,74.138000 433.999908,91.000023 
	C443.517517,91.000023 452.783997,91.189156 462.036591,90.913033 
	C466.111694,90.791428 467.203156,92.223953 467.077637,96.105553 
	C466.819458,104.090088 466.788574,112.096710 467.087158,120.078423 
	C467.241730,124.210922 465.674469,125.173775 461.852509,125.075554 
	C452.735901,124.841240 443.609161,124.999985 434.000000,124.999985 
	C434.000000,139.607681 434.599548,153.905594 433.828308,168.129166 
	C433.084045,181.855133 441.888947,193.487595 454.898041,196.392456 
	C458.485931,197.193604 462.157593,197.619339 465.868835,198.230194 
	C465.868835,209.490158 465.868835,220.440353 465.868835,231.683762 
	C456.005096,232.997391 446.812531,230.714371 437.765106,227.333923 
	C422.622070,221.675949 410.923187,211.632965 403.540741,197.533112 
	C399.907745,190.594360 397.540863,182.231186 397.288116,174.425598 
	C396.501740,150.139404 397.000000,125.811638 397.000000,101.000000 
z"/>
<path fill="#252A39" opacity="1.000000" stroke="none" 
	d="
M908.962219,230.000000 
	C902.806824,230.000000 897.145569,230.009979 891.484375,229.997284 
	C885.497314,229.983841 885.003052,229.485443 885.002502,223.369965 
	C884.998047,172.585602 885.000000,121.801247 885.000000,71.016891 
	C885.000000,61.526047 885.093140,52.033855 884.956238,42.544987 
	C884.897888,38.504028 886.549744,36.892719 890.572693,36.955929 
	C899.561829,37.097160 908.557861,37.138512 917.544434,36.932079 
	C921.142822,36.849419 922.060120,38.217495 922.055847,41.610218 
	C921.979126,102.551353 921.981567,163.492615 922.041565,224.433777 
	C922.045532,228.456879 920.486938,230.258331 916.448425,230.024338 
	C914.125122,229.889725 911.787537,229.999969 908.962219,230.000000 
z"/>
<path fill="#252A39" opacity="1.000000" stroke="none" 
	d="
M968.121338,38.633705 
	C977.595459,46.005615 977.722656,59.055595 971.880493,67.286903 
	C966.691101,74.598412 958.650635,75.133064 950.998108,73.716957 
	C944.395020,72.495049 939.983459,67.860634 937.882812,60.882286 
	C934.677795,50.235012 939.982300,37.422634 953.442810,35.516605 
	C958.025146,34.867741 963.046448,37.318436 968.121338,38.633705 
M966.131165,64.425575 
	C966.131165,64.425575 966.136353,64.521088 966.940674,64.504807 
	C970.936035,62.190304 971.051636,58.345787 971.013000,54.382313 
	C970.931763,46.040409 965.555664,40.310879 957.011414,39.557625 
	C950.306152,38.966488 942.775330,44.244129 942.069397,50.509144 
	C940.877136,61.090202 943.845276,66.524124 952.355774,69.666817 
	C958.391418,71.895615 964.747070,69.058304 966.131165,64.425575 
z"/>
<path fill="#FFFFFF" opacity="1.000000" stroke="none" 
	d="
M802.006958,151.039490 
	C802.721863,153.054459 803.384888,154.669449 804.212463,156.685211 
	C785.448120,156.685211 767.083923,156.685211 748.145447,156.685211 
	C757.179016,134.096970 766.209961,111.515236 775.240967,88.933495 
	C775.790771,88.805618 776.340637,88.677742 776.890442,88.549866 
	C785.245361,109.246414 793.600220,129.942963 802.006958,151.039490 
z"/>
<path fill="#FFFFFF" opacity="1.000000" stroke="none" 
	d="
M520.689331,178.183258 
	C516.610962,170.695831 513.580994,163.366806 513.924927,154.839203 
	C514.711426,135.339066 530.238770,118.468063 549.505493,115.845291 
	C570.435181,112.996140 588.844666,128.400635 593.320984,143.722580 
	C597.823730,159.134750 594.557190,172.987808 583.813721,184.358658 
	C575.669678,192.978256 564.730347,197.738281 552.677490,196.815353 
	C539.490906,195.805618 528.469482,189.850006 520.689331,178.183258 
z"/>
<path fill="#FFFFFF" opacity="1.000000" stroke="none" 
	d="
M265.016327,141.220734 
	C271.821991,125.525101 283.972748,117.081589 300.175140,115.231522 
	C309.899048,114.121208 319.026398,117.737595 326.997772,123.523758 
	C337.493011,131.141922 342.764130,142.001770 343.779724,154.495850 
	C344.480530,163.117493 341.504608,171.466553 336.631622,178.707443 
	C328.975067,190.084518 317.672882,196.312195 304.346008,196.750046 
	C288.900482,197.257492 276.224609,190.429581 268.074799,176.939590 
	C261.363617,165.830887 259.741852,153.940399 265.016327,141.220734 
z"/>
<path fill="#FFFFFF" opacity="1.000000" stroke="none" 
	d="
M966.180054,64.343361 
	C964.747070,69.058304 958.391418,71.895615 952.355774,69.666817 
	C943.845276,66.524124 940.877136,61.090202 942.069397,50.509144 
	C942.775330,44.244129 950.306152,38.966488 957.011414,39.557625 
	C965.555664,40.310879 970.931763,46.040409 971.013000,54.382313 
	C971.051636,58.345787 970.936035,62.190304 966.248352,64.260925 
	C964.194214,61.715649 962.832458,59.414261 961.389526,56.975697 
	C965.768982,55.123089 965.934814,51.006786 964.602417,47.926876 
	C963.751770,45.960548 960.082092,44.774849 957.458130,44.138470 
	C954.851807,43.506374 951.972412,44.000053 949.274658,44.000053 
	C949.274658,51.350868 949.274658,58.094589 949.274658,65.065781 
	C950.986267,64.944824 952.402405,64.844749 953.772705,64.747910 
	C953.974976,62.282700 954.150635,60.142563 954.326294,58.002430 
	C957.604614,62.184196 959.555481,67.448334 966.180054,64.343361 
z"/>
<path fill="#252A39" opacity="1.000000" stroke="none" 
	d="
M966.155640,64.384468 
	C959.555481,67.448334 957.604614,62.184196 954.326294,58.002430 
	C954.150635,60.142563 953.974976,62.282700 953.772705,64.747910 
	C952.402405,64.844749 950.986267,64.944824 949.274658,65.065781 
	C949.274658,58.094589 949.274658,51.350868 949.274658,44.000053 
	C951.972412,44.000053 954.851807,43.506374 957.458130,44.138470 
	C960.082092,44.774849 963.751770,45.960548 964.602417,47.926876 
	C965.934814,51.006786 965.768982,55.123089 961.389526,56.975697 
	C962.832458,59.414261 964.194214,61.715649 965.846191,64.269058 
	C966.136353,64.521088 966.131165,64.425575 966.155640,64.384468 
M957.077942,51.967133 
	C957.229858,51.898979 957.402710,51.856052 957.525940,51.753422 
	C957.601990,51.690098 957.602356,51.535862 957.636719,51.422459 
	C956.632324,51.126022 955.627930,50.829586 954.623535,50.533150 
	C954.549438,50.982498 954.475342,51.431847 954.401245,51.881191 
	C955.052612,51.919582 955.703918,51.957970 957.077942,51.967133 
z"/>
<path fill="#FFFFFF" opacity="1.000000" stroke="none" 
	d="
M956.716614,51.981747 
	C955.703918,51.957970 955.052612,51.919582 954.401245,51.881191 
	C954.475342,51.431847 954.549438,50.982498 954.623535,50.533150 
	C955.627930,50.829586 956.632324,51.126022 957.636719,51.422459 
	C957.602356,51.535862 957.601990,51.690098 957.525940,51.753422 
	C957.402710,51.856052 957.229858,51.898979 956.716614,51.981747 
z"/>
</svg>