<?xml version="1.0" encoding="UTF-8"?><svg id="a" xmlns="http://www.w3.org/2000/svg" viewBox="0 0 1270 220"><defs><style>.c{fill:#00a5a5;}</style></defs><path class="c" d="M250.0499,26.91528h50.41464c11.30803,0,21.23931,2.04291,29.80132,6.12498,8.55827,4.08582,15.19518,9.93502,19.907,17.55082,4.71128,7.62008,7.06745,16.84451,7.06745,27.6813,0,10.68204-2.39634,19.94716-7.18526,27.79858-4.79267,7.85516-11.42584,13.89929-19.907,18.13987-8.48116,4.24058-18.45634,6.3606-29.91913,6.3606h-33.68794v61.25144h-16.49108V26.91528ZM299.28698,116.43653c27.32734,0,40.99101-12.79885,40.99101-38.39976,0-24.65523-13.66367-36.98659-40.99101-36.98659h-27.26255c-3.02843,0-5.48346,2.45503-5.48346,5.48346v64.41942c0,3.02843,2.45503,5.48346,5.48346,5.48346h27.26255ZM388.33485,185.46227c-8.3264-5.49578-14.52903-12.79885-18.6111-21.90921-4.08582-9.10661-6.12498-19.08234-6.12498-29.91913,0-11.93349,2.31548-22.53467,6.94964-31.80354,4.63042-9.26512,11.10936-16.52749,19.43576-21.7914,8.32265-5.26016,17.98136-7.89211,28.97613-7.89211,10.52032,0,19.78919,2.20142,27.79911,6.59675,8.00992,4.39855,14.28966,10.91766,18.84672,19.55304,4.55331,8.63913,6.83184,19.31795,6.83184,32.03916v7.30307h-87.24876c-2.67966,0-4.72284,2.38398-4.34622,5.03704,1.37869,9.71191,4.85754,17.92729,10.43655,24.64647,6.51536,7.85516,16.21477,11.77927,29.09447,11.77927,9.26512,0,16.80381-2.31548,22.61606-6.94964,5.80851-4.63095,10.04908-10.79663,12.7212-18.49329v-.70685l15.54861,5.18305-.47123.4707c-4.08582,10.9953-10.56423,19.59427-19.43523,25.79636-8.87528,6.20638-19.35865,9.30582-31.45065,9.30582-12.7212,0-23.24527-2.74601-31.56792-8.24554ZM392.69324,96.64788c-5.60129,5.79848-9.34769,13.14063-11.24425,22.03087-.58131,2.72491,1.51402,5.29647,4.30025,5.29647h65.37796c2.65252,0,4.69432-2.34204,4.35484-4.97275-1.35711-10.51651-4.93129-18.39989-10.72536-23.65048-6.67708-6.04412-15.19465-9.0702-25.56075-9.0702-10.99477,0-19.82935,3.45662-26.50268,10.3661ZM542.33871,88.71078c-7.69719,0-14.13491,1.84799-19.31795,5.53647-5.18251,3.69223-9.06967,8.67983-11.66146,14.95957-2.59126,6.28349-3.88715,13.35094-3.88715,21.20236v61.41369h-16.49054v-115.59767h16.01985v11.07241c0,3.92731-.23562,7.30307-.70685,10.12994h.94193c7.53869-15.3901,20.10192-23.0873,37.69344-23.0873h10.58367v14.13491l-13.17493.23562ZM816.02499,88.71078c-7.69719,0-14.13491,1.84799-19.31795,5.53647-5.18251,3.69223-9.06967,8.67983-11.66146,14.95957-2.59126,6.28349-3.88715,13.35094-3.88715,21.20236v61.41369h-16.49054v-115.59767h16.01985v11.07241c0,3.92731-.23562,7.30307-.70685,10.12994h.94193c7.53869-15.3901,20.10192-23.0873,37.69344-23.0873h10.58367v14.13491l-13.17493.23562ZM584.2935,88.16672h-17.26219v-14.13491h17.26219v-22.14483c0-12.7212,2.59126-21.6329,7.77431-26.73883,5.18305-5.10165,12.79885-7.65596,22.85168-7.65596h19.5284v14.13491h-18.11523c-5.65375,0-9.69941,1.61184-12.13216,4.82909-2.43703,3.221-3.65154,8.12773-3.65154,14.72395v22.85168h33.89893v14.13491h-18.35085c-3.45608,0-6.79489-.11781-10.01214-.35343-3.221-.23562-4.98759-.35343-5.30032-.35343-.62974,0-.94247.31648-.94247.94247,0,.31648.11781,1.06028.35343,2.23783.23562,1.17809.35343,3.57442.35343,7.18526v93.99744h-16.25546v-103.65615ZM662.03345,185.8157c-8.24554-5.26016-14.52903-12.44542-18.84672-21.55578-4.32144-9.10661-6.47841-19.55357-6.47841-31.3323s2.23783-22.26264,6.71403-31.45065c4.4762-9.18747,10.8368-16.37274,19.08234-21.55578,8.245-5.18251,18.02206-7.77431,29.32955-7.77431,11.46279,0,21.28001,2.59179,29.4479,7.77431,8.16468,5.18305,14.48833,12.36831,18.96453,21.55578,4.4762,9.18801,6.71403,19.67138,6.71403,31.45065s-2.16072,22.22569-6.47841,31.3323c-4.32144,9.11036-10.56423,16.29562-18.72891,21.55578-8.16789,5.26391-18.13987,7.89211-29.91913,7.89211-11.62451,0-21.55578-2.62821-29.80079-7.89211ZM719.86897,166.49774c6.59622-8.39976,9.89433-19.51287,9.89433-33.33452,0-14.13544-3.29811-25.47989-9.89433-34.0419-6.59675-8.55827-15.94273-12.83955-28.03473-12.83955-12.09521,0-21.43798,4.28128-28.03419,12.83955-6.59622,8.56202-9.89433,19.90646-9.89433,34.0419,0,13.82164,3.33506,24.93475,10.01214,33.33452,6.67386,8.40405,15.97915,12.60393,27.91639,12.60393,12.092,0,21.43798-4.19988,28.03473-12.60393ZM878.18377,87.75662c8.19485,0,15.43053,2.02467,20.84813,6.05206,5.41786,4.02739,8.12639,8.49998,8.12639,15.0175,0,5.27232-2.35778,9.02906-7.07361,11.2702-4.70458,2.25171-12.17312,4.30889-22.37241,6.171l-13.66474,2.55515c-11.47163,2.17612-20.37663,6.00871-26.73749,11.50834-6.3606,5.51074-9.54117,12.99169-9.54117,22.44312,0,10.85892,3.685,18.7189,11.06572,23.61246,7.38072,4.88272,16.57087,7.31866,27.57072,7.31866,7.5344,0,14.04869-1.03929,19.54313-3.13955,5.50542-2.08969,10.01267-4.68792,13.55497-7.78439,3.53158-3.10704,6.24038-6.20351,8.12666-9.31055h.4715v18.37238h14.60801v-78.83798c0-13.0242-4.12357-22.02215-12.37072-28.61527-8.24715-6.59338-18.88501-9.88465-31.92483-9.88465h-37.09212v14.15151s28.66701-.9,36.86185-.9ZM908.33183,142.07404c0,4.80686-.50444,8.95346-1.52428,12.45037-1.03083,3.48607-2.40169,6.47417-4.12357,8.95346-3.46545,5.11003-8.33497,9.10491-14.60801,11.97381-6.28402,2.86916-12.72174,4.29805-19.32384,4.29805-6.75553,0-12.56805-1.3533-17.42632-4.07048-4.86925-2.7066-7.30387-7.16721-7.30387-13.37072,0-10.9998,7.92906-17.98278,23.78719-20.92753l13.66474-2.55488c7.38072-1.39665,13.39057-2.91224,18.02956-4.5362,1.50988-.53341,2.83998-1.11863,3.9907-1.7568,2.16637-1.20144,4.83775.41091,4.83774,2.86389l-.00002,6.67704ZM981.90194,191.82287c-10.52353,0-18.29784-2.43275-23.32238-7.30307-5.02829-4.86604-7.53869-12.87596-7.53869-24.02923v-72.32385h-17.644v-14.13491h8.45599c2.6689,0,4.86657.11781,6.59675.35343,1.7259.23562,2.66837.35343,2.82687.35343.31273,0,.47123-.15476.47123-.47123,0-.31273-.0814-.97942-.23562-2.00275-.15851-1.01958-.23562-2.78618-.23562-5.30032V26.91528h15.78369v47.11653h36.32779v14.13491h-36.32779v72.08823c0,7.22596,1.68627,11.86013,5.06524,13.89929,3.37522,2.04291,7.96923,3.06249,13.78148,3.06249h17.48107v14.60614h-21.48603ZM1036.89998,185.46227c-8.3264-5.49578-13.54201-12.79885-17.62408-21.90921-4.08582-9.10661-7.11201-19.08234-7.11201-29.91913,0-11.93349,2.31548-22.53467,6.94964-31.80354,4.63042-9.26512,11.10936-16.52749,19.43576-21.7914,8.32265-5.26016,17.98136-7.89211,28.97613-7.89211,10.52032,0,19.78919,2.20142,27.79911,6.59675,8.00992,4.39855,14.28966,10.91766,18.84672,19.55304,4.55331,8.63913,6.83184,19.31795,6.83184,32.03916v7.30307h-87.24876c-2.67966,0-4.72284,2.38398-4.34622,5.03704,1.37869,9.71191,4.85754,17.92729,10.43655,24.64647,6.51536,7.85516,16.21477,11.77927,29.09447,11.77927,9.26512,0,16.80381-2.31548,22.61606-6.94964,5.80851-4.63095,10.04908-10.79663,12.7212-18.49329v-.70685l15.54861,5.18305-.47123.4707c-4.08582,10.9953-10.56423,19.59427-19.43523,25.79636-8.87528,6.20638-19.35865,9.30582-31.45065,9.30582-12.7212,0-23.24527-2.74601-31.56792-8.24554ZM1041.25837,96.64788c-5.60129,5.79848-9.34769,13.14063-11.24425,22.03087-.58131,2.72491,1.51402,5.29647,4.30025,5.29647h65.37796c2.65252,0,4.69432-2.34204,4.35484-4.97275-1.35711-10.51651-4.93129-18.39989-10.72536-23.65048-6.67708-6.04412-15.19465-9.0702-25.56075-9.0702-10.99477,0-19.82935,3.45662-26.50268,10.3661ZM1160.4961,185.93351c-7.69666-5.18305-13.62672-12.40472-17.78644-21.67359-4.16293-9.26512-6.24279-19.8663-6.24279-31.80354,0-11.30803,2.12002-21.51562,6.3606-30.62599,4.24058-9.10661,10.24775-16.33257,18.02206-21.67359,7.77431-5.33727,16.92162-8.00992,27.44569-8.00992,9.42309,0,17.51013,2.04291,24.26485,6.12552,6.75098,4.08582,11.38514,9.03272,13.89929,14.84176h.47123c-.15851-1.2552-.27632-3.06303-.35343-5.41867-.08086-2.35564-.11781-5.57289-.11781-9.65871V17.49219h16.49054v174.33068h-15.78369v-11.30803c0-3.1396.03695-5.30032.11781-6.47841.07711-1.17755.19492-2.07986.35343-2.70907h-.47123c-2.98538,7.06745-7.89211,12.56698-14.72395,16.49054-6.83184,3.92785-14.88246,5.8899-24.14704,5.8899-10.8368,0-20.10567-2.59179-27.79911-7.77431ZM1218.68505,166.61555c6.43825-8.32265,9.65924-19.47218,9.65924-33.45232,0-13.97693-3.2617-25.24427-9.77705-33.80629-6.51911-8.55827-15.66588-12.91666-27.44515-13.07516-8.3264-.15422-15.23588,1.80783-20.73112,5.8899-5.49953,4.08582-9.6223,9.62176-12.36831,16.60835-2.74976,6.99034-4.12277,15.04043-4.12277,24.14758,0,14.60614,3.21725,25.95433,9.65924,34.04137,6.43771,8.09078,15.62572,12.13269,27.56296,12.13269,11.93349,0,21.1215-4.15972,27.56296-12.48612ZM169.84506,136.40144c-1.73786-1.7098-3.72257-3.07688-5.87068-4.07333-1.1652-.54052-2.20309-1.34072-2.97129-2.37015-.57844-.77553-1.08625-1.75576-1.3465-2.97044-.11236-.52473-.15423-1.06214-.1586-1.59871l-.05244-6.43939c-.00578-.71223.06725-1.42615.26236-2.11117.247-.86604.61806-1.58644,1.04099-2.18363.68417-.96571,1.6231-1.72855,2.68778-2.24552,2.73501-1.32803,5.19059-3.2603,7.19025-5.74112,2.68665-3.3329,4.28198-7.44598,4.54899-11.71866.38487-6.15461-1.85995-11.99455-6.20381-16.26807-1.94425-1.91281-4.19936-3.39634-6.64592-4.41238-5.76979-2.39653-4.97758-13.23226-.84781-17.1931.20526-.19686,1.00889-.75419,1.31339-.91489s.62686-.32542.78039-.40123c4.28596-2.11625,7.93294-5.61195,10.19016-10.23189,2.62631-5.37203,3.00329-11.45094,1.06186-17.10888-1.94467-5.6578-5.97514-10.2192-11.35042-12.84551-11.09567-5.42236-24.53202-.80753-29.95424,10.28842-2.21451,4.53236-2.83031,9.56406-1.80369,14.42321,1.21933,5.77256-8.23463,12.068-13.17709,8.79883-6.73714-4.45637-15.76097-4.78795-22.95488-.11335-4.68419,3.04375-7.90248,7.72907-9.06246,13.19345-.4942,2.32862-.45913,4.59214-.29669,6.97333.01495.21913.12998,1.96199.00408,2.71559-.07697.46073-.21701.90946-.38718,1.34511-.40449,1.03556-.97464,1.79846-1.76918,2.55984-1.54883,1.4842-3.3294,2.72656-5.25872,3.66463-2.64477,1.28594-5.90113.93633-8.44258-.51416-7.09645-4.05019-16.31188-3.79229-23.32913,1.70426-3.5837,2.80677-6.1563,6.74602-7.29937,11.15206-1.4941,5.7593-.51881,11.72416,2.69976,16.67691,4.00213,6.15898,10.71925,9.51204,17.56861,9.51204,4.55026,0,9.1603-1.48099,13.06769-4.60242,3.25663-2.60136,5.66626-6.14869,6.8846-10.13475.99616-3.26002,1.18338-6.60575.6158-9.81529-.60114-3.40029,2.65042-6.13346,5.09162-7.73725,1.49326-.98108,3.03755-1.94735,4.76934-2.39299,3.18332-.81853,6.7456,1.12727,9.29846,2.85258,2.70991,1.83175,3.18981,4.19443,3.31331,7.38536.16651,4.30322.31302,8.95302-3.39425,11.44147-.39829.26735-2.26499,1.30142-2.69359,1.56261-6.07873,3.70441-10.12495,10.41569-10.06279,18.03683.0923,11.31296,9.19745,20.48285,20.43119,20.7368.15912.0036,1.08841-.00218,1.30587-.01059,5.69282-.22013,10.97643-2.70353,14.81447-7.01142,3.19178-3.58244,5.05807-8.19459,5.25558-12.9886.24643-5.9836-1.99331-11.63816-6.22792-15.80439-1.60299-1.57704-3.41497-2.86363-5.37191-3.83607-.22404-.11133-.95687-.49609-1.46774-.7779-.25456-.14042-1.10013-.79675-1.40297-1.11727-.71047-.75193-1.40525-1.77163-1.79954-3.1067-.1037-.35113-.26904-1.45635-.29215-1.87546-.05581-1.012-.13803-2.78419-.14597-3.76202-.0069-.84945.04048-2.28692.07884-3.19965.01973-.46944.23313-1.73902.38888-2.15791,1.20976-3.25356,4.73588-5.32782,7.47098-7.19453,4.01285-2.73853,6.48267-6.81665,7.49716-11.59544.59945-2.82368.60706-5.67993.05921-8.42847-1.02323-5.13349,6.96778-9.31199,11.1897-8.81673,3.27665.38431,6.77732,1.91662,8.89906,4.64345,2.22273,2.85683,2.01164,6.14696,1.98761,9.53158-.00207.29211-.06031,1.25318-.0978,1.43292-.4318,2.07032-1.50904,3.46197-2.57548,4.37061-.78825.67161-3.01464,1.86476-3.44745,2.12795-1.46095.8884-2.8229,1.9616-4.05329,3.21232-3.91783,3.98197-6.05029,9.25123-6.00461,14.83713.04582,5.58548,2.26371,10.81977,6.24554,14.73717,1.83288,1.80313,3.93911,3.22604,6.2227,4.23418.60353.26645,1.18367.58577,1.69711,1.00011.7221.58267,1.4793,1.39288,2.04392,2.49139.53149,1.0338.77708,2.19068.78653,3.35306l.04737,5.8219c.011,1.34974-.29394,2.69525-.96487,3.86637-.66175,1.15519-1.5323,1.96622-2.32186,2.51944-.56283.39436-1.82833,1.09063-1.98796,1.17812-6.53903,3.584-10.96051,10.55423-10.89541,18.51845.09144,11.22472,9.05573,20.33959,20.16818,20.72936.24614.00863,1.46146.00261,1.73349-.01001,5.27702-.24482,10.19282-2.43648,13.91832-6.22325,3.91783-3.98197,6.05029-9.25123,6.00461-14.83685-.0454-5.58618-2.26357-10.81977-6.24554-14.73732ZM149.38101,45.16331c-.10052-.04088-.20118-.08811-.30156-.1383-.1352-.06598-.27026-.13506-.40207-.21062-2.29022-1.23766-4.00862-3.26706-4.85999-5.74577-.18539-.53713-.32355-1.08371-.41462-1.63353-.36768-2.12978-.06288-4.31638.90777-6.29883,1.80017-3.68183,5.50089-5.82415,9.34597-5.82415,1.53005,0,3.08196.33906,4.54589,1.05241,2.49125,1.21877,4.36036,3.33304,5.26207,5.95625.89846,2.62631.72562,5.44111-.49315,7.93547-1.01167,2.07339-2.62955,3.65983-4.53334,4.64627-2.73303,1.41995-6.06311,1.61478-9.05696.26081ZM165.84265,202.54964c.47595-.79468.96962-1.89918.72116-3.11713-.18342-.90022-.73695-1.67911-1.67055-2.38186-.01709-.01504-.03495-.02874-.05194-.04343-.01667-.01215-.02814-.02516-.04481-.0373-.04137-.02989-.08371-.05443-.12559-.08343-.17033-.13278-.339-.26742-.5323-.37745l-48.27147-27.47288c-8.08717-4.60452-16.17663-9.204-24.26522-13.80551-8.08619-4.60573-16.17108-9.21323-24.25914-13.81619l-48.26728-27.48023c-.1933-.11003-.39519-.18633-.59632-.26499-.04631-.0212-.08904-.04508-.13586-.06539-.01896-.00814-.036-.01135-.05495-.01949-.02131-.00712-.0422-.01547-.06386-.02249-1.0809-.44397-2.03323-.52227-2.90094-.22038-1.17411.40817-1.87177,1.39656-2.31209,2.21152-.00482.00846-.01199.01485-.01687.02342l-.05844.1037c-1.88655,3.37738-2.34434,7.28485-1.28971,11.0015,1.04984,3.71937,3.48805,6.80697,6.86589,8.69349,3.37606,1.8855,7.28312,2.34453,11.00079,1.29225,1.08385-.30711,2.03206-.80171,2.94835-1.28012.85145-.44427,1.65583-.86387,2.5112-1.10525,1.20791-.34116,2.72149-.17868,4.14248.40286.1932.08639.38624.17357.57307.27786,1.39192.77616,2.41973,1.9557,2.99843,3.40035.30638.76482.42527,1.58823.47172,2.41082.01222.21643.02219.43566.03046.65827.05233,1.42681.10721,2.90195.65973,4.37258.84453,2.24897,2.14516,4.17893,3.81159,5.72268.87468.86322,1.92898,1.64971,3.24051,2.33082,3.8064,1.9764,8.56965,2.05122,12.47444.27706.44781-.18324.88297-.37222,1.30852-.55987.44491-.19624.86708-.38032,1.27655-.54244,1.14404-.45297,2.37881-.68648,3.59815-.52148.41166.05571.81693.14699,1.21141.27448.24508.09469.49096.1916.75225.32516,2.76774,1.41317,2.97944,3.38359,3.27207,6.11054.12987,1.20926.26435,2.45963.63879,3.7826.99998,3.53192,3.26006,6.48023,6.3742,8.38455.12902.08052.25258.16958.38423.24599.01842.01063.03785.01845.05627.02908.01855.01041.03519.02313.05374.03354.13291.07419.27258.13496.40768.20479,3.22733,1.70545,6.91632,2.14355,10.46378,1.20019,1.32873-.35347,2.47252-.8762,3.57861-1.38192,2.49417-1.1406,4.29653-1.96456,6.92469-.3062.24823.15649.4571.31843.66364.48082.31102.27411.59642.57598.85449.9015.76445.96428,1.19406,2.14532,1.38866,3.36037.06963.43478.12687.89168.18527,1.37433.05581.46137.11552.93145.18671,1.40983.46751,4.26376,2.964,8.32172,6.60691,10.58586,1.25525.77999,2.46977,1.28499,3.65858,1.59637,2.17818.64473,4.50169.77776,6.86664.35573,1.54661-.27574,2.84304-.98167,4.09659-1.66513.19564-.10654.38923-.2099.58157-.30988.73102-.38003,1.49973-.69818,2.31378-.82522,1.53764-.23995,3.07661.0416,4.45463.84219.18506.10741.35858.22888.53149.3509,1.2253.92481,2.13798,2.14344,2.46132,3.35624.22915.85873.27903,1.76461.33172,2.72354.05644,1.03213.11526,2.09996.40455,3.1887.99322,3.73388,3.38264,6.85902,6.72752,8.7993,3.34666,1.9413,7.24635,2.46145,10.98045,1.46525,3.7342-.99068,6.86033-3.37925,8.80121-6.7257l.05933-.10319c.00488-.00857.00671-.018.01153-.02646Z"/></svg>