<?xml version="1.0" encoding="UTF-8"?>
<svg id="Layer_1" xmlns="http://www.w3.org/2000/svg" version="1.1" viewBox="0 0 820 730">
  <!-- Generator: Adobe Illustrator 30.3.0, SVG Export Plug-In . SVG Version: 2.1.3 Build 182)  -->
  <defs>
    <style>
      .st0 {
        fill: #009b9a;
      }
    </style>
  </defs>
  <path id="Logo" class="st0" d="M528.3,303.6c-3.7-3.6-7.9-6.5-12.5-8.6-2.5-1.1-4.7-2.8-6.3-5-1.2-1.6-2.3-3.7-2.9-6.3-.2-1.1-.3-2.3-.3-3.4v-13.7c-.1-1.5,0-3,.4-4.5.5-1.8,1.3-3.4,2.2-4.6,1.5-2,3.4-3.7,5.7-4.8,5.8-2.8,11-6.9,15.3-12.2,5.7-7.1,9.1-15.8,9.6-24.9.8-13.1-3.9-25.4-13.2-34.5-4.1-4.1-8.9-7.2-14.1-9.4-12.2-5.1-10.6-28.1-1.8-36.5.4-.4,2.1-1.6,2.8-1.9s1.3-.7,1.7-.9c9.1-4.5,16.8-11.9,21.6-21.7,5.6-11.4,6.4-24.3,2.3-36.3-4.1-12-12.7-21.7-24.1-27.2-23.5-11.5-52-1.7-63.5,21.8-4.7,9.6-6,20.3-3.8,30.6,2.6,12.2-17.5,25.6-27.9,18.7-14.3-9.5-33.4-10.2-48.7-.2-9.9,6.5-16.8,16.4-19.2,28-1,4.9-1,9.7-.6,14.8,0,.5.3,4.2,0,5.8-.2,1-.5,1.9-.8,2.9-.9,2.2-2.1,3.8-3.8,5.4-3.3,3.1-7.1,5.8-11.2,7.8-5.6,2.7-12.5,2-17.9-1.1-15.1-8.6-34.6-8-49.5,3.6-7.6,6-13.1,14.3-15.5,23.7-3.2,12.2-1.1,24.9,5.7,35.4,8.5,13.1,22.7,20.2,37.3,20.2s19.4-3.1,27.7-9.8c6.9-5.5,12-13,14.6-21.5,2.1-6.9,2.5-14,1.3-20.8-1.3-7.2,5.6-13,10.8-16.4,3.2-2.1,6.4-4.1,10.1-5.1,6.8-1.7,14.3,2.4,19.7,6.1,5.7,3.9,6.8,8.9,7,15.7.4,9.1.7,19-7.2,24.3-.8.6-4.8,2.8-5.7,3.3-12.9,7.9-21.5,22.1-21.3,38.3.2,24,19.5,43.4,43.3,44,.3,0,2.3,0,2.8,0,12.1-.5,23.3-5.7,31.4-14.9,6.8-7.6,10.7-17.4,11.1-27.5.5-12.7-4.2-24.7-13.2-33.5-3.4-3.3-7.2-6.1-11.4-8.1-.5-.2-2-1.1-3.1-1.6-.5-.3-2.3-1.7-3-2.4-1.5-1.6-3-3.8-3.8-6.6-.2-.7-.6-3.1-.6-4-.1-2.1-.3-5.9-.3-8,0-1.8,0-4.9.2-6.8,0-1,.5-3.7.8-4.6,2.6-6.9,10-11.3,15.8-15.3,8.5-5.8,13.7-14.5,15.9-24.6,1.3-6,1.3-12,.1-17.9-2.2-10.9,14.8-19.8,23.7-18.7,6.9.8,14.4,4.1,18.9,9.8,4.7,6.1,4.3,13,4.2,20.2,0,.6-.1,2.7-.2,3-.9,4.4-3.2,7.3-5.5,9.3-1.7,1.4-6.4,4-7.3,4.5-3.1,1.9-6,4.2-8.6,6.8-8.3,8.4-12.8,19.6-12.7,31.5,0,11.8,4.8,22.9,13.2,31.3,3.9,3.8,8.4,6.8,13.2,9,1.3.6,2.5,1.2,3.6,2.1,1.5,1.2,3.1,3,4.3,5.3,1.1,2.2,1.6,4.6,1.7,7.1v12.3c.1,2.9-.5,5.7-1.9,8.2-1.4,2.5-3.3,4.2-4.9,5.3-1.2.8-3.9,2.3-4.2,2.5-13.9,7.6-23.2,22.4-23.1,39.3.2,23.8,19.2,43.1,42.8,44,.5,0,3.1,0,3.7,0,11.2-.5,21.6-5.2,29.5-13.2,8.3-8.4,12.8-19.6,12.7-31.5,0-11.8-4.8-22.9-13.2-31.3h0ZM484.9,110.1c-.2,0-.4-.2-.6-.3-.3-.1-.6-.3-.9-.4-4.9-2.6-8.5-6.9-10.3-12.2-.4-1.1-.7-2.3-.9-3.5-.8-4.5-.1-9.2,1.9-13.4,3.8-7.8,11.7-12.4,19.8-12.4s6.5.7,9.6,2.2c5.3,2.6,9.2,7.1,11.2,12.6,1.9,5.6,1.5,11.5-1,16.8-2.1,4.4-5.6,7.8-9.6,9.9-5.8,3-12.9,3.4-19.2.6h0ZM519.7,443.9v.2c-4.2,7.1-10.9,12.2-18.8,14.3-7.9,2.1-16.2,1-23.3-3.1-7.1-4.1-12.2-10.7-14.3-18.7-.6-2.3-.7-4.6-.9-6.8-.1-2-.2-4-.7-5.8-.7-2.6-2.6-5.2-5.2-7.1-.4-.3-.7-.5-1.1-.7-2.9-1.7-6.2-2.3-9.4-1.8-1.7.3-3.4.9-4.9,1.8-.4.2-.8.4-1.2.7-2.7,1.4-5.4,2.9-8.7,3.5-5,.9-9.9.6-14.6-.8-2.5-.7-5.1-1.7-7.8-3.4-7.7-4.8-13-13.4-14-22.5-.2-1-.3-2-.4-3-.1-1-.2-2-.4-2.9-.4-2.6-1.3-5.1-2.9-7.1-.5-.7-1.2-1.3-1.8-1.9-.4-.3-.9-.7-1.4-1-5.6-3.5-9.4-1.8-14.7.6-2.3,1.1-4.8,2.2-7.6,2.9-7.5,2-15.3,1.1-22.2-2.5-.3-.1-.6-.3-.9-.4,0,0,0,0-.1,0,0,0,0,0-.1,0-.3-.2-.5-.4-.8-.5-6.6-4-11.4-10.3-13.5-17.8-.8-2.8-1.1-5.5-1.4-8-.6-5.8-1.1-10-6.9-13-.6-.3-1.1-.5-1.6-.7-.8-.3-1.7-.5-2.6-.6-2.6-.3-5.2.1-7.6,1.1-.9.3-1.8.7-2.7,1.2-.9.4-1.8.8-2.8,1.2-8.3,3.8-18.4,3.6-26.5-.6-2.8-1.4-5-3.1-6.9-4.9-3.5-3.3-6.3-7.4-8.1-12.1-1.2-3.1-1.3-6.2-1.4-9.3,0-.5,0-.9,0-1.4,0-1.7-.4-3.5-1-5.1-1.2-3.1-3.4-5.6-6.4-7.2-.4-.2-.8-.4-1.2-.6-3-1.2-6.2-1.6-8.8-.9-1.8.5-3.5,1.4-5.3,2.3-1.9,1-4,2.1-6.3,2.7-7.9,2.2-16.2,1.3-23.3-2.7-7.2-4-12.3-10.6-14.6-18.4-2.2-7.9-1.3-16.2,2.7-23.3v-.2c.1,0,.1,0,.2,0,.9-1.7,2.4-3.8,4.9-4.7,1.8-.6,3.9-.5,6.2.5,0,0,0,0,.1,0,0,0,0,0,.1,0,0,0,.2,0,.3.1.4.2.9.3,1.3.6l102.4,58.3c17.2,9.8,34.3,19.5,51.5,29.3,17.2,9.8,34.3,19.5,51.5,29.3l102.4,58.3c.4.2.8.5,1.1.8,0,0,.2.1.3.2,0,0,0,0,0,0,0,0,0,0,.1,0,2,1.5,3.2,3.1,3.5,5.1.5,2.6-.5,4.9-1.5,6.6,0,0,0,0,0,0h0Z"/>
  <path id="Perforated_Text" class="st0" d="M42.1,494.9h37.4c8.4,0,15.7,1.5,22.1,4.5,6.3,3,11.3,7.4,14.8,13,3.5,5.6,5.2,12.5,5.2,20.5s-1.8,14.8-5.3,20.6c-3.6,5.8-8.5,10.3-14.8,13.4-6.3,3.1-13.7,4.7-22.2,4.7h-25v45.4h-12.2s0-122.2,0-122.2ZM78.6,561.2c20.3,0,30.4-9.5,30.4-28.5s-10.1-27.4-30.4-27.4h-20.2c-2.2,0-4.1,1.8-4.1,4.1v47.7c0,2.2,1.8,4.1,4.1,4.1,0,0,20.2,0,20.2,0ZM144.6,612.4c-6.2-4.1-10.8-9.5-13.8-16.2-3-6.7-4.5-14.1-4.5-22.2s1.7-16.7,5.2-23.6c3.4-6.9,8.2-12.2,14.4-16.1,6.2-3.9,13.3-5.8,21.5-5.8s14.7,1.6,20.6,4.9c5.9,3.3,10.6,8.1,14,14.5,3.4,6.4,5.1,14.3,5.1,23.7v5.4h-64.7c-2,0-3.5,1.8-3.2,3.7,1,7.2,3.6,13.3,7.7,18.3,4.8,5.8,12,8.7,21.6,8.7s12.5-1.7,16.8-5.2c4.3-3.4,7.4-8,9.4-13.7v-.5l11.5,3.8-.3.3c-3,8.1-7.8,14.5-14.4,19.1-6.6,4.6-14.3,6.9-23.3,6.9s-17.2-2-23.4-6.1h0ZM147.8,546.6c-4.2,4.3-6.9,9.7-8.3,16.3-.4,2,1.1,3.9,3.2,3.9h48.5c2,0,3.5-1.7,3.2-3.7-1-7.8-3.7-13.6-7.9-17.5-4.9-4.5-11.3-6.7-18.9-6.7s-14.7,2.6-19.6,7.7h0ZM258.7,540.7c-5.7,0-10.5,1.4-14.3,4.1-3.8,2.7-6.7,6.4-8.6,11.1-1.9,4.7-2.9,9.9-2.9,15.7v45.5h-12.2v-85.7h11.9v8.2c0,2.9-.2,5.4-.5,7.5h.7c5.6-11.4,14.9-17.1,27.9-17.1h7.8v10.5s-9.8.2-9.8.2ZM461.5,540.7c-5.7,0-10.5,1.4-14.3,4.1-3.8,2.7-6.7,6.4-8.6,11.1-1.9,4.7-2.9,9.9-2.9,15.7v45.5h-12.2v-85.7h11.9v8.2c0,2.9-.2,5.4-.5,7.5h.7c5.6-11.4,14.9-17.1,27.9-17.1h7.8v10.5l-9.8.2h0ZM289.8,540.3h-12.8v-10.5h12.8v-16.4c0-9.4,1.9-16,5.8-19.8,3.8-3.8,9.5-5.7,16.9-5.7h14.5v10.5h-13.4c-4.2,0-7.2,1.2-9,3.6-1.8,2.4-2.7,6-2.7,10.9v16.9h25.1v10.5h-13.6c-2.6,0-5,0-7.4-.3-2.4-.2-3.7-.3-3.9-.3-.5,0-.7.2-.7.7s0,.8.3,1.7c.2.9.3,2.6.3,5.3v69.7h-12v-76.8h0ZM347.4,612.7c-6.1-3.9-10.8-9.2-14-16-3.2-6.7-4.8-14.5-4.8-23.2s1.7-16.5,5-23.3c3.3-6.8,8-12.1,14.1-16,6.1-3.8,13.4-5.8,21.7-5.8s15.8,1.9,21.8,5.8c6.1,3.8,10.7,9.2,14.1,16,3.3,6.8,5,14.6,5,23.3s-1.6,16.5-4.8,23.2c-3.2,6.8-7.8,12.1-13.9,16-6.1,3.9-13.4,5.8-22.2,5.8s-16-1.9-22.1-5.8h0ZM390.3,598.3c4.9-6.2,7.3-14.5,7.3-24.7s-2.4-18.9-7.3-25.2c-4.9-6.3-11.8-9.5-20.8-9.5s-15.9,3.2-20.8,9.5c-4.9,6.3-7.3,14.8-7.3,25.2s2.5,18.5,7.4,24.7c4.9,6.2,11.8,9.3,20.7,9.3s15.9-3.1,20.8-9.3h0ZM507.6,540c6.1,0,11.4,1.5,15.5,4.5,4,3,6,6.3,6,11.1s-1.7,6.7-5.2,8.4c-3.5,1.7-9,3.2-16.6,4.6l-10.1,1.9c-8.5,1.6-15.1,4.5-19.8,8.5-4.7,4.1-7.1,9.6-7.1,16.6s2.7,13.9,8.2,17.5c5.5,3.6,12.3,5.4,20.4,5.4s10.4-.8,14.5-2.3c4.1-1.5,7.4-3.5,10-5.8,2.6-2.3,4.6-4.6,6-6.9h.3v13.6h10.8v-58.4c0-9.7-3.1-16.3-9.2-21.2-6.1-4.9-14-7.3-23.7-7.3h-27.5v10.5s21.2-.7,27.3-.7h0ZM529.9,580.2c0,3.6-.4,6.6-1.1,9.2-.8,2.6-1.8,4.8-3.1,6.6-2.6,3.8-6.2,6.7-10.8,8.9-4.7,2.1-9.4,3.2-14.3,3.2s-9.3-1-12.9-3c-3.6-2-5.4-5.3-5.4-9.9,0-8.2,5.9-13.3,17.6-15.5l10.1-1.9c5.5-1,9.9-2.2,13.4-3.4,1.1-.4,2.1-.8,3-1.3,1.6-.9,3.6.3,3.6,2.1v4.9h0ZM584.5,617.1c-7.8,0-13.6-1.8-17.3-5.4-3.7-3.6-5.6-9.5-5.6-17.8v-53.6h-13.1v-10.5h6.3c2,0,3.6,0,4.9.3,1.3.2,2,.3,2.1.3.2,0,.3-.1.3-.3s0-.7-.2-1.5c-.1-.8-.2-2.1-.2-3.9v-29.7h11.7v34.9h26.9v10.5h-26.9v53.4c0,5.4,1.2,8.8,3.8,10.3,2.5,1.5,5.9,2.3,10.2,2.3h13v10.8h-15.9ZM625.2,612.4c-6.2-4.1-10-9.5-13.1-16.2-3-6.7-5.3-14.1-5.3-22.2s1.7-16.7,5.2-23.6c3.4-6.9,8.2-12.2,14.4-16.1,6.2-3.9,13.3-5.8,21.5-5.8s14.7,1.6,20.6,4.9c5.9,3.3,10.6,8.1,14,14.5,3.4,6.4,5.1,14.3,5.1,23.7v5.4h-64.7c-2,0-3.5,1.8-3.2,3.7,1,7.2,3.6,13.3,7.7,18.3,4.8,5.8,12,8.7,21.6,8.7s12.5-1.7,16.8-5.2c4.3-3.4,7.4-8,9.4-13.7v-.5l11.5,3.8-.3.3c-3,8.1-7.8,14.5-14.4,19.1-6.6,4.6-14.3,6.9-23.3,6.9s-17.2-2-23.4-6.1h0ZM628.4,546.6c-4.2,4.3-6.9,9.7-8.3,16.3-.4,2,1.1,3.9,3.2,3.9h48.5c2,0,3.5-1.7,3.2-3.7-1-7.8-3.7-13.6-7.9-17.5-4.9-4.5-11.3-6.7-18.9-6.7s-14.7,2.6-19.6,7.7ZM716.8,612.8c-5.7-3.8-10.1-9.2-13.2-16.1-3.1-6.9-4.6-14.7-4.6-23.6s1.6-15.9,4.7-22.7c3.1-6.7,7.6-12.1,13.4-16.1,5.8-4,12.5-5.9,20.3-5.9s13,1.5,18,4.5c5,3,8.4,6.7,10.3,11h.3c-.1-.9-.2-2.3-.3-4,0-1.7,0-4.1,0-7.2v-44.9h12.2v129.2h-11.7v-8.4c0-2.3,0-3.9,0-4.8,0-.9.1-1.5.3-2h-.3c-2.2,5.2-5.8,9.3-10.9,12.2-5.1,2.9-11,4.4-17.9,4.4s-14.9-1.9-20.6-5.8h0ZM759.9,598.4c4.8-6.2,7.2-14.4,7.2-24.8s-2.4-18.7-7.2-25.1c-4.8-6.3-11.6-9.6-20.3-9.7-6.2-.1-11.3,1.3-15.4,4.4-4.1,3-7.1,7.1-9.2,12.3-2,5.2-3.1,11.1-3.1,17.9,0,10.8,2.4,19.2,7.2,25.2,4.8,6,11.6,9,20.4,9s15.7-3.1,20.4-9.3h0Z"/>
</svg>