<?xml version="1.0" encoding="UTF-8"?>
<svg id="Layer_1" data-name="Layer 1" xmlns="http://www.w3.org/2000/svg" xmlns:xlink="http://www.w3.org/1999/xlink" viewBox="0 0 2000 1500">
  <defs>
    <style>
      .cls-1 {
        fill: none;
      }

      .cls-2 {
        fill: #052e4d;
      }

      .cls-3 {
        isolation: isolate;
      }

      .cls-4 {
        fill: #bfbfc7;
      }

      .cls-5 {
        clip-path: url(#clippath);
      }

      .cls-6 {
        fill: #052e4d;
      }
    </style>
    <clipPath id="clippath">
      <polygon class="cls-1" points="799.64 677.41 806.78 529.16 1093.15 489.4 1086.01 637.65 799.64 677.41"/>
    </clipPath>
  </defs>
  <path class="cls-4" d="M926,414l6-49,45-25s18-3,36,1,27,22,27,22l36-15,43,1,16,31s25-4,39-4,46,3,48,7,19,20,19,20l15,29,35,10s21,15,29,19,37,28,37,28c0,0,41,12,45,18s19,92,19,92c0,0-55,51-59,51s-33,5-33,5l-10,183s0,34-30,37-629,114-637,113-60-19-60-19l-5-33,17-14,13-94,1-55-48-7,17-46,339-306Z"/>
  <g>
    <g>
      <path class="cls-6" d="M320.71,1062.93c6.09,6.09,9.86,14.51,9.86,23.83,0,13.62-8.06,25.44-19.71,30.82-3.05,1.43-6.27,2.33-9.68,2.69h-1.08v.18h-60.02v57.7h-22.4v-125.43h79.02c9.32,0,17.74,3.76,23.83,9.86l.18.36ZM301.54,1097.15c4.12-1.79,6.81-5.91,6.81-10.39,0-4.12-2.15-6.99-3.4-8.24-1.44-1.43-4.12-3.23-8.07-3.23h-56.8v23.12h56.8c1.61,0,3.23-.36,4.66-1.08v-.18Z"/>
      <path class="cls-6" d="M370.7,1086.58v11.65h80.63v22.4h-80.63v23.65c0,6.27,5.2,11.47,11.47,11.47h91.56v22.4h-91.56c-18.63,0-33.69-15.23-33.69-33.87v-57.7c0-18.64,15.05-33.87,33.69-33.87h91.56v22.4h-91.56c-6.27,0-11.47,5.2-11.47,11.47Z"/>
      <path class="cls-6" d="M592.89,1156.1l11.47,22.4h-25.09l-11.47-22.4-12-23.47-.54-1.08c-3.94-6.45-10.93-10.75-18.99-10.75h-22.4v57.7h-22.4v-125.43h79.2c9.32,0,17.74,3.76,23.83,9.86,6.09,6.09,9.86,14.51,9.86,23.83,0,13.62-8.06,25.44-19.71,30.82-3.05,1.43-6.27,2.33-9.68,2.69l17.92,35.84ZM570.67,1098.41c1.61,0,3.23-.36,4.66-1.08,4.12-1.79,6.81-5.91,6.81-10.39,0-4.12-2.15-6.99-3.41-8.24-1.43-1.43-4.12-3.23-8.06-3.23h-56.8v23.11l56.8-.18Z"/>
      <path class="cls-6" d="M748.05,1052.53v22.4h-91.56c-6.27,0-11.47,5.2-11.47,11.47v11.65h80.63v22.4h-80.81v57.52h-22.22v-91.38c0-18.64,15.05-33.87,33.68-33.87l91.74-.18Z"/>
      <path class="cls-6" d="M871.15,1115.43c0,34.58-28.13,62.71-62.71,62.71s-62.71-28.13-62.71-62.71,28.13-62.72,62.71-62.72,62.71,28.13,62.71,62.72ZM848.75,1115.43c0-22.22-18.1-40.32-40.32-40.32s-40.32,18.1-40.32,40.32,18.1,40.31,40.32,40.31,40.32-18.1,40.32-40.31Z"/>
      <path class="cls-6" d="M986.01,1156.1l11.47,22.4h-25.09l-11.47-22.4-12-23.47-.54-1.08c-3.94-6.45-10.93-10.75-18.99-10.75h-22.4v57.7h-22.4v-125.43h79.2c9.32,0,17.74,3.76,23.83,9.86,6.09,6.09,9.86,14.51,9.86,23.83,0,13.62-8.06,25.44-19.71,30.82-3.05,1.43-6.27,2.33-9.68,2.69l17.92,35.84ZM963.79,1098.41c1.61,0,3.23-.36,4.66-1.08,4.12-1.79,6.81-5.91,6.81-10.39,0-4.12-2.15-6.99-3.41-8.24-1.43-1.43-4.12-3.23-8.06-3.23h-56.8v23.11l56.8-.18Z"/>
      <path class="cls-6" d="M1136.34,1178.14h-25.09l-11.47-22.4-27.41-53.75-27.42,53.75-11.47,22.4h-25.08l11.47-22.4,52.5-103.03,52.5,103.03,11.47,22.4Z"/>
      <path class="cls-6" d="M1236.86,1052.89v22.4h-51.43v103.03h-22.4v-103.03h-51.43v-22.4h125.25Z"/>
      <path class="cls-6" d="M1277.35,1086.58v11.65h80.63v22.4h-80.63v23.65c0,6.27,5.19,11.47,11.47,11.47h91.56v22.4h-91.56c-18.64,0-33.69-15.23-33.69-33.87v-57.7c0-18.64,15.05-33.87,33.69-33.87h91.56v22.4h-91.56c-6.27,0-11.47,5.2-11.47,11.47Z"/>
      <path class="cls-6" d="M1460.83,1052.89c34.58,0,62.71,27.95,62.71,62.54,0,15.41-5.55,29.56-14.87,40.49-1.07,1.26-2.33,2.51-3.58,3.76-11.29,11.47-26.88,18.45-44.08,18.45h-62.71v-125.43h62.71l-.18.18ZM1501.15,1115.61c0-22.22-18.1-40.32-40.32-40.32h-40.32v80.63h40.32c22.22,0,40.32-18.1,40.32-40.32Z"/>
      <path class="cls-6" d="M1749.85,1178.14h-25.08l-11.47-22.4-27.42-53.75-27.41,53.75-11.47,22.4h-25.08l11.47-22.4,52.5-103.03,52.5,103.03,11.47,22.4Z"/>
      <path class="cls-6" d="M1760.6,1178.14v-125.43h22.4v125.43h-22.4Z"/>
    </g>
    <g>
      <g class="cls-3">
        <g class="cls-5">
          <path class="cls-2" d="M888.34,646.48l-51.07-47.16,167.19-79.13,51.06,47.16-167.18,79.13M981.44,504.91l-9.5,4.5,7.97,7.36-11.86,5.61-7.97-7.36-9.5,4.5,7.97,7.36-11.85,5.61-7.97-7.36-9.51,4.5,7.98,7.36-11.87,5.62-7.97-7.36-9.5,4.5,7.97,7.36-11.85,5.61-7.97-7.36-9.5,4.5,7.97,7.36-11.86,5.61-7.97-7.36-9.5,4.5,7.97,7.36-11.85,5.61-7.97-7.36-9.5,4.5,7.97,7.36-11.86,5.61-7.98-7.36-9.5,4.5,7.98,7.36-7.38,3.49-7.53,16.8,3.96,3.65-17,8.05,2.73,2.53,17-8.05,3.41,3.15-17,8.04,2.73,2.53,17-8.05,3.41,3.15-17,8.04,2.74,2.53,16.99-8.04,3.41,3.14-17,8.05,2.73,2.52,17-8.04,3.41,3.15-17,8.05,2.73,2.53,17-8.05,3.41,3.15-17,8.04,2.73,2.53,17-8.05,3.41,3.15-17,8.04,2.73,2.52,17-8.04,3.4,3.15-16.99,8.05,2.73,2.53,17-8.05,2.78,2.57,26.48.7,7.37-3.49,9.14,8.44,9.51-4.5-9.15-8.44,11.87-5.61,9.14,8.43,9.5-4.5-9.14-8.44,11.85-5.61,9.14,8.44,9.5-4.5-9.14-8.43,11.86-5.61,9.14,8.44,3.73-2.56-3.36-10.38,11.85-5.61,9.14,8.44,9.5-4.5-9.14-8.44,11.87-5.62,9.14,8.44,6.6-3.12-6.23-9.81,11.85-5.61,9.14,8.44,9.5-4.5-9.14-8.44,14.05-5.91,9.14,8.44,2.92-3.59-4.74-9.05,8.68-4.11,7.54-16.81-2.78-2.57,16.1-7.62-2.74-2.52-16.1,7.62-3.4-3.15,16.09-7.62-2.72-2.52-16.1,7.62-3.41-3.15,16.1-7.62-2.74-2.53-16.09,7.62-3.41-3.15,16.1-7.62-2.74-2.52-16.09,7.62-3.41-3.15,16.1-7.62-2.74-2.53-16.09,7.62-3.41-3.15,16.1-7.62-2.73-2.53-16.1,7.62-3.41-3.15,16.1-7.62-2.73-2.52-16.1,7.62-3.41-3.15,16.1-7.62-2.73-2.53-16.1,7.62-3.95-3.65-26.5-.69-8.68,4.11-7.97-7.36"/>
        </g>
      </g>
      <g>
        <g>
          <path class="cls-6" d="M1287.25,749.01c-8.45,0-15.32-6.87-15.32-15.32s6.87-15.32,15.32-15.32,15.32,6.87,15.32,15.32-6.87,15.32-15.32,15.32ZM1287.25,726.21c-4.12,0-7.48,3.35-7.48,7.47s3.35,7.47,7.48,7.47,7.47-3.35,7.47-7.47-3.35-7.47-7.47-7.47Z"/>
          <path class="cls-6" d="M1158.56,732.51c-8.45,0-15.32-6.88-15.32-15.33s6.87-15.32,15.32-15.32,15.32,6.87,15.32,15.32-6.87,15.33-15.32,15.33ZM1158.56,709.71c-4.12,0-7.47,3.35-7.47,7.47s3.35,7.48,7.47,7.48,7.47-3.35,7.47-7.48-3.35-7.47-7.47-7.47Z"/>
          <path class="cls-6" d="M1226.08,827.05c-11.23,0-20.37-9.14-20.37-20.37s9.14-20.37,20.37-20.37,20.37,9.14,20.37,20.37-9.14,20.37-20.37,20.37ZM1226.08,794.15c-6.91,0-12.52,5.62-12.52,12.52s5.62,12.52,12.52,12.52,12.52-5.62,12.52-12.52-5.62-12.52-12.52-12.52Z"/>
          <path class="cls-6" d="M1074.35,791.8c-9.66,0-17.52-7.86-17.52-17.52s7.86-17.52,17.52-17.52,17.52,7.86,17.52,17.52-7.86,17.52-17.52,17.52ZM1074.35,764.6c-5.33,0-9.67,4.34-9.67,9.67s4.34,9.67,9.67,9.67,9.67-4.34,9.67-9.67-4.34-9.67-9.67-9.67Z"/>
          <path class="cls-6" d="M933.07,848.74c-11.67,0-21.17-9.5-21.17-21.17s9.5-21.17,21.17-21.17,21.17,9.5,21.17,21.17-9.5,21.17-21.17,21.17ZM933.07,814.25c-7.35,0-13.32,5.98-13.32,13.33s5.98,13.32,13.32,13.32,13.32-5.97,13.32-13.32-5.98-13.33-13.32-13.33Z"/>
          <path class="cls-6" d="M800.11,838.88c-12.67,0-22.97-10.31-22.97-22.97s10.31-22.97,22.97-22.97,22.97,10.31,22.97,22.97-10.31,22.97-22.97,22.97ZM800.11,800.78c-8.34,0-15.12,6.78-15.12,15.12s6.78,15.12,15.12,15.12,15.12-6.78,15.12-15.12-6.78-15.12-15.12-15.12Z"/>
          <path class="cls-6" d="M839.73,901.97c-8.45,0-15.32-6.87-15.32-15.32s6.87-15.32,15.32-15.32,15.32,6.87,15.32,15.32-6.87,15.32-15.32,15.32ZM839.73,879.17c-4.12,0-7.47,3.35-7.47,7.47s3.35,7.47,7.47,7.47,7.48-3.35,7.48-7.47-3.35-7.47-7.48-7.47Z"/>
          <path class="cls-6" d="M724.25,932.48c-9.55,0-17.32-7.77-17.32-17.32s7.77-17.32,17.32-17.32,17.32,7.77,17.32,17.32-7.77,17.32-17.32,17.32ZM724.25,905.69c-5.22,0-9.47,4.25-9.47,9.47s4.25,9.47,9.47,9.47,9.47-4.25,9.47-9.47-4.25-9.47-9.47-9.47Z"/>
          <path class="cls-6" d="M700.23,854.29c-8.45,0-15.32-6.87-15.32-15.32s6.87-15.32,15.32-15.32,15.32,6.87,15.32,15.32-6.87,15.32-15.32,15.32ZM700.23,831.5c-4.12,0-7.48,3.35-7.48,7.47s3.35,7.47,7.48,7.47,7.47-3.35,7.47-7.47-3.35-7.47-7.47-7.47Z"/>
          <g>
            <g>
              <path class="cls-6" d="M723.13,903.36l-16.47-57.23c-1.82,1.63-4.25,2.7-7.38,2.73l16.51,57.39c1.78-1.69,4.22-2.8,7.34-2.88Z"/>
              <path class="cls-6" d="M713.46,909.45l-87.94-16.76,67.37-45.63c-2.31-1.51-3.81-3.83-4.51-6.43l-75.13,50.89c-1.31.89-1.96,2.49-1.64,4.04.32,1.56,1.55,2.76,3.11,3.06l97.65,18.62c-.44-2.63-.05-5.4,1.09-7.78Z"/>
              <path class="cls-6" d="M691.41,828.48l-73.85-61.81-5.04,6.02,75.47,63.17c.27-2.79,1.41-5.44,3.41-7.38Z"/>
              <path class="cls-6" d="M758.26,735.02c-.74-1.16-2.15-1.83-3.39-1.82-1.37.03-2.63.77-3.32,1.96l-48.19,91.08c2.79,1.02,4.75,3.04,5.89,5.49l45.85-87.03,31.8,57.98c1.9-1.66,4.22-2.94,7.04-3.56l-35.68-64.1Z"/>
              <path class="cls-6" d="M710.26,834.86c.5,2.86.06,5.91-1.32,8.43l73.8-18.67c-1.08-2.39-1.69-5-1.75-7.66l-70.74,17.9Z"/>
            </g>
            <g>
              <path class="cls-6" d="M836.53,875.64l-24.1-48.87c-1.46,2.3-3.46,4.23-6.01,5.56l23.36,47.36c1.52-2.04,3.77-3.55,6.76-4.05Z"/>
              <path class="cls-6" d="M829.2,893.74c-1.38-2.25-1.96-4.98-1.75-7.65l-93.97,23.33c1.94,4.04,1.6,9.19-.99,12.84l82.75,39.05,3.35-7.1-80.3-37.89,90.92-22.57Z"/>
              <path class="cls-6" d="M920.58,814.73c1.78-1.81,4.04-3.19,6.76-4l-47.23-96.05c-.62-1.15-1.76-1.92-3.06-2.05-1.31-.1-2.58.39-3.41,1.39l-66.18,87.21c2.33,1.45,4.2,3.38,5.49,5.67l62.99-83.39,44.64,91.22Z"/>
              <path class="cls-6" d="M915.8,824.23l-100.54-9.15c.18,2.64-.1,5.31-.93,7.79l101.7,9.26c-.57-2.59-.68-5.29-.23-7.9Z"/>
            </g>
            <path class="cls-6" d="M713.44,920.54l-46.64,61.52,6.25,4.74,46.16-60.89c-2.72-1.02-4.64-2.98-5.78-5.37Z"/>
            <g>
              <path class="cls-6" d="M1061.43,769.5c.62-2.62,1.89-5.03,3.81-6.91l-87.61-76.63c-.97-.69-2.2-.9-3.35-.57-1.14.33-2.08,1.15-2.54,2.25l-34.79,122.73c2.81.62,5.12,1.9,7.02,3.56l33.12-118.75,84.34,74.31Z"/>
              <path class="cls-6" d="M1061.06,774.87l-112.95,44.71c1.1,2.42,1.71,5.06,1.76,7.74l113.88-45.07c-1.54-2.15-2.43-4.71-2.69-7.38Z"/>
            </g>
            <g>
              <path class="cls-6" d="M843.39,897.86l56.04,51.97,5.34-5.76-55.9-51.84c-1.04,2.43-2.85,4.5-5.48,5.63Z"/>
              <path class="cls-6" d="M849.77,884.95l71.59-43.5c-2.01-1.78-3.51-3.99-4.48-6.46l-70.85,43.06c2.04,1.77,3.31,4.25,3.74,6.91Z"/>
              <path class="cls-6" d="M1066.76,785.27l-36.66,120.24-82.42-68.7c-1.22,2.33-2.98,4.34-5.23,5.86l87.17,72.65c1.01.84,2.37,1.12,3.64.74,1.26-.38,2.25-1.36,2.63-2.61l38.36-125.81c-3-.11-5.5-.98-7.48-2.37Z"/>
              <path class="cls-6" d="M1147.19,719.97l-62.89,42.41c1.97,1.83,3.28,4.21,3.95,6.8l63.1-42.55c-2.2-1.62-3.57-4.04-4.16-6.66Z"/>
              <path class="cls-6" d="M1151.29,707.48l-59.98-41.21-4.35,6.53,60.22,41.37c.58-2.63,1.93-5.05,4.11-6.69Z"/>
            </g>
            <g>
              <path class="cls-6" d="M1242.23,812.36c-.17,2.7-1.11,5.32-2.89,7.32l71.77,34.64,3.41-7.07-72.29-34.9Z"/>
              <path class="cls-6" d="M1238.62,799.73l44.45-54.68c-2.92-.66-5.05-2.34-6.46-4.5l-41.67,51.26c2.23,2.03,3.46,4.91,3.68,7.92Z"/>
            </g>
            <path class="cls-6" d="M1297.17,733.47c.04,2.7-.75,5.38-2.31,7.53l36.81,14.92,2.95-7.27-37.45-15.17Z"/>
            <g>
              <path class="cls-6" d="M1211.18,801.45l-122.38-28.31c.02,2.66-.6,5.32-1.84,7.63l124.71,28.84c-1.02-2.56-1.18-5.48-.48-8.17Z"/>
              <path class="cls-6" d="M1218.27,793.7c.24-.35.44-.74.72-1.06l-51.09-69.53c-1.24,2.3-3.28,4.12-6.06,5l51.08,69.52c1.25-1.79,3.03-3.19,5.35-3.93Z"/>
              <path class="cls-6" d="M1213.56,818.07l-51.02,62.59-76.6-98.35c-1.51,2.08-3.64,3.71-6.37,4.6l79.79,102.45c.73.94,1.86,1.5,3.05,1.51h.04c1.18,0,2.3-.53,3.04-1.44l53-65.02c-2.49-1.42-4.15-3.72-4.95-6.35Z"/>
            </g>
          </g>
        </g>
        <g>
          <path class="cls-6" d="M642.33,998.16c-15.24,0-30.08-5.31-41.99-15.26-14.97-12.5-23.56-30.86-23.56-50.36v-13.74h13.74c6.18,0,11.2-5.02,11.2-11.2v-114c0-6.18-5.02-11.2-11.2-11.2h-27.98v-24.29c0-18.72,8.02-36.59,22.02-49.03l327.07-290.79c-.96-5.23-1.41-10.56-1.34-15.94.57-44.78,34.01-80.31,76.13-80.9,27.12-.38,42.96,10.32,54.33,23.23,15.38-12.34,33.24-17.03,46.62-17.03,30.08,0,51.9,16.04,60.15,42.5,15.38-8.62,33.27-12.01,51.57-9.45,34.84,4.89,62.48,33.27,68.83,66.86,6.63-2.51,13.71-3.8,21.01-3.8,24.73,0,46.68,15.2,55.72,37.38,25.74,2.59,49.84,14.83,67.31,34.47,19.65,22.1,28.94,51.61,25.49,80.97-5.59,47.5-44.22,85.41-91.85,90.17-1.88.19-3.77.33-5.66.41v147.24c0,33.8-24.14,62.71-57.4,68.74l-628.42,113.93c-3.92.71-7.86,1.06-11.77,1.06ZM605.75,943.15c2.08,7.22,6.29,13.73,12.2,18.66,8.7,7.27,20.09,10.26,31.25,8.26l628.42-113.94c20.18-3.66,34.83-21.2,34.83-41.71v-166.04l4.63-6.47h0c4.16.26,21.59-2.06,25.78-2.48,34.91-3.48,63.21-31.26,67.3-66.05,2.58-21.89-4.08-43.02-18.74-59.51-14.57-16.38-35.37-25.77-57.06-25.77h-11.21l-2.25-10.98c-3.02-14.76-16.77-25.88-31.98-25.88-7.24,0-14.07,2.36-19.74,6.83-1.47,1.16-3.91,3.49-4.87,4.43l-31.44,31.25,8.26-43.55c.15-.78.26-1.56.35-2.33,3.23-28.03-18.37-56.05-46.22-59.96-18.05-2.51-35.49,3.62-47.8,16.88l-23.8,25.63v-34.98c0-12.12-3.54-40.31-36.3-40.31-10.24,0-26.15,4.94-37.31,18.88l-11.56,14.45-10.48-15.25c-9.76-14.2-18.41-24.29-40.21-24.29-.33,0-.67,0-1.01,0-27.57.38-48.65,23.5-49.04,53.78-.07,5.61.7,11.14,2.29,16.43l2.53,8.4-339.76,302.07c-7.34,6.52-11.85,15.62-12.66,25.32h39.05v152.68c0,15.92-9.67,29.62-23.44,35.55Z"/>
          <path class="cls-6" d="M1278.23,606.02c-11.39-14.19-18.11-32.72-17.83-51.71.02-9.48,1.6-19.07,4.79-28.23,3.3-9.11,8.16-17.74,14.36-25.41,6.2-7.68,13.74-14.39,22.28-19.75,8.6-5.26,18.17-9.08,28.19-11.26,20-4.58,41.97-1.92,61.05,7.62l-13.56,23.89c-12.52-8.43-28.38-12.73-44.25-11.16-7.91.68-15.8,2.68-23.24,6.01-7.39,3.43-14.29,8.12-20.3,13.89-6.01,5.77-11.14,12.6-15.04,20.19-3.79,7.64-6.3,15.99-7.42,24.64-2.47,17.31,1.45,35.75,10.97,51.28Z"/>
          <polygon class="cls-6" points="578.9 773.49 576.29 758.02 1254.23 630.13 1256.85 645.6 578.9 773.49"/>
        </g>
        <circle class="cls-6" cx="1258.58" cy="636.57" r="24.75"/>
        <polygon class="cls-6" points="1138.27 661.32 1128.85 661.32 1128.85 609.28 1104.89 585.33 1104.89 524.98 1114.31 524.98 1114.31 581.42 1138.27 605.38 1138.27 661.32"/>
        <path class="cls-6" d="M1180.42,652.13v-74.2h-9.42v75.27c3.14-.38,6.28-.73,9.42-1.06Z"/>
        <polygon class="cls-6" points="1004.39 515 965.32 468.45 977.9 432.51 986.79 435.62 975.98 466.5 1011.6 508.94 1004.39 515"/>
        <polygon class="cls-6" points="1090.13 637.57 1080.71 637.57 1080.71 611.03 1049.15 579.22 1055.84 572.59 1090.13 607.16 1090.13 637.57"/>
        <rect class="cls-6" x="940.29" y="471.79" width="9.42" height="64.19" transform="translate(-106.09 709.13) rotate(-39.12)"/>
        <polygon class="cls-6" points="923.61 553.9 906.86 537.14 877.11 533.22 872.09 524.47 880.27 519.79 882.96 524.49 911.26 528.22 930.27 547.23 923.61 553.9"/>
        <rect class="cls-6" x="1023.97" y="588.2" width="9.42" height="58.36" transform="translate(-150.07 840.76) rotate(-41.7)"/>
        <polygon class="cls-6" points="989.75 685.23 980.33 685.23 980.33 637.56 961.88 618.69 968.61 612.1 989.75 633.72 989.75 685.23"/>
        <rect class="cls-6" x="844.16" y="548.08" width="9.42" height="37.56" transform="translate(-147.63 788.01) rotate(-46.25)"/>
        <polygon class="cls-6" points="767.1 617.16 741.9 591.95 748.56 585.29 767.42 604.15 783.86 589.24 790.19 596.22 767.1 617.16"/>
        <polygon class="cls-6" points="814.6 699.28 812.53 690.09 892.71 672.07 874.42 647.69 881.95 642.04 908.98 678.06 814.6 699.28"/>
        <polygon class="cls-6" points="779.13 730.13 769.71 730.13 769.71 691.77 743.94 673.85 743.94 644.87 753.36 644.87 753.36 668.93 779.13 686.85 779.13 730.13"/>
        <rect class="cls-6" x="713.32" y="685.23" width="9.42" height="47.97"/>
        <polygon class="cls-6" points="667.31 714.03 660.64 707.37 675.27 692.74 675.27 654.54 684.7 654.54 684.7 696.64 667.31 714.03"/>
        <path class="cls-6" d="M656.91,729.01c-6.54,0-11.86-5.32-11.86-11.85s5.32-11.86,11.86-11.86,11.86,5.32,11.86,11.86-5.32,11.85-11.86,11.85ZM656.91,713.14c-2.21,0-4.01,1.8-4.01,4.01s1.8,4,4.01,4,4.01-1.8,4.01-4-1.8-4.01-4.01-4.01Z"/>
        <path class="cls-6" d="M718.03,690.85c-6.54,0-11.86-5.32-11.86-11.85s5.32-11.85,11.86-11.85,11.86,5.32,11.86,11.85-5.32,11.85-11.86,11.85ZM718.03,674.99c-2.21,0-4.01,1.8-4.01,4s1.8,4,4.01,4,4.01-1.8,4.01-4-1.8-4-4.01-4Z"/>
        <path class="cls-6" d="M747.73,648.79c-6.54,0-11.86-5.32-11.86-11.86s5.32-11.85,11.86-11.85,11.86,5.32,11.86,11.85-5.32,11.86-11.86,11.86ZM747.73,632.93c-2.21,0-4.01,1.8-4.01,4s1.8,4.01,4.01,4.01,4.01-1.8,4.01-4.01-1.8-4-4.01-4Z"/>
        <path class="cls-6" d="M808.04,707.28c-6.54,0-11.85-5.32-11.85-11.85s5.32-11.86,11.85-11.86,11.86,5.32,11.86,11.86-5.32,11.85-11.86,11.85ZM808.04,691.42c-2.21,0-4,1.8-4,4.01s1.8,4,4,4,4.01-1.8,4.01-4-1.8-4.01-4.01-4.01Z"/>
        <path class="cls-6" d="M1051.64,656.72c-6.54,0-11.85-5.32-11.85-11.85s5.32-11.86,11.85-11.86,11.86,5.32,11.86,11.86-5.32,11.85-11.86,11.85ZM1051.64,640.86c-2.21,0-4,1.8-4,4.01s1.8,4,4,4,4.01-1.8,4.01-4-1.8-4.01-4.01-4.01Z"/>
        <path class="cls-6" d="M1085.42,657.27c-6.54,0-11.85-5.32-11.85-11.86s5.32-11.85,11.85-11.85,11.86,5.32,11.86,11.85-5.32,11.86-11.86,11.86ZM1085.42,641.41c-2.21,0-4,1.8-4,4s1.8,4.01,4,4.01,4.01-1.8,4.01-4.01-1.8-4-4.01-4Z"/>
        <path class="cls-6" d="M1109.6,531.75c-6.54,0-11.85-5.32-11.85-11.85s5.32-11.85,11.85-11.85,11.86,5.32,11.86,11.85-5.32,11.85-11.86,11.85ZM1109.6,515.9c-2.21,0-4,1.8-4,4s1.8,4,4,4,4.01-1.8,4.01-4-1.8-4-4.01-4Z"/>
        <path class="cls-6" d="M1175.71,580.03c-6.54,0-11.85-5.32-11.85-11.85s5.32-11.85,11.85-11.85,11.86,5.32,11.86,11.85-5.32,11.85-11.86,11.85ZM1175.71,564.17c-2.21,0-4,1.8-4,4s1.8,4,4,4,4.01-1.8,4.01-4-1.8-4-4.01-4Z"/>
        <path class="cls-6" d="M984.15,439.17c-6.54,0-11.86-5.32-11.86-11.85s5.32-11.85,11.86-11.85,11.85,5.32,11.85,11.85-5.32,11.85-11.85,11.85ZM984.15,423.31c-2.21,0-4.01,1.8-4.01,4s1.8,4,4.01,4,4-1.8,4-4-1.8-4-4-4Z"/>
        <path class="cls-6" d="M919.01,485.51c-6.54,0-11.86-5.32-11.86-11.85s5.32-11.86,11.86-11.86,11.85,5.32,11.85,11.86-5.32,11.85-11.85,11.85ZM919.01,469.65c-2.21,0-4.01,1.8-4.01,4.01s1.8,4,4.01,4,4-1.8,4-4-1.8-4.01-4-4.01Z"/>
        <path class="cls-6" d="M792.66,598.15c-6.54,0-11.86-5.32-11.86-11.85s5.32-11.86,11.86-11.86,11.85,5.32,11.85,11.86-5.32,11.85-11.85,11.85ZM792.66,582.29c-2.21,0-4.01,1.8-4.01,4.01s1.8,4,4.01,4,4-1.8,4-4-1.8-4.01-4-4.01Z"/>
        <path class="cls-6" d="M831.3,561.1c-6.54,0-11.85-5.32-11.85-11.85s5.32-11.85,11.85-11.85,11.86,5.32,11.86,11.85-5.32,11.85-11.86,11.85ZM831.3,545.24c-2.21,0-4,1.8-4,4s1.8,4,4,4,4.01-1.8,4.01-4-1.8-4-4.01-4Z"/>
        <path class="cls-6" d="M872.21,527.76c-6.54,0-11.86-5.32-11.86-11.85s5.32-11.85,11.86-11.85,11.86,5.32,11.86,11.85-5.32,11.85-11.86,11.85ZM872.21,511.9c-2.21,0-4.01,1.8-4.01,4s1.8,4,4.01,4,4.01-1.8,4.01-4-1.8-4-4.01-4Z"/>
      </g>
    </g>
  </g>
</svg>