<?xml version="1.0" encoding="UTF-8" standalone="no"?>
<svg
   width="1024"
   height="1024"
   viewBox="0 0 1024 1024"
   version="1.1"
   id="svg3823"
   sodipodi:docname="2.svg"
   inkscape:version="1.2.1 (9c6d41e, 2022-07-14)"
   inkscape:export-filename="../Desktop/nosbavature.svg"
   inkscape:export-xdpi="96"
   inkscape:export-ydpi="96"
   xmlns:inkscape="http://www.inkscape.org/namespaces/inkscape"
   xmlns:sodipodi="http://sodipodi.sourceforge.net/DTD/sodipodi-0.dtd"
   xmlns="http://www.w3.org/2000/svg"
   xmlns:svg="http://www.w3.org/2000/svg">
  <sodipodi:namedview
     id="namedview3825"
     pagecolor="#ffffff"
     bordercolor="#000000"
     borderopacity="0.25"
     inkscape:showpageshadow="2"
     inkscape:pageopacity="0.0"
     inkscape:pagecheckerboard="0"
     inkscape:deskcolor="#d1d1d1"
     showgrid="false"
     inkscape:zoom="0.6535155"
     inkscape:cx="574.58469"
     inkscape:cy="514.14236"
     inkscape:window-width="1427"
     inkscape:window-height="894"
     inkscape:window-x="150"
     inkscape:window-y="1114"
     inkscape:window-maximized="0"
     inkscape:current-layer="svg3823" />
  <path
     fill="#F48801"
     d="m 407.665,531.355 c 10.242,6.506 21.136,12.16 31.496,18.498 12.435,7.608 24.555,15.756 36.745,23.755 7.074,4.641 19.349,11.111 25.173,16.6 2.267,4.847 0.962,16.971 1.417,23.035 1.596,21.236 0.831,42.671 1.002,63.952 0,9.255 0.288,20.264 -0.037,29.396 -31.645,19.877 -65.662,35.857 -97.539,55.258 -1.099,0.669 -2.364,1.015 -3.635,0.88 l -1.341,-0.841 c -3.718,-1.99 -8.952,-6.213 -12.475,-8.868 -6.004,-4.554 -12.066,-9.03 -18.185,-13.428 -10.19,-7.401 -20.424,-14.741 -30.701,-22.021 -4.273,-2.98 -24.337,-15.805 -25.776,-19.436 0.451,-13.256 0.047,-26.953 0.728,-40.315 0.778,-15.269 1.21,-30.568 2.358,-45.825 0.621,-8.242 -0.098,-19.489 1.197,-27.375 3.31,-2.247 8.129,-4.633 11.759,-6.447 17.537,-8.764 34.133,-19.143 50.716,-29.568 6.906,-4.342 14.314,-8.507 20.939,-13.239 2.873,-1.362 3.611,-2.295 6.159,-4.011 z"
     id="path3607"
     style="fill:#f48c03;fill-opacity:1" />
  <path
     fill="#feaa01"
     d="m 407.665,531.355 c 10.242,6.506 21.136,12.16 31.496,18.498 12.435,7.608 24.555,15.756 36.745,23.755 7.074,4.641 19.349,11.111 25.173,16.6 -2.938,3.477 -15.553,8.389 -20.504,10.943 -12.491,6.447 -25.069,12.886 -37.493,19.48 -9.481,5.145 -28.57739,17.08048 -40.179,23.774 l -0.842,0.415 c -9.063,8.187 -77.838,50.802 -88.252,53.315 0.451,-13.256 0.047,-26.953 0.728,-40.315 0.778,-15.269 1.21,-30.568 2.358,-45.825 0.621,-8.242 -0.098,-19.489 1.197,-27.375 3.31,-2.247 8.129,-4.633 11.759,-6.447 17.537,-8.764 34.133,-19.143 50.716,-29.568 6.906,-4.342 14.314,-8.507 20.939,-13.239 2.873,-1.362 3.611,-2.295 6.159,-4.011 z"
     id="path3609"
     sodipodi:nodetypes="cccccccccccccccc" />
  <path
     fill="#feaa01"
     d="m 313.809,698.135 c 0.451,-13.256 0.047,-26.953 0.728,-40.315 0.778,-15.269 1.21,-30.568 2.358,-45.825 0.621,-8.242 -0.098,-19.489 1.197,-27.375 0.175,0.563 0.394,1.266 0.657,2.11 11.562,10.423 27.916,20.168 40.469,28.722 14.665,9.994 29,19.112 42.843,29.368 -9.063,8.187 -77.838,50.802 -88.252,53.315 z"
     id="path3611" />
  <path
     fill="#fec004"
     d="m 407.30809,531.25179 c -5.62365,33.0425 -3.93254,74.77914 -4.60709,104.65821 -0.064,2.798 -0.225,5.736 0.202,8.495 l -0.842,0.415 c -13.843,-10.256 -28.178,-19.374 -42.843,-29.368 -12.553,-8.554 -28.907,-18.299 -40.469,-28.722 -0.263,-0.844 -0.482,-1.547 -0.657,-2.11 3.31,-2.247 8.129,-4.633 11.759,-6.447 17.537,-8.764 34.133,-19.143 50.716,-29.568 6.906,-4.342 20.11609,-12.62121 26.74109,-17.35321 z"
     id="path3613"
     sodipodi:nodetypes="cccccccccc" />
  <path
     fill="#fb9801"
     d="m 402.903,644.405 c -0.456,2.105 -0.098,18.03 -0.091,21.587 l 0.046,60.493 c 0.003,4.362 0.656,32.705 -0.991,34.948 l -0.921,0.455 c -3.718,-1.99 -8.952,-6.213 -12.475,-8.868 -6.004,-4.554 -12.066,-9.03 -18.185,-13.428 -10.19,-7.401 -20.424,-14.741 -30.701,-22.021 -4.273,-2.98 -24.337,-15.805 -25.776,-19.436 10.414,-2.513 79.189,-45.128 88.252,-53.315 z"
     id="path3615" />
  <defs
     id="defs3622" />
  <path
     fill="url(#gradient_0)"
     d="m 520.37,706.65 c -0.281,-13.86 -0.747,-108.929 1.532,-115.037 0.467,-1.25 1.57,-1.966 2.652,-2.709 11.64,-7.991 24.004,-15.132 36.081,-22.441 l 41.23,-25.115 c 4.453,-2.666 10.279,-6.49 14.996,-9.01 1.046,-0.559 1.968,0.176 2.794,0.69 19.503,14.208 40.465,25.947 60.695,39.021 5.248,3.391 21.354,11.43 23.713,15.813 -0.136,7.083 1.094,17.649 1.489,25.268 l 2.848,55.196 c 0.528,9.045 -0.512,22.773 0.201,30.679 -2.19,2.406 -9.952,7.214 -13.004,9.24 -7.38,4.851 -14.716,9.771 -22.006,14.757 -11.762,8.151 -23.395,16.485 -34.896,25.001 -3.136,2.336 -15.853,12.3 -18.306,13.56 -8.546,-3.598 -21.756,-11.364 -30.489,-15.941 -14.692,-7.538 -29.226,-15.382 -43.59,-23.528 -7.829,-4.357 -18.786,-10.152 -25.94,-15.444 z"
     id="path3624"
     style="fill:#feaa01;fill-opacity:1" />
  <path
     fill="#ec7801"
     d="m 704.063,587.862 c -0.136,7.083 1.094,17.649 1.489,25.268 l 2.848,55.196 c 0.528,9.045 -0.512,22.773 0.201,30.679 -28.97915,-18.27595 -61.66338,-37.21271 -88.505,-52.468 0.509,-2.056 0.455,-1.952 2.023,-3.384 1.423,-0.779 7.399,-5.149 9.074,-6.313 6.792,-4.769 13.634,-9.467 20.524,-14.093 9.703,-6.522 19.469,-12.95 29.296,-19.282 6.084,-3.908 17.703,-11.028 23.05,-15.603 z"
     id="path3626"
     sodipodi:nodetypes="cccccccccc" />
  <path
     fill="#e26c01"
     d="m 620.096,646.537 c 18.095,10.243 35.47,20.36162 53.782,30.60862 4.494,2.515 33.274,19.24538 34.723,21.85938 -2.19,2.406 -9.952,7.214 -13.004,9.24 -7.38,4.851 -14.716,9.771 -22.006,14.757 -11.762,8.151 -23.395,16.485 -34.896,25.001 -3.136,2.336 -15.853,12.3 -18.306,13.56 z"
     id="path3628"
     sodipodi:nodetypes="cccccccc" />
  <path
     fill="#f48801"
     d="m 619.655,533.028 c 19.503,14.208 40.465,25.947 60.695,39.021 5.248,3.391 21.354,11.43 23.713,15.813 -5.347,4.575 -16.966,11.695 -23.05,15.603 -9.827,6.332 -19.593,12.76 -29.296,19.282 -6.89,4.626 -13.732,9.324 -20.524,14.093 -1.675,1.164 -9.59394,9.55867 -11.01694,10.33767 0.0151,-8.17542 0.34567,-20.48937 0.33194,-27.34867 l -0.186,-56.416 c -0.006,-7.187 0.428,-24.356 -0.667,-30.385 z"
     id="path3632"
     sodipodi:nodetypes="cccccccccc" />
  <defs
     id="defs3639" />
  <path
     fill="url(#gradient_1)"
     d="m 511.577,719.166 c 9.663,7.691 23.564,14.012 34.508,20.139 12.208,6.834 24.191,13.639 36.6,20.203 8.748,4.627 18.746,10.441 26.928,16.127 1.172,0.815 2.225,2.186 2.216,3.65 -0.055,8.134 -1.913,17.52 -2.905,25.58 l -5.957,45.054 c -1.21,9.274 -1.782,20.745 -4.631,29.419 -14.944,10.634 -31.855,20.915 -46.794,31.752 -3.594,2.607 -38.674,28.778 -39.507,28.934 l -0.557,-0.151 c -15.723,-10.958 -31.284,-22.819 -47.203,-33.857 l -22.686,-15.585 c -5.437,-3.742 -12.022,-8.017 -16.686,-12.583 -2.149,-4.882 -5.42,-36.327 -6.314,-43.223 l -3.879,-28.853 c -1.136,-7.864 -3.102,-20.69 -3.161,-28.539 8.232,-6.245 22.399,-13.688 31.482,-18.524 l 31.981,-17.379 c 9.893,-5.41 21.543,-13.368 30.522,-18.065 2.183,-1.594 3.754,-2.665 6.043,-4.099 z"
     id="path3641"
     style="fill:#f07c01;fill-opacity:1" />
  <defs
     id="defs3648" />
  <path
     fill="url(#gradient_2)"
     d="m 505.534,723.265 0.962,-0.239 c 1.535,-0.396 2.662,-0.922 4.102,-1.557 1.341,4.616 1.203,19.423 1.236,24.788 l 0.29,61.529 c 0.043,8.204 -0.66715,21.18219 -0.35815,29.44819 C 504.76276,839.872 497.51,843.46566 490.25,847.32 c -12.145,6.36 -53.487,31 -65.347,30.528 -2.149,-4.882 -5.42,-36.327 -6.314,-43.223 l -3.879,-28.853 c -1.136,-7.864 -3.102,-20.69 -3.161,-28.539 8.232,-6.245 22.399,-13.688 31.482,-18.524 l 31.981,-17.379 c 9.893,-5.41 21.543,-13.368 30.522,-18.065 z"
     id="path3650"
     sodipodi:nodetypes="cccccccccccccc"
     style="fill:#fb9801;fill-opacity:1" />
  <path
     fill="#f48801"
     d="m 424.903,877.848 c 11.86,0.472 53.202,-24.168 65.347,-30.528 5.891,-3.086 15.24907,-7.8384 21.512,-9.996 0.22,10.914 1.338,97.931 -0.284,102.549 -15.723,-10.958 -31.284,-22.819 -47.203,-33.857 l -22.686,-15.585 c -5.437,-3.742 -12.022,-8.017 -16.686,-12.583 z"
     id="path3652"
     sodipodi:nodetypes="ccccccc" />
  <defs
     id="defs3659" />
  <path
     fill="url(#gradient_3)"
     d="m 510.446,402.958 c 7.69,0.504 59.637,25.22 70.48,29.914 4.012,1.738 15.281,7.83 19.307,8.782 2.354,1.641 3.115,2.486 3.471,5.504 0.69,5.865 1.066,13.175 1.506,19.004 0.845,11.217 6.062,44.392 2.504,54.152 -8.38,6.513 -91.518,55.587 -95.865,56.199 -4.029,-1.601 -11.473,-6.45 -15.391,-8.879 -7.693,-4.791 -15.418,-9.531 -23.173,-14.22 -12.362,-7.38 -24.979,-14.328 -37.303,-21.775 -3.068,-1.854 -6.297,-3.586 -9.066,-5.877 -3.905,-1.615 -7.775,-4.627 -11.083,-7.219 -3.867,-8.821 1.839,-40.085 2.847,-50.586 0.734,-7.65 1.42,-16.727 2.42,-24.431 3.049,-1.959 17.728,-7.867 22.163,-9.882 21.983,-9.987 45.089,-21.267 67.183,-30.686 z"
     id="path3661"
     style="fill:#fb9801;fill-opacity:1" />
  <path
     fill="#feaa01"
     d="m 421.1,443.526 c 3.049,-1.959 17.728,-7.867 22.163,-9.882 21.983,-9.987 45.089,-21.267 67.183,-30.686 2.544,3.388 1.619,21.227 1.598,26.431 l -0.067,40.76 c -0.008,4.974 -0.153,10.109 0.253,15.071 -0.6092,14.73608 -0.14707,45.46794 -0.111,66.443 0.025,7.007 0.4,18.23 -0.27,24.85 -4.029,-1.601 -11.473,-6.45 -15.391,-8.879 -7.693,-4.791 -15.418,-9.531 -23.173,-14.22 -12.362,-7.38 -24.979,-14.328 -37.303,-21.775 -3.068,-1.854 -6.297,-3.586 -9.066,-5.877 -3.905,-1.615 -7.775,-4.627 -11.083,-7.219 -3.867,-8.821 1.839,-40.085 2.847,-50.586 0.734,-7.65 1.42,-16.727 2.42,-24.431 z"
     id="path3663"
     sodipodi:nodetypes="ccccccccccscccc" />
  <path
     fill="#fec004"
     d="m 421.1,443.526 c 3.049,-1.959 17.728,-7.867 22.163,-9.882 21.983,-9.987 45.089,-21.267 67.183,-30.686 2.544,3.388 1.619,21.227 1.598,26.431 -0.20605,18.64027 -0.23415,44.31128 0.008,58.69312 -7.812,-3.24 -20.69961,-7.73012 -28.49561,-11.06412 -18.862,-8.162 -37.384,-17.088 -55.52,-26.756 -4.08,-2.186 -5.674,-2.543 -6.936,-6.736 z"
     id="path3665"
     sodipodi:nodetypes="cccccccc" />
  <path
     fill="#fb9801"
     d="m 512.046,509.212 0.073,42.451 c 0.025,7.007 0.4,18.23 -0.27,24.85 -4.029,-1.601 -11.473,-6.45 -15.391,-8.879 -7.693,-4.791 -15.418,-9.531 -23.173,-14.22 -12.362,-7.38 -24.979,-14.328 -37.303,-21.775 -3.068,-1.854 -6.297,-3.586 -9.066,-5.877 2.568,0.327 1.647,0.739 3.602,1.342 5.544,-1.035 77.30998,-35.81163 81.70498,-39.31963 -0.10234,7.76138 -0.12914,14.03351 -0.17698,21.42763 z"
     id="path3667"
     sodipodi:nodetypes="cccccscccc" />
  <path
     fill="#fb9801"
     d="m 596.22163,527.67519 c -32.86257,21.36525 -45.84051,29.12831 -83.97559,48.83781 0,4.81284 -2.84656,-87.65036 -0.0211,-88.72863 z"
     id="path3667-1"
     sodipodi:nodetypes="cccc"
     style="fill:#f38302;fill-opacity:1" />
  <path
     fill="#feaa01"
     d="m 510.446,402.958 c 7.69,0.504 59.637,25.22 70.48,29.914 4.012,1.738 15.281,7.83 19.307,8.782 l 0.977,2.381 c -27.85957,18.22873 -59.06226,29.80188 -89.08992,43.94984 C 512.10686,482.94428 511.969,475.123 511.977,470.149 l 0.067,-40.76 c 0.021,-5.204 0.946,-23.043 -1.598,-26.431 z"
     id="path3669"
     sodipodi:nodetypes="cccccccc" />
  <path
     fill="#fec004"
     d="m 509.122,63.3953 c 1.135,-1.9909 1.752,-3.0027 3.138,-4.8188 19.021,28.4967 30.745,52.5565 43.35,84.0375 3.315,10.251 13.467,49.587 11.957,59.29 -0.465,36.732 -5.297,73.356 -19.471,107.443 -1.408,3.385 -2.612,6.977 -3.973,10.431 -7.02,17.814 -14.355,35.6 -24.365,51.984 -1.902,3.113 -5.229,9.166 -7.799,11.331 l -0.673,-0.222 c -0.723,-0.777 -2.671,-3.286 -3.263,-4.192 -19.642,-30.336 -34.767,-68.849 -44.234,-103.668 -4.191,-15.417 -9.902,-62.95 -7.339,-78.241 -0.076,-9.963 9.08438,-43.272 12.638,-54.017 2.15539,-5.94689 5.299,-13.553 7.754,-18.71 6.497,-13.648 23.284,-50.3627 32.28,-60.6477 z"
     id="path3671"
     sodipodi:nodetypes="ccccccscccccccc" />
  <path
     fill="#ec7801"
     d="m 512.24847,252.19728 c 21.812,-11.173 39.62063,-32.88163 55.31863,-50.73263 -0.465,36.732 -5.02174,69.36475 -16.85604,105.1033 -1.408,3.385 -4.26356,10.693 -5.62456,14.147 -7.02,17.814 -13.39159,32.70978 -23.40159,49.09378 -1.902,3.113 -7.29344,11.78096 -9.86344,13.94596 z"
     id="path3673"
     sodipodi:nodetypes="ccccscc"
     style="fill:#f38302;fill-opacity:1" />
  <defs
     id="defs3680" />
  <path
     fill="url(#gradient_4)"
     d="m 511.83652,383.8344 c -0.723,-0.777 -3.22152,-4.2494 -3.81352,-5.1554 -19.642,-30.336 -35.23738,-68.37862 -44.70438,-103.19762 -6.06181,-15.88195 -7.53689,-75.63799 -7.57814,-74.53587 8.601,10.794 19.09955,24.22698 29.65955,33.16098 6.629,5.608 21.6164,13.98951 27.05844,17.6597 z"
     id="path3682"
     sodipodi:nodetypes="ccccccc"
     style="fill:#f99102;fill-opacity:1" />
  <path
     fill="#fb9801"
     d="m 512.782,176.979 c 14.98,-7.598 32.447,-21.349 42.828,-34.365 3.315,10.251 13.467,49.587 11.957,59.29 -15.698,17.851 -33.369,39.422 -55.181,50.595 l -0.319,-39.851 c -0.093,-7.915 -0.466,-28.797 0.259,-35.424 z"
     id="path3684"
     sodipodi:nodetypes="ccccccc" />
  <path
     fill="#feaa01"
     d="m 469.088,142.753 c 1.596,5.686 36.03783,33.05522 43.26383,34.48022 l -0.11822,25.63698 c 0.029,17 0.41581,32.19819 0.12981,49.19619 -4.88246,-1.78181 -24.28188,-15.37743 -27.45642,-18.01739 -10.56,-8.934 -20.57313,-22.28268 -29.17413,-33.07668 1.52286,-19.51398 7.32343,-38.84735 13.35513,-58.21932 z"
     id="path3686"
     sodipodi:nodetypes="ccccccc" />
  <path
     fill="#feaa01"
     d="m 512.26,58.5765 c 19.021,28.4967 30.745,52.5565 43.35,84.0375 -10.381,13.016 -28.27729,27.11452 -43.25729,34.71252 -0.21405,-10.29332 -0.3001,-21.69877 -0.28271,-31.36352 l -0.026,-58.977 0.21285,-28.394769 c 0.0284,-0.02615 0.003,-0.01474 0.003,-0.01474 z"
     id="path3688"
     sodipodi:nodetypes="cccccccc" />
  <defs
     id="defs3695" />
  <path
     fill="url(#gradient_5)"
     d="m 755.156,220.683 c 12.61959,-0.89915 22.8817,-1.7285 34.934,-3.158 -12.777,9.529 -25.52,22.75 -36.418,34.4 -31.623,33.806 -59.242,71.205 -89.567,106.106 -1.572,1.808 -12.029,5.116 -14.948,6.078 -33.74,11.12 -68.558,18.653 -103.877,22.475 -4.3,0.432 -14.896,2.066 -18.396,1.103 l -0.25,-0.841 1.034,-0.951 c 3.436,-6.202 9.661,-14.156 13.987,-20.113 20.874,-28.742 41.504,-57.044 69.316,-79.508 20.706,-16.966 46.703,-37.397 72.049,-46.723 18.439,-6.784 52.847,-17.673 72.136,-18.868 z"
     id="path3697"
     style="fill:#f48801;fill-opacity:1"
     sodipodi:nodetypes="ccccccccccccc" />
  <defs
     id="defs3706" />
  <path
     fill="url(#gradient_6)"
     d="m 716.482,712.163 c 3.839,3.812 8.229,7.439 12.191,11.303 7.961,7.765 15.197,15.52 22.166,24.182 2.409,2.994 5.845,6.554 7.624,9.866 -4.119,20.73 -21.943,69.073 -33.523,85.962 -14.233,16.387 -27.077,32.119 -43.831,46.054 -5.833,4.851 -11.266,10.354 -17.242,15.149 -1.577,-0.715 -3.501,-1.495 -4.878,-2.47 -5.318,-1.797 -38.399,-24.555 -43.163,-28.935 0.963,-8.514 3.554,-20.525 4.785,-29.591 3.115,-22.958 5.207,-45.666 7.656,-68.706 29.02457,-21.60826 60.83329,-44.4579 88.215,-62.814 z"
     id="path3708"
     style="fill:#eb7401;fill-opacity:1"
     sodipodi:nodetypes="ccsccccccccc" />
  <path
     fill="#EC7801"
     d="m 689.431,820.282 0.682,0.434 c 9.944,8.151 24.158,14.63 34.827,22.76 -14.233,16.387 -27.077,32.119 -43.831,46.054 -5.833,4.851 -11.266,10.354 -17.242,15.149 -1.577,-0.715 -3.501,-1.495 -4.878,-2.47 -5.318,-1.797 -38.399,-24.555 -43.163,-28.935 3.769,-1.37 66.618,-46.746 71.966,-51.815 z"
     id="path3710"
     style="fill:#e26c01;fill-opacity:1" />
  <path
     fill="#E26C01"
     d="m 690.113,820.716 c 9.944,8.151 24.158,14.63 34.827,22.76 -14.233,16.387 -27.077,32.119 -43.831,46.054 -5.833,4.851 -11.266,10.354 -17.242,15.149 -1.577,-0.715 -3.501,-1.495 -4.878,-2.47 1.617,0.141 3.05,0.587 4.626,0.987 3.519,-2.429 23.052,-79.173 26.498,-82.48 z"
     id="path3712"
     style="fill:#d96515;fill-opacity:1" />
  <path
     fill="#e26c01"
     d="m 716.62709,712.163 c 11.31896,8.38016 33.0504,33.51438 41.83591,44.90445 -14.233,16.387 -33.1875,34.07505 -49.9415,48.01005 -5.833,4.851 -12.41179,10.4095 -18.38779,15.2045 z"
     id="path3712-3"
     style="fill:#f07c01;fill-opacity:1"
     sodipodi:nodetypes="ccccc" />
  <path
     fill="#e26c01"
     d="m 628.96442,774.49891 c 14.10327,-9.313 72.61076,-55.33291 87.92476,-62.33591 l -26.75547,108.119 z"
     id="path3712-3-5"
     style="fill:#f48801;fill-opacity:1"
     sodipodi:nodetypes="cccc" />
  <defs
     id="defs3721" />
  <path
     fill="url(#gradient_7)"
     d="m 234.084,217.466 c 12.487,1.835 25.109,2.164 37.548,3.878 22.37,3.083 61.528,13.767 81.4,24.069 8.554,3.172 19.428,10.368 27.066,15.416 35.636,23.557 65.246,54.01 90.113,88.573 2.603,3.617 9.403,11.828 10.902,15.221 2.561,2.798 14.94,20.218 16.844,23.638 -41.015,-2.149 -83.935,-11.793 -123.199,-24.06 -5.4,-1.687 -12.397,-3.792 -16.8,-7.207 -3.208,-4.521 -10.136,-12.503 -13.862,-17.138 -11.538,-14.362 -23.174,-28.646 -34.907,-42.849 -1.765,-1.476 -12.196,-14.521 -14.557,-17.248 -16.604,-19.177 -39.8,-48.044 -60.548,-62.293 z"
     id="path3723"
     style="fill:#fec004;fill-opacity:1" />
  <path
     fill="#fb9801"
     d="m 353.032,245.413 c 8.554,3.172 19.428,10.368 27.066,15.416 50.74922,34.09901 90.15602,77.2135 117.43175,127.24506 L 420.47692,337.40802 372.03196,302.8635 C 363.94965,283.90494 356.25585,263.67729 353.032,245.413 Z"
     id="path3725"
     sodipodi:nodetypes="cccccc" />
  <path
     fill="#fb9801"
     d="m 308.8349,296.88897 c 22.63601,5.97453 38.3441,8.68422 61.33745,4.81968 10.714,6.586 23.12238,15.93818 33.38738,23.41318 4.574,3.332 12.79641,9.21765 17.75679,12.86075 -16.55,6.12 -45.74852,17.43542 -63.35852,19.01142 -3.208,-4.521 -10.136,-12.503 -13.862,-17.138 -11.538,-14.362 -23.5281,-28.76403 -35.2611,-42.96703 z"
     id="path3727"
     sodipodi:nodetypes="ccccccc"
     style="fill:#f98a02;fill-opacity:1" />
  <path
     fill="#f48801"
     d="m 421.43456,337.98259 c 49.9298,30.52398 75.70614,49.06249 76.52244,50.27841 -41.015,-2.149 -83.935,-11.793 -123.199,-24.06 -5.4,-1.687 -12.397,-3.792 -16.8,-7.207 17.61,-1.576 46.92656,-12.89141 63.47656,-19.01141 z"
     id="path3729"
     sodipodi:nodetypes="ccscc"
     style="fill:#f07c01;fill-opacity:1" />
  <path
     fill="#f48801"
     d="m 512.22686,324.57648 -0.52976,59.39647 c -18.89043,-26.61549 -34.88949,-60.59103 -45.80918,-99.65406 11.01595,13.82914 32.11449,29.81623 46.33894,40.25759 z"
     id="path3729-1"
     sodipodi:nodetypes="cccc"
     style="fill:#f07c01;fill-opacity:1" />
  <path
     fill="#f48801"
     d="m 556.23615,287.77502 c -10.42159,37.34417 -22.86765,68.06281 -44.51581,96.02084 l 0.20133,-59.34885 c 11.56808,-5.86336 34.69109,-25.39639 44.31448,-36.67199 z"
     id="path3729-1-9"
     sodipodi:nodetypes="cccc"
     style="fill:#e26c01;fill-opacity:1" />
  <defs
     id="defs3738" />
  <path
     fill="url(#gradient_8)"
     d="m 302.496,717.18 4.176,-3.375 53.464,37.617 c 7.041,4.957 30.32,20.203 34.672,26.242 1.187,3.97 1.653,14.061 2.38,18.819 2.966,19.394 4.65,39.295 6.72,58.815 0.682,6.433 1.961,12.713 2.843,19.085 -6.851,5.367 -17.02,11.011 -24.417,15.728 -7.932,5.059 -14.74,9.904 -22.343,15.329 -23.804,-18.528 -45.101,-40.069 -63.357,-64.082 -9.434,-12.81 -30.222,-68.278 -31.867,-84.364 3.431,-7.423 30.322,-33.713 37.729,-39.814 z"
     id="path3740"
     style="fill:#fb9801;fill-opacity:1" />
  <path
     fill="#f48801"
     d="m 394.808,777.664 c 1.187,3.97 1.653,14.061 2.38,18.819 2.966,19.394 4.65,39.295 6.72,58.815 0.682,6.433 1.961,12.713 2.843,19.085 -6.851,5.367 -17.02,11.011 -24.417,15.728 -7.932,5.059 -14.74,9.904 -22.343,15.329 -23.804,-18.528 -45.101,-40.069 -63.357,-64.082 6.95507,-2.55355 32.77516,-20.03941 37.713,-23.345 8.09556,-8.0045 48.052,-30.775 60.461,-40.349 z"
     id="path3742"
     sodipodi:nodetypes="ccscccccc" />
  <path
     fill="#f48801"
     d="M 335.14618,819.11319 406.751,874.35601 359.89804,905.44 Z"
     id="path3754-1-4"
     sodipodi:nodetypes="cccc"
     style="fill:#ef7f01;fill-opacity:1" />
  <path
     fill="#fb9801"
     d="m 306.672,713.805 53.464,37.617 c 7.041,4.957 30.32,20.203 34.672,26.242 -12.409,9.574 -49.04312,32.72785 -60.461,40.349 -11.43148,-26.35922 -27.14252,-83.09527 -27.675,-104.208 z"
     id="path3744"
     sodipodi:nodetypes="ccccc" />
  <path
     fill="#fb9801"
     d="m 521.97616,592.301 c 29.62232,17.86082 66.69718,38.80667 97.67884,54.87667 -12.409,9.574 -88.10683,53.21151 -99.52471,60.83266 0,-28.12866 2.37835,-94.5966 1.84587,-115.70933 z"
     id="path3744-0"
     sodipodi:nodetypes="cccc"
     style="fill:#fb9801;fill-opacity:1" />
  <path
     fill="#feaa01"
     d="m 363.664,422.146 c 14.028,6.994 26.947,13.43 40.863,20.81 1.467,3.253 -0.222,11.782 -0.449,15.709 -0.763,13.154 -2.28,26.304 -4.076,39.351 -0.945,6.94 -0.831,14.154 -2.858,20.958 -0.52,1.741 -1.689,2.311 -3.171,3.205 -11.126,6.697 -76.465,49.535 -80.544,49.927 -13.036,-10.733 -25.396,-26.864 -35.835,-40.261 6.511,-15.722 10.672,-32.779 18.987,-47.997 4.021,-7.359 7.097,-15.886 12.407,-22.516 7.198,-8.47 43.777,-33.72 54.676,-39.186 z"
     id="path3746" />
  <path
     fill="#fec004"
     d="m 363.664,422.146 c 14.028,6.994 26.947,13.43 40.863,20.81 1.467,3.253 -0.222,11.782 -0.449,15.709 -0.763,13.154 -2.28,26.304 -4.076,39.351 -0.945,6.94 -0.831,14.154 -2.858,20.958 -0.52,1.741 -1.689,2.311 -3.171,3.205 -22.148,-10.627 -34.998,-19.102 -54.946,-32.21 l -0.083,-0.337 c -1.783,-0.733 -7.484,-6.28 -9.256,-7.929 -3.758,-2.724 -19.233,-16.525 -20.7,-20.371 7.198,-8.47 43.777,-33.72 54.676,-39.186 z"
     id="path3748" />
  <path
     fill="#fb9801"
     d="m 404.527,442.956 c 1.467,3.253 -0.222,11.782 -0.449,15.709 -0.763,13.154 -2.28,26.304 -4.076,39.351 -0.945,6.94 -0.831,14.154 -2.858,20.958 -0.52,1.741 -1.689,2.311 -3.171,3.205 -22.148,-10.627 -34.998,-19.102 -54.946,-32.21 l -0.083,-0.337 1.599,-1.301 c 0.963,-1.363 6.334,-5.274 8.1,-6.748 9.949,-8.299 20.69,-16.284 31.439,-23.534 7.65,-5.159 16.94,-9.75 24.445,-15.093 z"
     id="path3750" />
  <path
     fill="#f48801"
     d="m 339.027,489.969 c 19.948,13.108 32.798,21.583 54.946,32.21 -11.126,6.697 -76.465,49.535 -80.544,49.927 3.709,-12.273 6.748,-24.758 10.43,-37.055 4.67,-15.155 9.728,-30.187 15.168,-45.082 z"
     id="path3754" />
  <path
     fill="#f48801"
     d="m 402.9882,644.405 c 19.948,13.108 78.4795,48.20401 100.6275,62.07928 -11.126,6.697 -100.6275,55.40372 -100.6275,55.40372 0.0177,-37.74149 -0.9272,-83.5689 0,-117.483 z"
     id="path3754-1"
     sodipodi:nodetypes="cccc"
     style="fill:#f07e01;fill-opacity:1" />
  <path
     fill="#f48801"
     d="m 520.13029,708.01033 c 21.22929,-12.0291 78.81603,-47.68829 99.96571,-61.19106 -0.11207,12.98557 0,114.74373 0,114.74373 -34.04147,-15.98833 -71.54632,-35.02259 -99.96571,-53.55267 z"
     id="path3754-1-5"
     sodipodi:nodetypes="cccc"
     style="fill:#f48c03;fill-opacity:1" />
  <defs
     id="defs3761" />
  <path
     fill="url(#gradient_9)"
     d="m 618.527,441.132 c 4.614,-2.503 41.267,-18.297 42.957,-17.722 7.285,2.478 48.707,32.925 52.987,38.414 10.051,13.789 26.305,53.621 30.237,70.645 -13.063,13.848 -20.65,25.609 -35.567,40.079 -8.718,-4.553 -19.166,-12.361 -27.816,-17.815 l -50.481,-31.26 c -1.565,-0.987 -3.711,-2.898 -5.192,-4.134 -1.299,-5.015 -1.306,-11.171 -1.979,-16.402 -1.922,-14.926 -2.559,-29.972 -3.952,-44.944 -0.545,-5.861 -1.371,-10.934 -1.194,-16.861 z"
     id="path3763"
     style="fill:#f38302;fill-opacity:1" />
  <path
     fill="#f48801"
     d="m 687.61253,487.98484 c 19.948,13.108 37.38455,28.04241 57.09547,44.15283 -7.47039,9.74334 -32.028,40.01833 -36.107,40.41033 -6.3228,-29.85727 -8.62797,-42.38987 -20.98847,-84.56316 z"
     id="path3754-9"
     style="fill:#e26c01;fill-opacity:1"
     sodipodi:nodetypes="cccc" />
  <path
     fill="#fb9801"
     d="m 618.527,441.132 c 4.614,-2.503 41.267,-18.297 42.957,-17.722 7.285,2.478 48.707,32.925 52.987,38.414 -3.66,3.601 -8.524,7.781 -12.351,11.503 -4.499,4.377 -11.68951,12.26739 -16.71951,15.75639 -19.01821,13.1796 -39.24606,21.51551 -54.55649,34.38961 -1.565,-0.987 -3.711,-2.898 -5.192,-4.134 -1.299,-5.015 -1.306,-11.171 -1.979,-16.402 -1.922,-14.926 -2.559,-29.972 -3.952,-44.944 -0.545,-5.861 -1.371,-10.934 -1.194,-16.861 z"
     id="path3765"
     sodipodi:nodetypes="cccccccccc" />
  <path
     fill="#fb9801"
     d="m 686.69455,487.98484 c -17.60039,15.49413 -41.34182,35.48816 -54.86207,35.48816 -3.24873,0 -4.53528,-3.40169 -6.45225,-4.23638 -4.19148,-24.20534 -7.4393,-54.0179 -8.33368,-77.87042 l 0.22636,-0.26309 c 28.02109,15.25085 47.47867,27.52391 69.42164,46.88173 z"
     id="path3750-8"
     style="fill:#feaa01;fill-opacity:1"
     sodipodi:nodetypes="cscccc" />
  <defs
     id="defs3774" />
  <path
     fill="url(#gradient_10)"
     d="m 714.613,122.654 5.061,-1.893 c -3.586,6.717 -7.724,13.434 -11.146,20.135 -10.233,20.042 -20.682,41.591 -29.653,62.219 -4.83,9.941 -8.359,19.817 -12.873,29.162 -32.338,17.42 -61.859,39.623 -87.567,65.86 -5.602,5.782 -10.849,12.945 -16.573,19.011 7.275,-25.207 13.703,-51.996 17.75,-77.956 1.676,-6.628 0.48689,-37.4215 3.05789,-41.6355 8.665,-14.2 46.92111,-38.1265 60.50611,-44.3435 1.627,-1.221 9.521,-5.34 11.641,-6.389 19.047,-9.425 39.046,-19.292 59.796,-24.17 z"
     id="path3776"
     style="fill:#fb9801;fill-opacity:1"
     sodipodi:nodetypes="cccccccccccc" />
  <path
     fill="#f48801"
     d="m 628.92361,255.02177 c -27.50297,21.59134 -44.27469,43.01985 -67.06161,61.48823 19.20109,-35.31004 41.40326,-70.24049 64.59,-104.79136 1.29294,9.11611 2.71746,26.48935 2.47161,43.30313 z"
     id="path3729-1-9-9"
     sodipodi:nodetypes="cccc"
     style="fill:#e26c01;fill-opacity:1" />
  <path
     fill="#feaa01"
     d="m 719.674,120.761 c -3.586,6.717 -7.724,13.434 -11.146,20.135 -10.233,20.042 -20.682,41.591 -29.653,62.219 -18.43733,6.46783 -33.7377,8.82833 -52.423,8.587 0.0387,-13.1392 5.95394,-26.06426 9.832,-38.424 1.945,-6.187 4.251,-14.256 6.892,-20.065 1.627,-1.221 9.521,-5.34 11.641,-6.389 28.10583,-13.08069 38.37408,-17.76456 64.857,-26.063 z"
     id="path3778"
     sodipodi:nodetypes="cccccccc" />
  <path
     fill="#feaa01"
     d="m 790.09,217.525 c -3.586,6.717 -40.23318,17.45949 -43.65518,24.16049 -20.81282,24.77565 -53.28695,60.39305 -85.0529,61.06999 -1.31089,-17.98484 5.49259,-43.95137 11.68108,-59.16555 C 709.40714,227.31128 751.70742,217.902 790.09,217.525 Z"
     id="path3778-5"
     sodipodi:nodetypes="ccccc" />
  <path
     fill="#fb9801"
     d="m 719.674,120.761 c -3.586,6.717 -7.724,13.434 -11.146,20.135 -10.233,20.042 -20.682,41.591 -29.653,62.219 -4.65714,1.98066 -10.425,3.772 -14.64,5.424 -11.804,4.625 -25.322,4.973 -37.783,3.163 1.831,-1.724 4.091,-3.416 6.017,-5.124 18.769,-16.642 36.09,-35.586 53.658,-53.474 6.046,-6.042 12.128,-12.049 18.244,-18.02 2.963,-2.86 6.073,-5.787 8.993,-8.701 z"
     id="path3780"
     sodipodi:nodetypes="cccccccccc" />
  <path
     fill="#fb9801"
     d="m 790.09,217.525 c -32.78171,28.0631 -62.69525,67.0096 -82.72252,88.09258 -9.25581,1.031 -34.06638,-2.68447 -45.98556,-2.8621 C 695.7026,271.26899 750.85222,231.71016 790.09,217.525 Z"
     id="path3780-3"
     sodipodi:nodetypes="cccc" />
  <defs
     id="defs3787" />
  <path
     fill="url(#gradient_11)"
     d="m 304.565,120.86 c 3.436,1.787 9.308,3.09 13.229,4.229 5.278,1.489 10.48,3.237 15.587,5.237 18.756,7.355 29.281,13.704 46.569,21.969 15.145,7.828 25.794,14.645 39.36,25.287 3.743,2.937 14.909,12.71 18.042,14.71 4.039,3.144 1.80826,4.99629 2.32026,10.72429 1.2,13.448 2.18223,25.26285 3.76023,38.87585 2.97,25.626 11.83351,49.91486 17.11751,74.61786 -30.091,-36.703 -57.905,-59.158 -98.73,-82.341 -4.365,-2.479 -11.097,-22.651 -14.641,-29.521 -1.917,-5.537 -6.342,-13.007 -8.711,-18.75 -9.52,-23.076 -21.201,-43.656 -33.903,-65.038 z"
     id="path3789"
     sodipodi:nodetypes="ccccccccccccc"
     style="fill:#fec004;fill-opacity:1" />
  <defs
     id="defs3796" />
  <path
     fill="url(#gradient_12)"
     d="m 441.87646,196.28417 c -1.19948,10.3671 1.02736,31.92631 2.48754,45.34183 2.97,25.626 10.902,50.181 16.186,74.884 -30.091,-36.703 -57.905,-59.158 -98.73,-82.341 -4.365,-2.479 -11.097,-22.651 -14.641,-29.521 27.89306,1.6368 36.56843,3.95372 52.702,5.828 z"
     id="path3798"
     sodipodi:nodetypes="ccccccc"
     style="fill:#f99102;fill-opacity:1" />
  <path
     fill="#f48801"
     d="M 399.93119,210.57696 C 432.222,252.65214 459.7337,315.29408 460.55,316.51 c -39.23348,-42.64019 -42.19051,-45.54783 -78.50789,-70.27238 9.77162,-13.35073 11.76289,-23.37636 17.88908,-35.66066 z"
     id="path3729-10"
     sodipodi:nodetypes="cccc"
     style="fill:#f07c01;fill-opacity:1" />
  <path
     fill="#f48801"
     d="m 423.22395,294.51968 c 42.66397,35.99292 75.26105,92.48258 74.3058,93.55438 -34.15442,-25.9642 -39.89585,-25.36691 -76.21323,-50.09147 6.64098,-13.35073 3.96435,-31.17861 1.90743,-43.46291 z"
     id="path3729-10-86"
     sodipodi:nodetypes="cccc"
     style="fill:#f98a02;fill-opacity:1" />
  <path
     fill="#f48801"
     d="m 582.4359,197.5565 c 22.45018,10.5157 29.60001,13.02046 44.0161,14.16214 -23.34164,34.4575 -46.11906,72.60025 -64.59,104.79136 4.1359,-13.59207 18.51794,-104.79136 20.5739,-118.9535 z m 20.91246,95.05317 c 2.78526,17.60201 5.59426,32.57981 14.51514,43.17577 -23.34164,34.4575 -56.0015,37.40529 -89.78742,52.20051 5.90217,-15.10476 58.46763,-82.72288 75.27228,-95.37628 z"
     id="path3729-10-8"
     sodipodi:nodetypes="cccccccc"
     style="fill:#f07c01;fill-opacity:1" />
  <path
     fill="#f48801"
     d="m 618.50261,335.78544 c 20.30925,14.26235 33.17068,17.01093 45.46348,22.4345 -29.41048,18.14279 -103.43502,28.6972 -135.89001,29.42423 26.66915,-13.59207 73.77303,-38.89345 90.42653,-51.85873 z"
     id="path3729-10-8-6"
     sodipodi:nodetypes="cccc"
     style="fill:#e26c01;fill-opacity:1" />
  <path
     fill="#f48801"
     d="m 625.90341,211.71864 c 24.03947,0 36.27505,0 50.69114,-3.32009 -6.79214,16.80778 -6.71014,19.13813 -10.68486,24.27159 0,0 -19.04821,12.74286 -37.05864,22.35163 -2.39905,-13.27421 -5.0036,-29.14099 -2.94764,-43.30313 z"
     id="path3729-10-8-2"
     sodipodi:nodetypes="ccscc"
     style="fill:#f07c01;fill-opacity:1" />
  <path
     fill="#f48801"
     d="m 661.21816,302.75548 c 24.03947,0 31.73323,2.50759 46.14932,2.50759 -11.09377,15.49859 -36.16911,48.20764 -43.40139,53.15492 0,0 -32.36641,-11.09254 -45.46348,-22.63255 18.36862,-11.63739 30.82713,-20.75868 42.71555,-33.02996 z"
     id="path3729-10-8-2-3"
     sodipodi:nodetypes="ccscc"
     style="fill:#f07c01;fill-opacity:1" />
  <path
     fill="#feaa01"
     d="m 379.95,152.295 c 15.145,7.828 26.99165,13.97964 40.55765,24.62164 3.743,2.937 19.30039,16.5691 21.23574,19.23446 L 399.881,210.476 c -2.494,-4.205 -5.006,-12.617 -6.764,-17.35 -4.9,-13.197 -8.375,-27.764 -13.167,-40.831 z"
     id="path3800"
     sodipodi:nodetypes="cccccc" />
  <path
     fill="#feaa01"
     d="m 304.80496,121.75144 95.12623,88.82552 -52.82471,-5.87056 C 332.2574,176.22751 322.67791,152.67272 304.80496,121.75144 Z"
     id="path3800-7"
     sodipodi:nodetypes="cccc" />
  <path
     fill="#feaa01"
     d="m 237.13135,219.13072 c 46.28638,23.6885 90.72545,52.39113 134.90061,83.73278 -18.99996,2.63902 -39.06864,1.84731 -58.60296,0 -22.36301,-25.97425 -55.08518,-62.83007 -76.29765,-83.73278 z"
     id="path3800-7-0"
     sodipodi:nodetypes="cccc" />
  <path
     fill="#EC7801"
     d="m 750.832,548.715 1.239,0.709 c 11.301,29.105 18.661,65.555 22.931,96.69 -0.077,3.427 -0.382,7.263 -0.666,10.65 -2.304,27.398 -7.156,54.875 -10.554,82.172 -3.596,-4.157 -6.679,-6.801 -10.426,-11.442 -6.002,-7.137 -13.971,-14.158 -20.557,-20.809 -2.861,-2.889 -6.606,-6.069 -8.917,-9.267 0.285,-37.398 -4.449,-75.885 -4.505,-113.094 0.001,0.651 28.265,-30.969 31.196,-35.226 z"
     id="path3802"
     style="fill:#f48801;fill-opacity:1" />
  <path
     fill="#fb9801"
     d="M 724.02407,699.005 719.377,585.64801 775.33091,646.05529 Z"
     id="path3750-0-8"
     sodipodi:nodetypes="cccc"
     style="fill:#f07c01;fill-opacity:1" />
  <defs
     id="defs3809" />
  <path
     fill="url(#gradient_13)"
     d="m 270.953,548.671 c 1.673,1.013 4.386,4.511 5.605,6.155 7.325,9.879 16.261,18.11 24.383,27.268 1.856,2.093 2.02,2.414 2.077,5.339 0.226,11.464 -0.57,22.921 -1.12,34.369 l -1.457,35.845 c -0.648,13.643 -0.132,26.028 -1.104,40.097 -1.613,1.877 -7.794,7.197 -9.95,9.212 -7.203,6.732 -13.097,12.69 -19.515,20.136 -0.501,1.059 -8.624,9.866 -9.879,11.288 -2.734,-11.319 -4.302,-29.18 -6.028,-41.236 -2.06,-14.39 -5.719,-35.735 -5.667,-50.032 0.58,-19.002 5.775,-37.911 9.93,-56.305 3.465,-15.343 6.957,-27.582 12.725,-42.136 z"
     id="path3811"
     style="fill:#feaa01;fill-opacity:1" />
  <path
     fill="#f48801"
     d="m 417.219,890.938 c 3.155,0.93 6.05,3.063 8.691,5.007 17.537,12.905 35.243,25.641 52.64,38.729 8.817,6.633 17.226,13.785 26.05,20.388 -11.825,-0.343 -27.789,-2.772 -39.984,-4.253 -5.401,-1.126 -13.843,-1.572 -18.794,-2.962 -17.566,-4.932 -34.907,-12.497 -51.222,-20.607 -6.508,-3.235 -14.103,-6.56 -20.117,-10.443 4.077,-2.537 8.558,-6.782 12.716,-9.238 9.581,-5.658 20.127,-11.592 30.02,-16.621 z"
     id="path3813" />
  <path
     fill="#e26c01"
     d="m 606.961,890.383 c 5.173,0.396 36.449,21.398 41.698,25.968 -21.078,11.9 -47.069,24.36 -70.285,31.377 -4.369,1.321 -15.951,2.856 -20.753,3.455 -9.813,2.012 -29.233,3.696 -39.08,3.86 l 61.417,-43.988 c 8.813,-6.446 18.37,-14.738 27.003,-20.672 z"
     id="path3815" />
  <path
     fill="#fb9801"
     d="m 590.433,393.119 c 7.739,-1.058 46.974,14.385 54.861,20.179 -6.524,3.376 -28.86,14.434 -35.602,15.862 -5.872,-1.774 -20.686,-9.148 -26.949,-11.819 -12.132,-5.174 -24.657,-10.196 -36.609,-15.655 14.06,-2.783 31.312,-4.79 44.299,-8.567 z"
     id="path3817" />
  <path
     fill="#f48801"
     d="m 590.433,393.119 c 7.739,-1.058 46.974,14.385 54.861,20.179 -6.524,3.376 -28.86,14.434 -35.602,15.862 2.59,-7.044 -10.382,-27.4 -14.889,-33.142 -0.714,-0.91 -3.295,-2.32 -4.37,-2.899 z"
     id="path3819" />
  <path
     fill="#feaa01"
     d="m 430.741,393.56 c 3.611,-0.636 38.351,7.288 44.489,8.577 -17.414,9.435 -36.453,16.405 -53.957,25.006 -1.917,0.874 -4.715,1.876 -6.738,2.675 -5.538,-1.936 -32.488,-13.318 -34.613,-16.557 3.873,-5.198 42.025,-17.139 50.819,-19.701 z"
     id="path3821" />
  <path
     fill="#f48801"
     d="m 430.7384,393.52374 c 7.739,-1.058 35.14952,5.40639 44.48501,8.77196 -6.524,3.376 -53.9768,26.0943 -60.7188,27.5223 1.50238,-5.07027 18.51856,-34.90458 16.23379,-36.29426 z"
     id="path3819-3"
     sodipodi:nodetypes="cccc"
     style="fill:#f49d01;fill-opacity:1" />
  <path
     fill="#f48801"
     d="m 687.61253,487.98484 c 15.12859,-14.551 18.25073,-17.819 26.85847,-25.78117 8.61065,12.89339 21.92322,41.05685 30.237,70.82433 -26.38431,-19.44168 -30.237,-25.34978 -57.09547,-45.04316 z"
     id="path3754-6"
     sodipodi:nodetypes="cccc"
     style="fill:#f07c01;fill-opacity:1" />
  <path
     fill="#f48801"
     d="m 248.29745,649.54253 c 10.91924,10.70033 43.12971,41.27602 51.13265,48.59247 -11.42696,8.80371 -34.6631,33.23191 -39.4566,40.245 -5.4391,-19.99 -11.67605,-69.38666 -11.67605,-88.83747 z"
     id="path3754-61"
     sodipodi:nodetypes="cccc" />
  <path
     fill="#fb9801"
     d="m 302.67922,584.6399 c 0,0 0.61746,6.06271 0.37818,15.44503 -0.68788,26.9729 -2.88365,81.38188 -3.6273,98.05007 -18.78005,-15.67892 -33.76794,-33.11769 -51.04965,-48.19032 l -0.083,-0.337 1.599,-1.301 c 18.4323,-23.44506 52.78277,-63.66678 52.78277,-63.66678 z"
     id="path3750-0"
     sodipodi:nodetypes="csccccc" />
  <path
     fill="#e26c01"
     d="m 724.02407,697.59064 c 20.68393,-21.98148 29.69858,-27.86303 50.97793,-51.53535 1.95473,35.90433 -5.18958,66.10771 -11.22231,92.88071 z"
     id="path3628-6"
     sodipodi:nodetypes="cccc" />
  <path
     fill="#fec004"
     d="m 306.25361,713.805 c 5.91099,33.78142 17.25237,74.12605 28.54445,104.208 -36.3289,-25.54468 -40.8445,-25.76612 -70.03106,-61.61006 15.53703,-18.02294 27.34475,-31.0086 41.48661,-42.59794 z"
     id="path3613-8"
     sodipodi:nodetypes="cccc"
     style="fill:#feaa01;fill-opacity:1" />
  <path
     fill="#fec004"
     d="m 512.12588,719.166 0.21624,118.158 -100.79312,-59.66 c 20.62828,-15.776 66.59871,-40.80882 100.57688,-58.498 z"
     id="path3613-2"
     sodipodi:nodetypes="cccc"
     style="fill:#feaa01;fill-opacity:1" />
  <path
     fill="#fec004"
     d="m 611.82906,778.245 -99.48694,59.079 -0.65309,-118.158 c 24.17299,12.75169 84.45215,43.59187 100.14003,59.079 z"
     id="path3613-2-8"
     sodipodi:nodetypes="cccc"
     style="fill:#fb9801;fill-opacity:1" />
  <path
     fill="#fec004"
     d="M 598.33027,879.30849 512.34212,939.873 511.68903,836.92584 c 24.17299,12.75169 70.78024,36.45266 86.64124,42.38265 z"
     id="path3613-2-8-3"
     sodipodi:nodetypes="cccc"
     style="fill:#e26c01;fill-opacity:1" />
  <path
     fill="#E26C01"
     d="m 606.41226,890.383 c -3.37281,9.84587 -25.23528,46.41515 -28.60947,57.45064 -16.04374,3.59246 -34.29702,7.20936 -59.13601,7.20936 12.12944,-8.73603 69.36775,-50.364 87.74548,-64.66 z"
     id="path3712-32"
     style="fill:#f07c01;fill-opacity:1"
     sodipodi:nodetypes="cccc" />
  <path
     fill="#E26C01"
     d="m 417.26753,890.938 c 5.09154,10.64275 24.72892,44.0714 29.73684,57.2351 14.83307,3.25519 38.2893,5.44568 57.18262,7.442 -12.63781,-11.59787 -77.2082,-61.75041 -86.91946,-64.6771 z"
     id="path3712-32-9"
     style="fill:#f07c01;fill-opacity:1"
     sodipodi:nodetypes="cccc" />
</svg>
