<svg xmlns="http://www.w3.org/2000/svg" width="435" height="87" fill="none"><path fill="#000" d="M92.276 68.83q-4.43 0-8.86-1.66a24.2 24.2 0 0 1-7.822-4.846l5.814-6.992a21.8 21.8 0 0 0 5.4 3.392q2.977 1.315 5.745 1.315 3.185 0 4.707-1.176 1.593-1.177 1.592-3.185 0-2.145-1.8-3.115-1.73-1.038-4.707-2.284l-5.883-2.492a20 20 0 0 1-4.361-2.561 13.3 13.3 0 0 1-3.392-4.084q-1.315-2.424-1.315-5.677 0-3.738 2.007-6.783 2.076-3.046 5.676-4.846 3.669-1.8 8.376-1.8 3.876 0 7.753 1.523a19.65 19.65 0 0 1 6.784 4.43l-5.192 6.438q-2.215-1.73-4.43-2.63-2.215-.97-4.915-.97-2.63 0-4.222 1.108-1.523 1.038-1.523 2.977 0 2.076 1.938 3.115 2.007 1.038 4.915 2.215l5.814 2.353q4.084 1.661 6.507 4.57 2.423 2.906 2.423 7.683 0 3.738-2.007 6.922t-5.815 5.122q-3.807 1.94-9.207 1.939m32.512 0q-4.708 0-7.477-2.976-2.768-3.046-2.768-7.407 0-5.4 4.568-8.445 4.569-3.045 14.745-4.084-.139-2.285-1.385-3.6-1.176-1.383-4.015-1.384-2.145 0-4.361.83-2.215.831-4.707 2.285l-3.669-6.715a34 34 0 0 1 6.923-3.253 24.4 24.4 0 0 1 7.753-1.246q6.576 0 10.106 3.807t3.53 11.699V68h-8.306l-.693-3.53h-.276a20.8 20.8 0 0 1-4.638 3.184q-2.424 1.177-5.33 1.177m3.461-7.89q1.73 0 2.976-.762 1.316-.831 2.631-2.146V52.01q-5.4.692-7.476 2.215-2.077 1.454-2.077 3.46 0 1.663 1.038 2.493 1.108.762 2.908.761m26.12 7.06V41.626h-4.568v-7.545l4.568-.346v-1.87q0-3.668 1.246-6.644t4.015-4.777 7.407-1.8q2.146 0 3.946.416t2.907.83l-1.869 7.476q-.9-.346-1.8-.484a7.7 7.7 0 0 0-1.73-.208q-1.87 0-2.908 1.177-1.038 1.107-1.038 3.738v2.077h6.161v7.96h-6.161V68zm36.553.83q-4.915 0-8.86-2.145t-6.23-6.161q-2.284-4.015-2.284-9.691 0-5.607 2.284-9.622 2.354-4.015 6.092-6.16 3.738-2.217 7.822-2.216 4.914 0 8.099 2.215 3.254 2.146 4.845 5.884 1.662 3.669 1.662 8.376 0 1.316-.139 2.63-.138 1.246-.277 1.87h-20.559q.693 3.737 3.115 5.537 2.423 1.73 5.815 1.73 3.669.001 7.407-2.284l3.392 6.161q-2.63 1.8-5.884 2.838-3.254 1.04-6.3 1.039m-7.614-21.735h12.391q0-2.838-1.385-4.638-1.315-1.869-4.361-1.869-2.353 0-4.222 1.661-1.87 1.593-2.423 4.846m40.62 21.736q-6.368 0-9.137-3.67-2.7-3.668-2.7-9.621V41.626h-4.707v-7.545l5.261-.415 1.177-9.138h8.445v9.138h8.238v7.96h-8.238v13.776q0 2.907 1.177 4.222 1.246 1.245 3.253 1.246a6.8 6.8 0 0 0 1.662-.208q.9-.208 1.592-.484l1.592 7.407q-1.315.415-3.253.83-1.869.416-4.362.416m27.429 0q-4.915 0-8.861-2.146-3.945-2.145-6.23-6.161-2.284-4.015-2.284-9.691 0-5.607 2.284-9.622 2.354-4.015 6.092-6.16 3.738-2.217 7.822-2.216 4.915 0 8.099 2.215 3.253 2.146 4.846 5.884 1.66 3.669 1.661 8.376 0 1.316-.139 2.63-.138 1.246-.276 1.87h-20.559q.691 3.737 3.115 5.537 2.422 1.73 5.814 1.73 3.669.001 7.407-2.284l3.392 6.161q-2.63 1.8-5.884 2.838-3.254 1.04-6.299 1.039m-7.615-21.736h12.391q0-2.838-1.384-4.638-1.316-1.869-4.361-1.869-2.354 0-4.223 1.661-1.87 1.593-2.423 4.846M271.817 68V33.666h8.307l.692 4.36h.277a26.4 26.4 0 0 1 4.846-3.599q2.7-1.592 6.161-1.592 5.606 0 8.099 3.738 2.56 3.67 2.561 10.106V68h-10.176V47.995q0-3.738-1.038-5.123-.97-1.384-3.184-1.384-1.939 0-3.323.9-1.384.83-3.046 2.422V68zm49.72.83q-3.391 0-6.991-1.315-3.53-1.315-6.161-3.46l4.569-6.37q2.354 1.732 4.499 2.7 2.216.9 4.361.9 2.285 0 3.323-.761 1.038-.832 1.038-2.146 0-1.176-1.038-1.938-.97-.762-2.561-1.385a86 86 0 0 0-3.392-1.384 29 29 0 0 1-4.153-2.077 11.7 11.7 0 0 1-3.392-3.184q-1.385-2.007-1.385-4.845 0-4.777 3.6-7.753 3.669-2.977 9.552-2.977 3.946 0 6.923 1.384 3.046 1.316 5.191 2.977l-4.568 6.092q-1.8-1.385-3.6-2.146-1.8-.762-3.599-.762-3.946 0-3.946 2.7 0 1.662 1.938 2.561 2.007.831 4.638 1.8a22.6 22.6 0 0 1 4.292 2.007 10.2 10.2 0 0 1 3.53 3.185q1.454 1.939 1.454 5.122 0 4.638-3.6 7.891-3.6 3.185-10.522 3.185m35.329 0q-4.361 0-8.238-2.076-3.807-2.146-6.161-6.16-2.353-4.085-2.353-9.761 0-5.745 2.353-9.76 2.354-4.016 6.161-6.092 3.877-2.146 8.238-2.146t8.168 2.146q3.807 2.077 6.161 6.091t2.353 9.76q0 5.677-2.353 9.761-2.354 4.015-6.161 6.161a16.8 16.8 0 0 1-8.168 2.077m0-8.237q3.114 0 4.707-2.63 1.592-2.7 1.592-7.13 0-4.5-1.592-7.13t-4.707-2.63q-3.184 0-4.777 2.63-1.523 2.63-1.523 7.13 0 4.43 1.523 7.13 1.593 2.63 4.777 2.63M380.518 68V33.666h8.307l.692 6.022h.277q1.87-3.461 4.499-5.122 2.631-1.73 5.261-1.73 1.454 0 2.423.207.97.139 1.661.484l-1.661 8.792q-.9-.278-1.8-.416-.831-.138-1.938-.138-1.939 0-4.084 1.453-2.077 1.385-3.461 4.846V68zm37.147.83q-3.392 0-6.992-1.315-3.53-1.315-6.161-3.46l4.569-6.37q2.354 1.732 4.499 2.7 2.216.9 4.361.9 2.285 0 3.323-.761 1.038-.832 1.038-2.146 0-1.176-1.038-1.938-.97-.762-2.561-1.385a86 86 0 0 0-3.392-1.384 29 29 0 0 1-4.153-2.077 11.7 11.7 0 0 1-3.392-3.184q-1.385-2.007-1.385-4.845 0-4.777 3.6-7.753 3.669-2.977 9.553-2.977 3.945 0 6.922 1.384 3.046 1.316 5.191 2.977l-4.568 6.092q-1.8-1.385-3.6-2.146-1.8-.762-3.599-.762-3.946 0-3.946 2.7 0 1.662 1.938 2.561 2.007.831 4.638 1.8a22.6 22.6 0 0 1 4.292 2.007 10.2 10.2 0 0 1 3.53 3.185q1.454 1.939 1.454 5.122 0 4.638-3.6 7.891-3.6 3.185-10.521 3.185M35.849 44.867l18.176 7.294a2.832 2.832 0 0 1 .028 5.246L28.986 67.785a2.83 2.83 0 0 1-2.167 0L1.749 57.409a2.832 2.832 0 0 1 .028-5.245l18.496-7.421c1.06-.425 4.407.821 7.628.832 3.441.012 6.761-1.184 7.948-.708m-25.512 9.965 17.564 7.27 17.567-7.27-17.567-7.05zm18.62-29.724 25.068 10.058a2.833 2.833 0 0 1 .028 5.246L28.986 50.79a2.83 2.83 0 0 1-2.167 0L1.749 40.415a2.833 2.833 0 0 1 .028-5.246l25.068-10.06a2.83 2.83 0 0 1 2.113 0m-18.62 12.73 17.564 7.27 17.567-7.27-17.567-7.05z"/></svg>