<svg width="712" height="201" viewBox="0 0 712 201" fill="none" xmlns="http://www.w3.org/2000/svg">
<path d="M100.362 76.8445C113.383 76.8446 123.94 87.4009 123.94 100.423C123.94 109.527 123.792 120.212 130.465 126.405L153.254 147.556C159.18 153.056 168.277 153.019 176.362 153.019C189.383 153.019 199.94 163.576 199.94 176.597C199.94 189.619 189.383 200.175 176.362 200.176C163.34 200.176 152.783 189.619 152.783 176.597C152.783 167.044 153.177 155.673 146.175 149.174L125.057 129.574C118.754 123.724 108.962 124.001 100.362 124.001C87.3398 124.001 76.7834 113.444 76.7834 100.423C76.7834 87.4008 87.3397 76.8445 100.362 76.8445Z" fill="#13D8FF"/>
<path d="M24.0082 0.669434C37.0299 0.669486 47.5863 11.2258 47.5863 24.2476C47.5863 31.0534 44.7026 37.1857 40.0905 41.4895C33.949 47.2203 27.0023 53.9345 27.0023 62.3344C27.0023 70.7344 33.9491 77.4488 40.0904 83.1798C44.7026 87.4838 47.5862 93.6165 47.5863 100.422C47.5863 107.228 44.7028 113.36 40.0909 117.664C33.9493 123.395 27.0023 130.109 27.0023 138.51C27.0023 146.91 33.9494 153.625 40.0908 159.356C44.7028 163.66 47.5863 169.792 47.5863 176.598C47.5861 189.62 37.0298 200.176 24.0082 200.176C10.9865 200.176 0.430247 189.62 0.430054 176.598C0.430054 169.797 3.30936 163.669 7.91543 159.366C14.0552 153.629 21.0023 146.912 21.0023 138.51C21.0023 130.107 14.0552 123.39 7.91536 117.654C3.30933 113.351 0.430054 107.223 0.430054 100.422C0.430121 93.6215 3.30956 87.4929 7.91581 83.1895C14.0554 77.4535 21.0023 70.7366 21.0023 62.3344C21.0023 53.9323 14.0555 47.2156 7.91573 41.4798C3.30951 37.1767 0.430084 31.0484 0.430054 24.2476C0.430053 11.2258 10.9864 0.669434 24.0082 0.669434ZM176.364 0.67041C189.385 0.67041 199.942 11.2268 199.942 24.2485C199.942 30.8777 197.206 36.8671 192.801 41.1501C186.727 47.0573 179.784 53.8625 179.784 62.3357C179.784 70.8082 186.726 77.6132 192.8 83.5203C197.204 87.8037 199.94 93.7934 199.94 100.422C199.94 113.444 189.383 124 176.362 124C163.34 124 152.784 113.444 152.784 100.422C152.784 93.4492 155.811 87.1834 160.623 82.867C166.827 77.3009 173.784 70.6698 173.784 62.3342C173.784 53.9992 166.829 47.3686 160.624 41.803C160.083 41.3172 159.564 40.8067 159.069 40.2732C153.391 34.1486 146.715 27.2495 138.363 27.2495C130.011 27.2495 123.335 34.1486 117.657 40.2737C113.35 44.9191 107.195 47.8266 100.362 47.8267C87.34 47.8267 76.7837 37.2702 76.7836 24.2485C76.7836 11.2268 87.3399 0.67041 100.362 0.67041C107.196 0.670505 113.352 3.57854 117.658 8.22474C123.335 14.3502 130.011 21.2495 138.363 21.2495C146.715 21.2495 153.39 14.3502 159.067 8.22473C163.374 3.57848 169.529 0.670435 176.364 0.67041Z" fill="#076CEE"/>
<path d="M684.736 4.84239C684.736 4.11355 685.327 3.52271 686.056 3.52271H710.341C711.07 3.52271 711.66 4.11355 711.66 4.84238V192.271C711.66 193 711.07 193.591 710.341 193.591H686.056C685.327 193.591 684.736 193 684.736 192.271V4.84239Z" fill="black"/>
<path d="M575.578 53.6257C575.578 52.8969 576.169 52.306 576.898 52.306H600.916C601.645 52.306 602.236 52.8968 602.236 53.6257V64.8362C602.236 66.1771 604.126 66.739 604.964 65.692C609.334 60.2294 615.356 56.1228 623.028 53.3723C632.113 50.1156 642.602 48.4295 654.497 48.3138C655.226 48.3067 655.817 48.8982 655.817 49.6271V72.3123C655.817 73.0412 655.225 73.6312 654.497 73.6398C644.382 73.76 635.492 75.268 627.827 78.1638C619.83 81.0073 613.609 85.0948 609.166 90.4263C604.724 95.5801 602.502 101.534 602.502 108.287V192.271C602.502 193 601.911 193.591 601.182 193.591H576.898C576.169 193.591 575.578 193 575.578 192.271V53.6257Z" fill="black"/>
<path d="M475.165 197.323C461.836 197.323 449.662 194.035 438.644 187.46C427.803 180.884 419.184 171.91 412.786 160.536C406.566 148.984 403.456 136.189 403.456 122.149C403.456 108.465 406.655 96.0246 413.053 84.8285C419.45 73.6323 428.158 64.8353 439.177 58.4375C450.195 51.862 462.369 48.5742 475.698 48.5742C492.048 48.5742 505.732 52.3063 516.75 59.7704C527.769 67.2345 535.588 77.6309 540.209 90.9597C544.784 103.498 546.208 117.57 544.483 133.178C544.338 134.494 543.217 135.48 541.892 135.483L432.58 135.74C431.729 135.742 431.101 136.538 431.324 137.36C433.164 144.148 436.226 150.096 440.51 155.204C445.308 160.536 450.817 164.623 457.037 167.467C463.258 170.31 469.389 171.732 475.431 171.732C481.474 171.732 487.072 171.021 492.225 169.599C497.557 168 502.266 165.956 506.354 163.468C510.441 160.802 513.996 157.781 517.017 154.405L517.602 153.703C518.029 153.19 518.771 153.077 519.331 153.439L538.349 165.716C538.942 166.099 539.13 166.882 538.763 167.484C532.591 177.595 524.098 185.053 513.285 189.859C502.266 194.835 489.56 197.323 475.165 197.323ZM517.319 112.019C518.136 112.019 518.758 111.283 518.598 110.481C517.267 103.817 514.785 97.8428 511.152 92.5591C507.242 86.8722 502.266 82.4293 496.224 79.2304C490.182 75.8538 483.428 74.1654 475.964 74.1654C468.856 74.1654 462.014 75.7649 455.438 78.9638C449.04 81.985 443.531 86.339 438.91 92.026C434.755 97.3454 432.154 103.52 431.108 110.55C430.991 111.331 431.606 112.019 432.395 112.019H517.319Z" fill="black"/>
<path d="M256.677 53.8545C256.325 52.9869 256.964 52.0396 257.9 52.0396H282.481C283.033 52.0396 283.526 52.3831 283.718 52.9007L323.763 160.97C324.187 162.113 325.801 162.12 326.234 160.981L367.313 52.8904C367.508 52.3782 367.999 52.0396 368.547 52.0396H392.859C393.798 52.0396 394.436 52.992 394.08 53.8604L337.05 192.773C336.847 193.268 336.365 193.591 335.829 193.591H314.145C313.607 193.591 313.123 193.265 312.922 192.767L256.677 53.8545Z" fill="black"/>
</svg>

